<svg width="80" height="80" viewBox="0 0 80 80" fill="none" xmlns="http://www.w3.org/2000/svg">
<path d="M54.1736 45.7918H49.9806V49.9848H54.1736V45.7918Z" fill="#725BFF"/>
<path d="M54.1736 37.4058H49.9806V41.5988H54.1736V37.4058Z" fill="#725BFF"/>
<path d="M54.1736 29.0197H49.9806V33.2128H54.1736V29.0197Z" fill="#725BFF"/>
<path d="M49.9806 45.7918H45.7876V49.9848H49.9806V45.7918Z" fill="#725BFF"/>
<path d="M49.9806 37.4058H45.7876V41.5988H49.9806V37.4058Z" fill="#725BFF"/>
<path d="M49.9806 29.0197H45.7876V33.2128H49.9806V29.0197Z" fill="#725BFF"/>
<path d="M45.7876 45.7918H41.5946V49.9848H45.7876V45.7918Z" fill="#725BFF"/>
<path d="M45.7876 37.4058H41.5946V41.5988H45.7876V37.4058Z" fill="#725BFF"/>
<path d="M45.7876 29.0197H41.5946V33.2128H45.7876V29.0197Z" fill="#725BFF"/>
<path d="M41.5946 45.7918H37.4016V49.9848H41.5946V45.7918Z" fill="#725BFF"/>
<path d="M41.5946 37.4058H37.4016V41.5988H41.5946V37.4058Z" fill="#725BFF"/>
<path d="M41.5946 29.0197H37.4016V33.2128H41.5946V29.0197Z" fill="#725BFF"/>
<path d="M37.4016 45.7918H33.2086V49.9848H37.4016V45.7918Z" fill="#725BFF"/>
<path d="M37.4016 37.4058H33.2086V41.5988H37.4016V37.4058Z" fill="#725BFF"/>
<path d="M37.4016 29.0197H33.2086V33.2128H37.4016V29.0197Z" fill="#725BFF"/>
<path d="M33.2086 45.7918H29.0156V49.9848H33.2086V45.7918Z" fill="#725BFF"/>
<path d="M33.2086 37.4058H29.0156V41.5988H33.2086V37.4058Z" fill="#725BFF"/>
<path d="M33.2086 29.0197H29.0156V33.2128H33.2086V29.0197Z" fill="#725BFF"/>
<path d="M29.0156 45.7918H24.8226V49.9848H29.0156V45.7918Z" fill="#725BFF"/>
<path d="M29.0156 37.4058H24.8226V41.5988H29.0156V37.4058Z" fill="#725BFF"/>
<path d="M29.0156 29.0197L24.8225 29.0197V33.2128L29.0156 33.2128V29.0197Z" fill="#725BFF"/>
<path d="M62.5597 66.7569H58.3667V70.9499H62.5597V66.7569Z" fill="#28E8A3"/>
<path d="M62.5597 62.5638H58.3667V66.7569H62.5597V62.5638Z" fill="#28E8A3"/>
<path d="M62.5597 58.3708H58.3667V62.5638H62.5597V58.3708Z" fill="#28E8A3"/>
<path d="M62.5597 54.1778H58.3667V58.3708H62.5597V54.1778Z" fill="#28E8A3"/>
<path d="M62.5597 49.9848H58.3667V54.1778H62.5597V49.9848Z" fill="#28E8A3"/>
<path d="M62.5597 45.7918H58.3667V49.9848H62.5597V45.7918Z" fill="#28E8A3"/>
<path d="M62.5597 41.5988H58.3667V45.7918H62.5597V41.5988Z" fill="#28E8A3"/>
<path d="M62.5597 37.4058H58.3667V41.5988H62.5597V37.4058Z" fill="#28E8A3"/>
<path d="M62.5597 33.2128H58.3667V37.4058H62.5597V33.2128Z" fill="#28E8A3"/>
<path d="M62.5597 29.0197H58.3667V33.2128H62.5597V29.0197Z" fill="#28E8A3"/>
<path d="M62.5597 24.8267H58.3667V29.0197H62.5597V24.8267Z" fill="#28E8A3"/>
<path d="M62.5597 20.6337H58.3667V24.8267H62.5597V20.6337Z" fill="#28E8A3"/>
<path d="M62.5597 16.4407H58.3667V20.6337H62.5597V16.4407Z" fill="#28E8A3"/>
<path d="M62.5597 12.2477H58.3667V16.4407H62.5597V12.2477Z" fill="#28E8A3"/>
<path d="M62.5597 8.05469H58.3667V12.2477H62.5597V8.05469Z" fill="#28E8A3"/>
<path d="M58.3667 66.7569H54.1736V70.9499H58.3667V66.7569Z" fill="#28E8A3"/>
<path d="M58.3667 8.05469H54.1736V12.2477L58.3667 12.2477V8.05469Z" fill="#28E8A3"/>
<path d="M54.1736 66.7569H49.9806V70.9499H54.1736V66.7569Z" fill="#28E8A3"/>
<path d="M54.1736 8.05469H49.9806V12.2477L54.1736 12.2477V8.05469Z" fill="#28E8A3"/>
<path d="M49.9806 66.7569H45.7876V70.9499H49.9806V66.7569Z" fill="#28E8A3"/>
<path d="M49.9806 8.05469H45.7876V12.2477H49.9806V8.05469Z" fill="#28E8A3"/>
<path d="M45.7876 66.7569H41.5946V70.9499H45.7876V66.7569Z" fill="#28E8A3"/>
<path d="M45.7876 8.05469H41.5946V12.2477H45.7876V8.05469Z" fill="#28E8A3"/>
<path d="M41.5946 66.7569H37.4016V70.9499H41.5946V66.7569Z" fill="#28E8A3"/>
<path d="M41.5946 8.05469L37.4016 8.05469V12.2477H41.5946V8.05469Z" fill="#28E8A3"/>
<path d="M37.4016 66.7569H33.2086V70.9499H37.4016V66.7569Z" fill="#28E8A3"/>
<path d="M37.4016 8.05469H33.2086V12.2477H37.4016V8.05469Z" fill="#28E8A3"/>
<path d="M33.2086 66.7569H29.0156V70.9499H33.2086V66.7569Z" fill="#28E8A3"/>
<path d="M33.2086 20.6337H29.0156V24.8267H33.2086V20.6337Z" fill="#28E8A3"/>
<path d="M33.2086 16.4407H29.0156V20.6337H33.2086V16.4407Z" fill="#28E8A3"/>
<path d="M33.2086 12.2477L29.0156 12.2477V16.4407H33.2086L33.2086 12.2477Z" fill="#28E8A3"/>
<path d="M33.2086 8.05469H29.0156V12.2477L33.2086 12.2477V8.05469Z" fill="#28E8A3"/>
<path d="M29.0156 66.7569H24.8225V70.9499H29.0156V66.7569Z" fill="#28E8A3"/>
<path d="M29.0156 20.6337H24.8225V24.8267H29.0156V20.6337Z" fill="#28E8A3"/>
<path d="M29.0156 16.4407H24.8225V20.6337H29.0156V16.4407Z" fill="#28E8A3"/>
<path d="M29.0156 12.2477H24.8225V16.4407H29.0156V12.2477Z" fill="#28E8A3"/>
<path d="M24.8225 66.7569H20.6296V70.9499H24.8225V66.7569Z" fill="#28E8A3"/>
<path d="M24.8225 20.6337H20.6296V24.8267H24.8225V20.6337Z" fill="#28E8A3"/>
<path d="M24.8225 16.4407H20.6296V20.6337H24.8225V16.4407Z" fill="#28E8A3"/>
<path d="M20.6296 66.7569H16.4365V70.9499H20.6296V66.7569Z" fill="#28E8A3"/>
<path d="M20.6295 62.5638H16.4365V66.7569H20.6296L20.6295 62.5638Z" fill="#28E8A3"/>
<path d="M20.6295 58.3708H16.4365V62.5638H20.6295V58.3708Z" fill="#28E8A3"/>
<path d="M20.6295 54.1778H16.4365V58.3708H20.6295V54.1778Z" fill="#28E8A3"/>
<path d="M20.6295 49.9848H16.4365V54.1778H20.6295L20.6295 49.9848Z" fill="#28E8A3"/>
<path d="M20.6295 45.7918H16.4365V49.9848H20.6295V45.7918Z" fill="#28E8A3"/>
<path d="M20.6295 41.5988H16.4365L16.4365 45.7918H20.6295V41.5988Z" fill="#28E8A3"/>
<path d="M20.6295 37.4058H16.4365V41.5988H20.6295V37.4058Z" fill="#28E8A3"/>
<path d="M20.6295 33.2128H16.4365V37.4058H20.6295V33.2128Z" fill="#28E8A3"/>
<path d="M20.6295 29.0197H16.4365V33.2128H20.6295V29.0197Z" fill="#28E8A3"/>
<path d="M20.6296 24.8267L16.4365 24.8267V29.0197H20.6295L20.6296 24.8267Z" fill="#28E8A3"/>
<path d="M20.6296 20.6337H16.4365V24.8267L20.6296 24.8267V20.6337Z" fill="#28E8A3"/>
</svg>
