<svg width="290" height="100" viewBox="0 0 290 100" fill="none" xmlns="http://www.w3.org/2000/svg">
<path d="M37.727 41.2708C38.2116 41.8155 38.454 42.481 38.454 43.3282C38.454 44.2359 38.0906 44.9623 37.3031 45.3859C36.9397 45.5675 36.1521 45.87 34.8194 46.233C33.2445 46.6566 32.2147 47.2011 31.7907 47.8667C31.1243 48.8349 30.8214 50.1663 30.8214 51.8607C30.8214 53.434 31.2454 54.8259 32.0329 55.9152C32.9415 56.5203 33.7895 56.8229 34.6375 56.8229C35.5462 56.8229 36.576 56.4597 37.6663 55.794C38.0298 55.6125 38.3935 55.4914 38.8175 55.4914C39.4233 55.4914 39.9685 55.7336 40.3319 56.2177C40.6954 56.7018 40.877 57.2463 40.8164 57.8514C40.6953 59.1222 40.453 60.0905 39.9684 60.6956C39.5444 61.3008 38.5752 61.9059 37.2425 62.511C36.2733 62.9346 35.3645 63.1162 34.3953 63.1162C33.6684 63.1162 32.6385 62.9347 31.3059 62.6322C29.428 61.906 28.4589 61.5429 28.3377 61.4219C27.7319 61.0588 27.0051 60.4536 26.2782 59.4854C25.6118 58.6382 25.0666 57.3068 24.7031 55.4914C24.4003 53.9786 24.2793 52.5265 24.2793 51.1347C24.2793 49.8639 24.4002 48.8352 24.6425 48.109C25.854 45.5675 27.429 43.6309 29.4886 42.1785C30.7001 41.3314 31.9116 40.7869 33.1231 40.5449C33.426 40.4843 34.3954 40.4236 35.9703 40.3026C36.6367 40.3631 37.2424 40.7262 37.727 41.2708Z" fill="#009FE3"/>
<path d="M42.2094 43.5705C42.3306 41.271 43.7239 40.1817 46.2681 40.1817C47.2373 40.1817 47.9642 40.4238 48.3883 40.8474C48.8729 41.271 49.1759 41.9366 49.4182 42.9048C49.4788 43.2679 49.5392 43.5705 49.5392 43.8731C49.5392 44.9623 49.1758 45.8699 48.4489 46.475C47.722 47.0802 46.7527 47.4433 45.6017 47.4433C44.5719 47.4433 43.7844 47.0803 43.118 46.2936C42.4517 45.4464 42.1488 44.5387 42.2094 43.5705ZM42.8758 49.8033C43.2393 49.1376 44.148 48.7744 45.6624 48.7744C47.2373 48.7744 48.2671 49.1377 48.6911 49.9244C49.0546 50.5295 49.1756 52.6474 49.1756 56.1571C49.1756 59.3038 49.0547 61.3008 48.7518 62.2085C48.4489 62.8741 47.4191 63.2373 45.723 63.2373C44.148 63.2373 43.1787 62.9347 42.9364 62.269C42.4518 61.2403 42.27 58.9406 42.27 55.4309C42.2095 52.2237 42.4518 50.3479 42.8758 49.8033Z" fill="#009FE3"/>
<path d="M61.9573 43.4494C65.4707 43.4494 67.2276 45.5067 67.2276 49.6821C66.743 52.5262 65.289 53.9786 62.8053 53.9786C62.3813 53.9786 61.7152 53.9182 60.8671 53.7366C60.019 53.5551 59.3526 53.4946 58.9892 53.4946C58.868 53.4946 58.7469 53.4947 58.6863 53.5552C58.3228 53.7367 58.1412 54.0998 58.1412 54.4629C58.1412 54.826 58.2624 55.1283 58.5047 55.4309C58.747 55.7334 59.0499 55.915 59.4133 56.036C61.0489 56.4596 62.0786 56.7017 62.3815 56.7017C63.2901 56.7017 64.1381 56.4597 65.0468 55.8546C65.4102 55.673 65.7736 55.6126 66.1977 55.6126C66.8034 55.6126 67.3486 55.8547 67.7121 56.2783C68.0755 56.7019 68.2574 57.2463 68.1968 57.8514C68.0757 59.0617 67.8331 59.9696 67.3485 60.5142C66.8639 61.1194 65.9553 61.6639 64.6226 62.2085C63.714 62.5716 62.7449 62.753 61.7757 62.753C61.0488 62.753 60.019 62.5716 58.6863 62.269C56.869 61.6034 55.8999 61.1799 55.7181 61.1194C55.0518 60.7563 54.3855 60.1511 53.6586 59.304C52.3865 57.7911 51.7201 55.7941 51.7201 53.1921C51.7201 52.5869 51.8412 51.8001 52.0229 50.8924C52.871 46.717 54.8094 44.357 57.7777 43.6308C58.9892 43.5098 59.9583 43.4493 60.6852 43.3888C61.4727 43.5098 61.8968 43.4494 61.9573 43.4494ZM59.4737 49.3193C59.8371 49.5613 60.2008 49.6218 60.5642 49.6218C60.9277 49.6218 61.291 49.5008 61.6545 49.3193C62.0179 49.0772 62.1392 48.7747 62.1392 48.4116C62.1392 48.0485 61.9573 47.7459 61.6545 47.5039C61.291 47.2618 60.9882 47.2013 60.5642 47.2013C60.1402 47.2013 59.7765 47.3223 59.4737 47.5039C59.1102 47.7459 58.9892 48.0485 58.9892 48.4116C58.9892 48.7747 59.1708 49.0772 59.4737 49.3193Z" fill="#009FE3"/>
<path d="M76.6168 61.8453C76.6168 62.6925 75.7081 63.0556 73.8303 63.0556C71.9524 63.0556 70.9226 62.6926 70.8015 61.9059C70.3169 59.1828 70.1351 55.915 70.1351 52.1026C70.1351 48.2298 70.3775 45.749 70.8621 44.7808C71.165 43.8731 71.8917 43.4494 73.1032 43.4494C73.6484 43.4494 74.0726 43.5704 74.4967 43.7519C75.0419 43.994 75.2841 44.357 75.3447 44.8411C75.3447 45.1436 75.3447 45.2648 75.4053 45.3253C75.4659 45.4464 75.6475 45.5068 75.8898 45.5673C76.3138 45.6278 76.7378 45.4462 77.0407 45.1436C77.4647 44.72 77.8888 44.478 78.3128 44.2359C79.1003 43.8728 79.9484 43.7519 80.7359 43.7519C82.2503 43.7519 83.5831 44.236 84.734 45.2648C85.8849 46.2935 86.4301 47.5644 86.3696 49.0167C86.5513 50.469 86.6119 52.1633 86.6119 54.0392C86.6119 57.791 86.3696 60.5141 85.8849 62.2085C85.5821 62.8136 84.6734 63.0556 83.0985 63.0556C81.705 63.0556 80.9177 62.6927 80.7965 62.0271C80.6148 61.8455 80.4936 61.1191 80.4936 59.9694C80.4936 59.4853 80.4937 58.7593 80.5543 57.7911C80.6148 56.8229 80.6149 56.0967 80.6149 55.6126C80.6149 52.2844 80.1303 50.7108 79.1005 50.8924C78.9188 50.9529 78.3735 51.0134 77.4648 51.1949C76.9197 51.316 76.6167 51.7397 76.4956 52.5264C76.435 52.7079 76.4349 53.313 76.4349 54.3418C76.4349 54.0392 76.4957 56.5202 76.6168 61.8453Z" fill="#009FE3"/>
<path d="M102.543 44.5385C103.028 45.0831 103.27 45.6884 103.27 46.475C103.27 47.1407 103.089 47.6853 102.725 47.9879C100.363 48.714 98.8482 49.2587 98.303 49.5613C96.5463 50.469 95.6377 51.6791 95.6377 53.0709C95.6377 53.9181 96.0617 54.8865 96.8492 55.9757C97.7578 56.5203 98.6059 56.8229 99.454 56.8229C100.363 56.8229 101.392 56.4597 102.483 55.794C102.846 55.6125 103.21 55.552 103.634 55.552C104.239 55.552 104.785 55.7941 105.148 56.2177C105.512 56.6413 105.693 57.186 105.633 57.7911C105.512 59.0014 105.269 59.909 104.785 60.4536C104.3 61.0588 103.391 61.6033 102.059 62.1479C101.15 62.511 100.181 62.6925 99.2117 62.6925C98.4847 62.6925 97.4549 62.511 96.1223 62.2085C94.305 61.5428 93.3358 61.1193 93.1541 61.0588C92.4877 60.6957 91.8214 60.0906 91.0945 59.2434C89.8224 57.7306 89.156 55.7336 89.156 53.1315C89.156 52.2843 89.2772 51.5583 89.4589 50.8321C90.731 48.2906 92.306 46.4145 94.305 45.2042C95.3348 44.4175 96.5463 43.8728 97.9396 43.6308C98.303 43.5703 99.2116 43.5098 100.787 43.3888C101.453 43.6914 102.059 44.0544 102.543 44.5385Z" fill="#009FE3"/>
<path d="M107.147 43.5705C107.268 41.271 108.661 40.1817 111.206 40.1817C112.175 40.1817 112.902 40.4238 113.326 40.8474C113.81 41.271 114.113 41.9366 114.356 42.9048C114.416 43.2679 114.477 43.5705 114.477 43.8731C114.477 44.9623 114.113 45.8699 113.386 46.475C112.66 47.0802 111.69 47.4433 110.539 47.4433C109.51 47.4433 108.722 47.0803 108.056 46.2936C107.389 45.4464 107.087 44.5387 107.147 43.5705ZM107.753 49.8033C108.116 49.1376 109.025 48.7744 110.539 48.7744C112.114 48.7744 113.144 49.1377 113.568 49.9244C113.932 50.5295 114.053 52.6474 114.053 56.1571C114.053 59.3038 113.932 61.3008 113.629 62.2085C113.326 62.8741 112.296 63.2373 110.6 63.2373C109.025 63.2373 108.056 62.9347 107.813 62.269C107.329 61.2403 107.147 58.9406 107.147 55.4309C107.147 52.2237 107.329 50.3479 107.753 49.8033Z" fill="#009FE3"/>
<path d="M117.99 44.2359C119.262 42.9651 121.382 42.3603 124.411 42.3603C127.379 42.3603 129.439 43.0864 130.651 44.4782C131.499 44.9623 132.104 46.5962 132.468 49.3193C132.71 51.0136 132.831 52.8893 132.831 54.8257C132.831 58.0935 132.528 60.3326 131.983 61.6033C131.801 62.6321 131.014 63.1162 129.56 63.1162C128.47 63.1162 127.803 62.753 127.682 62.0873C126.653 62.5109 125.562 62.753 124.351 62.753C121.746 62.753 119.747 62.0875 118.232 60.7562C117.203 59.3644 116.658 57.7911 116.658 55.9757C116.658 54.4629 117.082 53.313 117.99 52.4658C119.202 51.316 120.595 50.7715 122.17 50.7715C123.139 50.7715 124.532 51.0742 126.35 51.7398C127.137 51.7398 127.561 51.3161 127.561 50.4084C127.561 49.8033 127.379 49.2585 127.016 48.7744C126.653 48.2903 126.168 47.9274 125.623 47.7459C124.956 47.5038 124.23 47.3827 123.563 47.3827C122.897 47.3827 122.109 47.5643 121.14 47.9879C120.231 48.4115 119.626 48.593 119.323 48.593C118.899 48.593 118.475 48.4116 117.99 48.109C117.445 47.3829 117.203 46.6567 117.203 45.991C117.203 45.3254 117.506 44.72 117.99 44.2359ZM121.746 56.5203C121.746 57.0044 121.867 57.3673 122.17 57.5488C122.352 57.6699 122.715 57.7306 123.26 57.7911C123.866 57.8516 124.411 57.7909 124.896 57.6094C125.502 57.4279 125.804 57.0043 125.804 56.4597C125.804 55.552 125.078 54.947 123.563 54.7655C123.018 54.705 122.594 54.8257 122.23 55.1283C121.867 55.5519 121.746 55.9757 121.746 56.5203Z" fill="#009FE3"/>
<path d="M135.133 47.1407C135.133 45.5674 135.497 44.7203 136.284 44.4782C136.526 44.3572 136.89 44.2965 137.253 44.2965C137.556 44.2965 138.041 44.3571 138.647 44.4176C139.252 44.5387 139.676 44.5385 140.04 44.5385C140.403 44.5385 140.646 44.4781 140.767 44.3571C141.009 43.994 141.13 43.6915 141.13 43.5099C140.888 42.4812 140.827 41.6946 140.827 41.0894C140.888 40.3633 141.797 40 143.553 40C144.159 40 144.765 40.0608 145.31 40.2423C146.158 40.4843 146.582 40.7867 146.582 41.2708C146.582 41.6339 146.582 42.2391 146.461 43.1468C146.34 44.0545 146.279 44.2967 146.279 43.8731C146.279 44.4177 147.006 44.5992 148.399 44.4176C149.671 44.2361 150.519 44.2967 150.943 44.4782C151.246 44.5992 151.428 45.0227 151.61 45.8093C151.731 46.3539 151.792 46.8986 151.792 47.3222C151.792 48.4114 151.549 49.077 151.125 49.3795C150.762 49.6821 149.853 49.7428 148.339 49.5613C147.006 49.3797 146.219 49.4402 146.037 49.8033C145.673 50.2269 145.492 51.4372 145.492 53.4946C145.492 55.4916 145.795 56.6413 146.34 56.8229C146.582 56.8834 146.764 56.9437 146.945 56.9437C147.188 56.9437 147.551 56.7622 148.036 56.3991C148.52 56.0361 149.066 55.8546 149.49 55.8546C149.732 55.8546 149.974 55.9152 150.217 55.9757C151.307 56.4598 151.913 57.3069 151.913 58.5777C151.913 59.8485 151.186 60.9378 149.793 61.6639C148.218 62.5111 146.582 62.9347 144.886 62.9347C142.766 62.9347 141.312 62.0875 140.403 60.4536C140.04 59.8485 139.919 58.8802 139.919 57.6094C139.919 56.8227 140.04 55.6731 140.222 54.0998C140.403 52.5264 140.524 51.3765 140.524 50.5898C140.524 50.0452 140.464 49.7429 140.282 49.6218C139.919 49.4403 139.495 49.3193 139.131 49.3193C138.889 49.3193 138.525 49.3797 137.98 49.5007C137.435 49.6217 137.072 49.6821 136.829 49.6821C136.648 49.6821 136.466 49.6218 136.284 49.5613C135.497 49.5613 135.133 48.7141 135.133 47.1407Z" fill="#009FE3"/>
<path d="M163.967 43.4494C167.481 43.4494 169.237 45.5067 169.237 49.6821C168.753 52.5262 167.299 53.9786 164.815 53.9786C164.391 53.9786 163.725 53.9182 162.877 53.7366C162.029 53.5551 161.363 53.4946 160.999 53.4946C160.878 53.4946 160.757 53.4947 160.696 53.5552C160.333 53.7367 160.151 54.0998 160.151 54.4629C160.151 54.826 160.272 55.1283 160.514 55.4309C160.757 55.7334 161.06 55.915 161.423 56.036C163.059 56.4596 164.088 56.7017 164.391 56.7017C165.3 56.7017 166.148 56.4597 167.057 55.8546C167.42 55.673 167.784 55.6126 168.208 55.6126C168.813 55.6126 169.359 55.8547 169.722 56.2783C170.085 56.7019 170.267 57.2463 170.207 57.8514C170.085 59.0617 169.843 59.9696 169.359 60.5142C168.874 61.1194 167.965 61.6639 166.633 62.2085C165.724 62.5716 164.755 62.753 163.786 62.753C163.059 62.753 162.029 62.5716 160.696 62.269C158.879 61.6034 157.91 61.1799 157.728 61.1194C157.062 60.7563 156.395 60.1511 155.668 59.304C154.396 57.7911 153.73 55.7941 153.73 53.1921C153.73 52.5869 153.851 51.8001 154.033 50.8924C154.881 46.717 156.819 44.357 159.788 43.6308C160.999 43.5098 161.968 43.4493 162.695 43.3888C163.483 43.5098 163.907 43.4494 163.967 43.4494ZM161.484 49.3193C161.847 49.5613 162.211 49.6218 162.574 49.6218C162.938 49.6218 163.301 49.5008 163.664 49.3193C164.028 49.0772 164.149 48.7747 164.149 48.4116C164.149 48.0485 163.967 47.7459 163.664 47.5039C163.301 47.2618 162.998 47.2013 162.574 47.2013C162.15 47.2013 161.787 47.3223 161.484 47.5039C161.12 47.7459 160.999 48.0485 160.999 48.4116C160.999 48.7747 161.181 49.0772 161.484 49.3193Z" fill="#009FE3"/>
<path d="M174.629 43.7519C175.234 43.6309 175.78 43.5099 176.385 43.5099C177.9 43.5099 178.687 43.8729 178.808 44.5991C178.99 44.8411 179.051 45.2043 178.99 45.6279C178.869 46.1725 178.808 46.4752 178.808 46.5962C178.808 46.8382 179.051 46.9593 179.535 46.8987C181.534 45.749 183.533 45.1436 185.593 45.1436C186.078 45.1436 186.562 45.2043 187.047 45.2648C187.652 45.2043 188.137 45.5067 188.44 46.0513C188.682 46.4749 188.803 47.0197 188.803 47.7459C188.803 48.23 188.743 48.714 188.561 49.1376C188.319 49.6822 188.016 49.9847 187.592 50.0453C185.532 50.4688 184.018 50.832 182.988 51.0135C181.05 51.4371 179.899 51.9816 179.475 52.7078C179.172 53.0103 179.051 53.555 179.051 54.2812C179.051 54.9468 179.172 55.9755 179.475 57.3068C179.778 58.6986 179.899 59.6669 179.899 60.3325C179.899 60.9981 179.778 61.4219 179.475 61.6639C179.051 62.5716 178.081 62.995 176.628 62.995C175.053 62.995 174.144 62.5716 173.781 61.6639C173.296 61.3613 172.872 59.667 172.569 56.5809C172.387 54.4024 172.266 52.5262 172.266 50.8924C172.266 47.5036 172.569 45.3857 173.235 44.5385C173.296 44.2359 173.841 43.9335 174.629 43.7519Z" fill="#009FE3"/>
<path d="M191.529 44.2359C192.801 42.9651 194.922 42.3603 197.95 42.3603C200.919 42.3603 202.978 43.0864 204.19 44.4782C205.038 44.9623 205.644 46.5962 206.007 49.3193C206.249 51.0136 206.37 52.8893 206.37 54.8257C206.37 58.0935 206.068 60.3326 205.522 61.6033C205.341 62.6321 204.553 63.1162 203.099 63.1162C202.009 63.1162 201.343 62.753 201.222 62.0873C200.192 62.5109 199.101 62.753 197.89 62.753C195.285 62.753 193.286 62.0875 191.772 60.7562C190.742 59.3644 190.197 57.7911 190.197 55.9757C190.197 54.4629 190.621 53.313 191.529 52.4658C192.741 51.316 194.134 50.7715 195.709 50.7715C196.678 50.7715 198.072 51.0742 199.889 51.7398C200.676 51.7398 201.1 51.3161 201.1 50.4084C201.1 49.8033 200.919 49.2585 200.555 48.7744C200.192 48.2903 199.707 47.9274 199.162 47.7459C198.496 47.5038 197.769 47.3827 197.102 47.3827C196.436 47.3827 195.649 47.5643 194.679 47.9879C193.771 48.4115 193.165 48.593 192.862 48.593C192.438 48.593 192.014 48.4116 191.529 48.109C190.984 47.3829 190.742 46.6567 190.742 45.991C190.742 45.3254 190.984 44.72 191.529 44.2359ZM195.224 56.5203C195.224 57.0044 195.346 57.3673 195.649 57.5488C195.83 57.6699 196.194 57.7306 196.739 57.7911C197.345 57.8516 197.89 57.7909 198.314 57.6094C198.92 57.4279 199.222 57.0043 199.222 56.4597C199.222 55.552 198.496 54.947 196.981 54.7655C196.436 54.705 196.012 54.8257 195.649 55.1283C195.406 55.5519 195.224 55.9757 195.224 56.5203Z" fill="#009FE3"/>
<path d="M210.066 65.4155C209.884 64.992 209.642 63.6607 209.46 61.5428C209.278 59.4248 209.157 57.065 209.157 54.4629C209.157 50.1059 209.52 47.1408 210.187 45.6885C210.55 44.9018 211.519 44.2964 213.034 43.9334C214.124 43.6913 215.275 43.5099 216.547 43.5099C217.94 43.5099 219.273 43.6914 220.545 43.9939C221.878 44.357 222.787 44.8413 223.271 45.3859C224.604 46.9593 225.27 48.7746 225.27 50.7715C225.27 52.7685 224.604 54.4629 223.211 55.6732C221.999 56.3388 220.848 56.7017 219.697 56.7017C219.091 56.7017 218.364 56.5202 217.456 56.1571C216.547 55.7941 216.063 55.6126 215.941 55.6126C215.76 55.6126 215.578 55.673 215.517 55.8546C215.154 56.3992 214.972 57.1859 214.972 58.2751C214.972 59.0013 215.093 60.1511 215.457 61.6639C215.76 63.1767 215.941 64.266 215.941 64.9921C215.941 65.1737 215.941 65.355 215.881 65.4155C215.699 66.2022 214.73 66.5655 213.034 66.5655C211.338 66.6261 210.368 66.2627 210.066 65.4155ZM215.336 50.1058C215.336 51.1951 215.76 51.8608 216.608 51.9818C217.153 52.0423 217.577 52.1026 217.819 52.1026C218.728 52.1026 219.273 51.6793 219.455 50.8321C219.515 50.5901 219.576 50.348 219.576 50.227C219.576 49.4403 218.849 48.8956 217.456 48.6536C216.971 48.5931 216.547 48.6536 216.063 48.9561C215.578 49.2587 215.336 49.6217 215.336 50.1058Z" fill="#009FE3"/>
<path d="M226.845 43.5705C226.966 41.271 228.36 40.1817 230.904 40.1817C231.873 40.1817 232.6 40.4238 233.024 40.8474C233.508 41.271 233.811 41.9366 234.054 42.9048C234.114 43.2679 234.175 43.5705 234.175 43.8731C234.175 44.9623 233.811 45.8699 233.084 46.475C232.358 47.0802 231.388 47.4433 230.237 47.4433C229.208 47.4433 228.42 47.0803 227.754 46.2936C227.087 45.4464 226.785 44.5387 226.845 43.5705ZM227.451 49.8033C227.814 49.1376 228.723 48.7744 230.237 48.7744C231.812 48.7744 232.842 49.1377 233.266 49.9244C233.63 50.5295 233.751 52.6474 233.751 56.1571C233.751 59.3038 233.63 61.3008 233.327 62.2085C233.024 62.8741 231.994 63.2373 230.298 63.2373C228.723 63.2373 227.754 62.9347 227.511 62.269C227.027 61.2403 226.845 58.9406 226.845 55.4309C226.845 52.2237 227.027 50.3479 227.451 49.8033Z" fill="#009FE3"/>
<path d="M237.688 44.2359C238.96 42.9651 241.08 42.3603 244.109 42.3603C247.077 42.3603 249.137 43.0864 250.349 44.4782C251.197 44.9623 251.802 46.5962 252.166 49.3193C252.408 51.0136 252.529 52.8893 252.529 54.8257C252.529 58.0935 252.226 60.3326 251.681 61.6033C251.5 62.6321 250.712 63.1162 249.258 63.1162C248.168 63.1162 247.501 62.753 247.38 62.0873C246.351 62.5109 245.26 62.753 244.049 62.753C241.444 62.753 239.445 62.0875 237.93 60.7562C236.901 59.3644 236.356 57.7911 236.356 55.9757C236.356 54.4629 236.78 53.313 237.688 52.4658C238.9 51.316 240.293 50.7715 241.868 50.7715C242.837 50.7715 244.23 51.0742 246.048 51.7398C246.835 51.7398 247.259 51.3161 247.259 50.4084C247.259 49.8033 247.077 49.2585 246.714 48.7744C246.351 48.2903 245.866 47.9274 245.321 47.7459C244.654 47.5038 243.928 47.3827 243.261 47.3827C242.595 47.3827 241.807 47.5643 240.838 47.9879C239.93 48.4115 239.324 48.593 239.021 48.593C238.597 48.593 238.173 48.4116 237.688 48.109C237.143 47.3829 236.901 46.6567 236.901 45.991C236.901 45.3254 237.143 44.72 237.688 44.2359ZM241.444 56.5203C241.444 57.0044 241.565 57.3673 241.868 57.5488C242.05 57.6699 242.413 57.7306 242.958 57.7911C243.564 57.8516 244.109 57.7909 244.594 57.6094C245.2 57.4279 245.502 57.0043 245.502 56.4597C245.502 55.552 244.776 54.947 243.261 54.7655C242.716 54.705 242.292 54.8257 241.929 55.1283C241.565 55.5519 241.444 55.9757 241.444 56.5203Z" fill="#009FE3"/>
</svg>
