<svg width="81" height="80" viewBox="0 0 81 80" fill="none" xmlns="http://www.w3.org/2000/svg">
<path d="M59.433 23.5504H55.2899V27.6976L59.433 27.6976V23.5504Z" fill="#FBCE13"/>
<path d="M51.1468 23.5504H47.0037V27.6976H51.1468V23.5504Z" fill="#FBCE13"/>
<path d="M47.0037 23.5504H42.8606V27.6976H47.0037V23.5504Z" fill="#FBCE13"/>
<path d="M42.8606 23.5504L38.7175 23.5504V27.6976L42.8606 27.6976V23.5504Z" fill="#FBCE13"/>
<path d="M51.1468 40.1186H47.0037V44.2659H51.1468V40.1186Z" fill="#725BFF"/>
<path d="M47.0037 40.1186H42.8606V44.2659H47.0037V40.1186Z" fill="#725BFF"/>
<path d="M47.0037 35.9797H42.8606V40.1269H47.0037V35.9797Z" fill="#725BFF"/>
<path d="M47.0037 44.2617H42.8606V48.4089H47.0037V44.2617Z" fill="#725BFF"/>
<path d="M42.8606 40.1186H38.7175V44.2659H42.8606V40.1186Z" fill="#725BFF"/>
<path d="M34.5744 40.1186H30.4313V44.2659H34.5744V40.1186Z" fill="#FBCE13"/>
<path d="M30.4313 40.1186H26.2882V44.2659H30.4313V40.1186Z" fill="#FBCE13"/>
<path d="M30.4313 44.2617H26.2882L26.2882 48.4089H30.4313L30.4313 44.2617Z" fill="#FBCE13"/>
<path d="M26.2882 40.1186H22.1451V44.2659H26.2882V40.1186Z" fill="#FBCE13"/>
<path d="M34.5744 23.5504H30.4313V27.6976H34.5744V23.5504Z" fill="#725BFF"/>
<path d="M30.4313 27.6935H26.2882V31.8407H30.4313V27.6935Z" fill="#725BFF"/>
<path d="M34.5744 31.8366H30.4313V35.9838H34.5744V31.8366Z" fill="#725BFF"/>
<path d="M26.2882 23.5504H22.1451V27.6976H26.2882V23.5504Z" fill="#725BFF"/>
<path d="M26.2882 31.8366H22.1451V35.9838H26.2882V31.8366Z" fill="#725BFF"/>
<path d="M71.8622 44.2659H67.7191V48.4089H71.8622V44.2659Z" fill="#28E8A3"/>
<path d="M71.8622 40.1269H67.7191V44.2659H71.8622V40.1269Z" fill="#28E8A3"/>
<path d="M71.8622 35.9838H67.7191V40.1269H71.8622V35.9838Z" fill="#28E8A3"/>
<path d="M71.8622 31.8407H67.7191V35.9838H71.8622V31.8407Z" fill="#28E8A3"/>
<path d="M71.8622 27.6976H67.7191V31.8407H71.8622V27.6976Z" fill="#28E8A3"/>
<path d="M71.8622 23.5504H67.7191V27.6976H71.8622V23.5504Z" fill="#28E8A3"/>
<path d="M71.8622 19.4073H67.7191V23.5504H71.8622V19.4073Z" fill="#28E8A3"/>
<path d="M67.7191 48.4089H63.576V52.552H67.7191V48.4089Z" fill="#28E8A3"/>
<path d="M67.7191 15.2642H63.576V19.4073H67.7191V15.2642Z" fill="#28E8A3"/>
<path d="M63.576 52.552L59.433 52.552V56.6951H63.576V52.552Z" fill="#28E8A3"/>
<path d="M63.576 11.1211H59.433V15.2642L63.576 15.2642V11.1211Z" fill="#28E8A3"/>
<path d="M59.433 64.9855H55.2899V69.1286H59.433V64.9855Z" fill="#28E8A3"/>
<path d="M59.433 60.8424H55.2899V64.9855H59.433V60.8424Z" fill="#28E8A3"/>
<path d="M59.433 56.6951H55.2899V60.8424H59.433L59.433 56.6951Z" fill="#28E8A3"/>
<path d="M59.433 52.552H55.2899V56.6951H59.433V52.552Z" fill="#28E8A3"/>
<path d="M59.433 11.1211H55.2899V15.2642H59.433V11.1211Z" fill="#28E8A3"/>
<path d="M55.2899 64.9855H51.1468V69.1286H55.2899V64.9855Z" fill="#28E8A3"/>
<path d="M55.2899 11.1211H51.1468V15.2642H55.2899V11.1211Z" fill="#28E8A3"/>
<path d="M51.1468 60.8424H47.0037V64.9855L51.1468 64.9855L51.1468 60.8424Z" fill="#28E8A3"/>
<path d="M51.1468 11.1211H47.0037V15.2642H51.1468V11.1211Z" fill="#28E8A3"/>
<path d="M47.0037 56.6951H42.8606V60.8424H47.0037V56.6951Z" fill="#28E8A3"/>
<path d="M47.0037 11.1211H42.8606V15.2642L47.0037 15.2642V11.1211Z" fill="#28E8A3"/>
<path d="M42.8606 52.552H38.7175V56.6951H42.8606V52.552Z" fill="#28E8A3"/>
<path d="M42.8606 11.1211H38.7175V15.2642H42.8606V11.1211Z" fill="#28E8A3"/>
<path d="M38.7175 52.552H34.5744V56.6951H38.7175V52.552Z" fill="#28E8A3"/>
<path d="M38.7175 11.1211H34.5744V15.2642H38.7175V11.1211Z" fill="#28E8A3"/>
<path d="M34.5744 52.552H30.4313V56.6951H34.5744V52.552Z" fill="#28E8A3"/>
<path d="M34.5744 11.1211L30.4313 11.1211V15.2642H34.5744V11.1211Z" fill="#28E8A3"/>
<path d="M30.4313 52.552H26.2882V56.6951H30.4313V52.552Z" fill="#28E8A3"/>
<path d="M30.4313 11.1211H26.2882V15.2642H30.4313V11.1211Z" fill="#28E8A3"/>
<path d="M26.2882 52.552H22.1451V56.6951H26.2882V52.552Z" fill="#28E8A3"/>
<path d="M26.2882 11.1211H22.1451V15.2642H26.2882V11.1211Z" fill="#28E8A3"/>
<path d="M22.1451 52.552H18.002V56.6951H22.1451V52.552Z" fill="#28E8A3"/>
<path d="M22.1451 11.1211H18.002V15.2642H22.1451V11.1211Z" fill="#28E8A3"/>
<path d="M18.002 48.4089H13.8589V52.552L18.002 52.552V48.4089Z" fill="#28E8A3"/>
<path d="M18.002 15.2642L13.8589 15.2642V19.4073H18.002V15.2642Z" fill="#28E8A3"/>
<path d="M13.8589 44.2659H9.71582V48.4089H13.8589V44.2659Z" fill="#28E8A3"/>
<path d="M13.8589 40.1269H9.71582V44.2659H13.8589V40.1269Z" fill="#28E8A3"/>
<path d="M13.8589 35.9838H9.71582V40.1269H13.8589L13.8589 35.9838Z" fill="#28E8A3"/>
<path d="M13.8589 31.8407H9.71582V35.9838H13.8589V31.8407Z" fill="#28E8A3"/>
<path d="M13.8589 27.6976H9.71582L9.71582 31.8407H13.8589V27.6976Z" fill="#28E8A3"/>
<path d="M13.8589 23.5504H9.71582V27.6976H13.8589V23.5504Z" fill="#28E8A3"/>
<path d="M13.8589 19.4073H9.71582V23.5504H13.8589V19.4073Z" fill="#28E8A3"/>
</svg>
