<svg width="121" height="120" viewBox="0 0 121 120" fill="none" xmlns="http://www.w3.org/2000/svg">
<path d="M106.278 70.711H99.2642V77.7243H106.278V70.711Z" fill="#28E8A3"/>
<path d="M106.278 63.6977H99.2642V70.711H106.278V63.6977Z" fill="#28E8A3"/>
<path d="M106.278 56.6844H99.2642V63.6977H106.278V56.6844Z" fill="#28E8A3"/>
<path d="M106.278 49.6711H99.2642V56.6844H106.278V49.6711Z" fill="#28E8A3"/>
<path d="M106.278 42.6577H99.2642V49.6711H106.278V42.6577Z" fill="#28E8A3"/>
<path d="M99.2642 84.7376H92.2509V91.7509H99.2642V84.7376Z" fill="#28E8A3"/>
<path d="M99.2642 77.7243H92.2509V84.7376H99.2642L99.2642 77.7243Z" fill="#28E8A3"/>
<path d="M99.2642 35.6444H92.2509V42.6577H99.2642L99.2642 35.6444Z" fill="#28E8A3"/>
<path d="M99.2642 28.6311H92.2509V35.6444H99.2642V28.6311Z" fill="#28E8A3"/>
<path d="M92.2509 91.7509H85.2376V98.7642H92.2509V91.7509Z" fill="#28E8A3"/>
<path d="M92.2509 21.6178H85.2376V28.6311L92.2509 28.6311V21.6178Z" fill="#28E8A3"/>
<path d="M85.2376 91.7509H78.2243V98.7642H85.2376V91.7509Z" fill="#28E8A3"/>
<path d="M85.2376 21.6178H78.2243V28.6311H85.2376V21.6178Z" fill="#28E8A3"/>
<path d="M78.2243 98.7642H71.211V105.778H78.2243V98.7642Z" fill="#28E8A3"/>
<path d="M78.2243 14.6045H71.211V21.6178L78.2243 21.6178V14.6045Z" fill="#28E8A3"/>
<path d="M71.211 98.7642H64.1977V105.778H71.211V98.7642Z" fill="#28E8A3"/>
<path d="M71.211 14.6045H64.1977V21.6178H71.211V14.6045Z" fill="#28E8A3"/>
<path d="M64.1977 98.7642H57.1844V105.778H64.1977V98.7642Z" fill="#28E8A3"/>
<path d="M64.1977 14.6045H57.1844V21.6178H64.1977V14.6045Z" fill="#28E8A3"/>
<path d="M57.1844 98.7642H50.1711V105.778H57.1844V98.7642Z" fill="#28E8A3"/>
<path d="M57.1844 14.6045H50.1711V21.6178H57.1844V14.6045Z" fill="#28E8A3"/>
<path d="M50.1711 98.7642H43.1577V105.778H50.1711V98.7642Z" fill="#28E8A3"/>
<path d="M50.1711 14.6045H43.1577V21.6178H50.1711V14.6045Z" fill="#28E8A3"/>
<path d="M43.1577 91.7509H36.1444V98.7642H43.1577V91.7509Z" fill="#28E8A3"/>
<path d="M43.1577 21.6178L36.1444 21.6178V28.6311H43.1577V21.6178Z" fill="#28E8A3"/>
<path d="M36.1444 91.7509H29.1311V98.7642H36.1444V91.7509Z" fill="#28E8A3"/>
<path d="M92.2509 56.6844H85.2376V63.6977H92.2509V56.6844Z" fill="#725BFF"/>
<path d="M92.2509 49.671H85.2376V56.6844H92.2509V49.671Z" fill="#725BFF"/>
<path d="M92.2509 42.6577L85.2376 42.6577V49.671H92.2509L92.2509 42.6577Z" fill="#725BFF"/>
<path d="M85.2376 70.711H78.2243V77.7243H85.2376V70.711Z" fill="#725BFF"/>
<path d="M85.2376 63.6977H78.2243V70.711H85.2376V63.6977Z" fill="#725BFF"/>
<path d="M78.2243 77.7243H71.211V84.7376H78.2243V77.7243Z" fill="#725BFF"/>
<path d="M71.211 70.711H64.1977V77.7243H71.211V70.711Z" fill="#725BFF"/>
<path d="M71.211 63.6977H64.1977V70.711H71.211V63.6977Z" fill="#725BFF"/>
<path d="M64.1977 56.6844H57.1844V63.6977H64.1977V56.6844Z" fill="#725BFF"/>
<path d="M64.1977 49.671H57.1844V56.6844H64.1977V49.671Z" fill="#725BFF"/>
<path d="M57.1844 70.711H50.1711V77.7243H57.1844V70.711Z" fill="#725BFF"/>
<path d="M57.1844 63.6977H50.1711V70.711H57.1844L57.1844 63.6977Z" fill="#725BFF"/>
<path d="M50.1711 77.7243H43.1577V84.7376H50.1711V77.7243Z" fill="#725BFF"/>
<path d="M43.1577 70.711H36.1444V77.7243H43.1577V70.711Z" fill="#725BFF"/>
<path d="M43.1577 63.6977H36.1444V70.711H43.1577V63.6977Z" fill="#725BFF"/>
<path d="M36.1444 56.6844H29.1311V63.6977H36.1444V56.6844Z" fill="#725BFF"/>
<path d="M36.1444 49.671H29.1311V56.6844H36.1444V49.671Z" fill="#725BFF"/>
<path d="M36.1444 42.6577H29.1311L29.1311 49.671H36.1444L36.1444 42.6577Z" fill="#725BFF"/>
<path d="M36.1444 21.6178H29.1311V28.6311H36.1444V21.6178Z" fill="#28E8A3"/>
<path d="M29.1311 84.7376H22.1178V91.7509H29.1311L29.1311 84.7376Z" fill="#28E8A3"/>
<path d="M29.1311 77.7243H22.1178V84.7376H29.1311V77.7243Z" fill="#28E8A3"/>
<path d="M29.1311 35.6444H22.1178V42.6577H29.1311L29.1311 35.6444Z" fill="#28E8A3"/>
<path d="M29.1311 28.6311L22.1178 28.6311V35.6444H29.1311L29.1311 28.6311Z" fill="#28E8A3"/>
<path d="M22.1178 70.711H15.1045V77.7243H22.1178L22.1178 70.711Z" fill="#28E8A3"/>
<path d="M22.1178 63.6977H15.1045V70.711H22.1178V63.6977Z" fill="#28E8A3"/>
<path d="M22.1178 56.6844H15.1045V63.6977H22.1178V56.6844Z" fill="#28E8A3"/>
<path d="M22.1178 49.6711H15.1045V56.6844H22.1178V49.6711Z" fill="#28E8A3"/>
<path d="M22.1178 42.6577H15.1045V49.6711H22.1178L22.1178 42.6577Z" fill="#28E8A3"/>
</svg>
