<svg width="60" height="60" viewBox="0 0 60 60" fill="none" xmlns="http://www.w3.org/2000/svg">
<path d="M46.1464 45.1464H43.4676V47.8253H46.1464V45.1464Z" fill="#11D9ED"/>
<path d="M46.1464 39.7887H43.4676V42.4676H46.1464V39.7887Z" fill="#11D9ED"/>
<path d="M46.1464 37.1098H43.4676V39.7887H46.1464V37.1098Z" fill="#11D9ED"/>
<path d="M46.1464 34.431H43.4676V37.1098H46.1464V34.431Z" fill="#11D9ED"/>
<path d="M46.1464 31.7521H43.4676V34.431H46.1464V31.7521Z" fill="#11D9ED"/>
<path d="M46.1464 29.0732H43.4676V31.7521H46.1464V29.0732Z" fill="#11D9ED"/>
<path d="M46.1464 26.3943H43.4676V29.0732H46.1464V26.3943Z" fill="#11D9ED"/>
<path d="M46.1464 23.7155H43.4676V26.3943H46.1464V23.7155Z" fill="#11D9ED"/>
<path d="M46.1464 18.3577H43.4676V21.0366H46.1464V18.3577Z" fill="#11D9ED"/>
<path d="M43.4676 45.1464H40.7886V47.8253H43.4676V45.1464Z" fill="#11D9ED"/>
<path d="M43.4676 39.7887H40.7886V42.4676H43.4676V39.7887Z" fill="#11D9ED"/>
<path d="M43.4676 37.1098H40.7886V39.7887H43.4676V37.1098Z" fill="#11D9ED"/>
<path d="M43.4676 34.431H40.7886V37.1098H43.4676V34.431Z" fill="#11D9ED"/>
<path d="M43.4676 31.7521H40.7886V34.431H43.4676V31.7521Z" fill="#11D9ED"/>
<path d="M43.4676 29.0732H40.7886V31.7521H43.4676V29.0732Z" fill="#11D9ED"/>
<path d="M43.4676 26.3943H40.7886V29.0732H43.4676V26.3943Z" fill="#11D9ED"/>
<path d="M40.7886 45.1464H38.1098V47.8253H40.7886V45.1464Z" fill="#11D9ED"/>
<path d="M40.7886 39.7887H38.1098V42.4676H40.7886V39.7887Z" fill="#11D9ED"/>
<path d="M40.7886 37.1098H38.1098V39.7887H40.7886V37.1098Z" fill="#11D9ED"/>
<path d="M40.7886 34.431H38.1098V37.1098H40.7886V34.431Z" fill="#11D9ED"/>
<path d="M40.7886 31.7521H38.1098V34.431H40.7886V31.7521Z" fill="#11D9ED"/>
<path d="M40.7886 29.0732H38.1098V31.7521H40.7886V29.0732Z" fill="#11D9ED"/>
<path d="M38.1098 45.1464H35.4309V47.8253H38.1098V45.1464Z" fill="#11D9ED"/>
<path d="M38.1098 39.7887H35.4309V42.4676H38.1098V39.7887Z" fill="#11D9ED"/>
<path d="M38.1098 37.1098H35.4309V39.7887H38.1098V37.1098Z" fill="#11D9ED"/>
<path d="M38.1098 34.431H35.4309V37.1098H38.1098V34.431Z" fill="#11D9ED"/>
<path d="M38.1098 31.7521H35.4309V34.431H38.1098V31.7521Z" fill="#11D9ED"/>
<path d="M38.1098 29.0732H35.4309V31.7521H38.1098V29.0732Z" fill="#11D9ED"/>
<path d="M38.1098 26.3943H35.4309V29.0732H38.1098L38.1098 26.3943Z" fill="#11D9ED"/>
<path d="M35.4309 45.1464H32.7521V47.8253H35.4309V45.1464Z" fill="#11D9ED"/>
<path d="M35.4309 39.7887H32.7521V42.4676H35.4309V39.7887Z" fill="#11D9ED"/>
<path d="M35.4309 37.1098H32.7521V39.7887H35.4309V37.1098Z" fill="#11D9ED"/>
<path d="M35.4309 34.431H32.7521V37.1098H35.4309V34.431Z" fill="#11D9ED"/>
<path d="M35.4309 31.7521H32.7521V34.431H35.4309V31.7521Z" fill="#11D9ED"/>
<path d="M35.4309 29.0732H32.7521V31.7521H35.4309V29.0732Z" fill="#11D9ED"/>
<path d="M35.4309 26.3943H32.7521V29.0732H35.4309V26.3943Z" fill="#11D9ED"/>
<path d="M35.4309 23.7155H32.7521V26.3943H35.4309L35.4309 23.7155Z" fill="#11D9ED"/>
<path d="M32.7521 45.1464H30.0732V47.8253H32.7521V45.1464Z" fill="#11D9ED"/>
<path d="M32.7521 39.7887H30.0732V42.4676H32.7521V39.7887Z" fill="#11D9ED"/>
<path d="M32.7521 37.1098H30.0732V39.7887H32.7521V37.1098Z" fill="#11D9ED"/>
<path d="M32.7521 34.431H30.0732V37.1098H32.7521V34.431Z" fill="#11D9ED"/>
<path d="M32.7521 31.7521H30.0732V34.431H32.7521V31.7521Z" fill="#11D9ED"/>
<path d="M32.7521 29.0732H30.0732V31.7521H32.7521V29.0732Z" fill="#11D9ED"/>
<path d="M32.7521 26.3943H30.0732V29.0732H32.7521V26.3943Z" fill="#11D9ED"/>
<path d="M32.7521 23.7155H30.0732V26.3943H32.7521V23.7155Z" fill="#11D9ED"/>
<path d="M32.7521 21.0366H30.0732V23.7155H32.7521L32.7521 21.0366Z" fill="#11D9ED"/>
<path d="M32.7521 15.6789H30.0732V18.3577H32.7521V15.6789Z" fill="#11D9ED"/>
<path d="M32.7521 13H30.0732V15.6789H32.7521V13Z" fill="#11D9ED"/>
<path d="M30.0732 45.1464H27.3943V47.8253H30.0732V45.1464Z" fill="#11D9ED"/>
<path d="M30.0732 39.7887H27.3943V42.4676H30.0732V39.7887Z" fill="#11D9ED"/>
<path d="M30.0732 37.1098H27.3943V39.7887H30.0732V37.1098Z" fill="#11D9ED"/>
<path d="M30.0732 34.431H27.3943V37.1098H30.0732V34.431Z" fill="#11D9ED"/>
<path d="M30.0732 31.7521H27.3943V34.431H30.0732V31.7521Z" fill="#11D9ED"/>
<path d="M30.0732 29.0732H27.3943V31.7521H30.0732V29.0732Z" fill="#11D9ED"/>
<path d="M30.0732 26.3943H27.3943V29.0732H30.0732V26.3943Z" fill="#11D9ED"/>
<path d="M30.0732 23.7155H27.3943V26.3943H30.0732V23.7155Z" fill="#11D9ED"/>
<path d="M30.0732 21.0366H27.3943V23.7155H30.0732V21.0366Z" fill="#11D9ED"/>
<path d="M30.0732 15.6789H27.3943V18.3577H30.0732V15.6789Z" fill="#11D9ED"/>
<path d="M30.0732 13H27.3943V15.6789H30.0732V13Z" fill="#11D9ED"/>
<path d="M27.3943 45.1464H24.7154V47.8253H27.3943V45.1464Z" fill="#11D9ED"/>
<path d="M27.3943 39.7887H24.7154V42.4676H27.3943V39.7887Z" fill="#11D9ED"/>
<path d="M27.3943 37.1098H24.7154V39.7887H27.3943V37.1098Z" fill="#11D9ED"/>
<path d="M27.3943 34.431H24.7154V37.1098H27.3943V34.431Z" fill="#11D9ED"/>
<path d="M27.3943 31.7521H24.7154V34.431H27.3943V31.7521Z" fill="#11D9ED"/>
<path d="M27.3943 29.0732H24.7154V31.7521H27.3943V29.0732Z" fill="#11D9ED"/>
<path d="M27.3943 26.3943H24.7154V29.0732H27.3943V26.3943Z" fill="#11D9ED"/>
<path d="M27.3943 23.7155H24.7154V26.3943H27.3943V23.7155Z" fill="#11D9ED"/>
<path d="M24.7154 45.1464H22.0366V47.8253H24.7154V45.1464Z" fill="#11D9ED"/>
<path d="M24.7154 39.7887H22.0366V42.4676H24.7154V39.7887Z" fill="#11D9ED"/>
<path d="M24.7154 37.1098H22.0366V39.7887H24.7154V37.1098Z" fill="#11D9ED"/>
<path d="M24.7154 34.431H22.0366V37.1098H24.7154V34.431Z" fill="#11D9ED"/>
<path d="M24.7154 31.7521H22.0366V34.431H24.7154V31.7521Z" fill="#11D9ED"/>
<path d="M24.7154 29.0732H22.0366V31.7521H24.7154V29.0732Z" fill="#11D9ED"/>
<path d="M24.7154 26.3943H22.0366V29.0732H24.7154V26.3943Z" fill="#11D9ED"/>
<path d="M22.0366 45.1464H19.3577V47.8253H22.0366V45.1464Z" fill="#11D9ED"/>
<path d="M22.0366 39.7887H19.3577V42.4676H22.0366V39.7887Z" fill="#11D9ED"/>
<path d="M22.0366 37.1098H19.3577V39.7887H22.0366V37.1098Z" fill="#11D9ED"/>
<path d="M22.0366 34.431H19.3577V37.1098H22.0366V34.431Z" fill="#11D9ED"/>
<path d="M22.0366 31.7521H19.3577V34.431H22.0366V31.7521Z" fill="#11D9ED"/>
<path d="M22.0366 29.0732H19.3577V31.7521H22.0366V29.0732Z" fill="#11D9ED"/>
<path d="M19.3577 45.1464H16.6789V47.8253H19.3577V45.1464Z" fill="#11D9ED"/>
<path d="M19.3577 39.7887H16.6789V42.4676H19.3577V39.7887Z" fill="#11D9ED"/>
<path d="M19.3577 37.1098H16.6789V39.7887H19.3577V37.1098Z" fill="#11D9ED"/>
<path d="M19.3577 34.431H16.6789V37.1098H19.3577V34.431Z" fill="#11D9ED"/>
<path d="M19.3577 31.7521H16.6789V34.431H19.3577V31.7521Z" fill="#11D9ED"/>
<path d="M19.3577 29.0732H16.6789V31.7521H19.3577V29.0732Z" fill="#11D9ED"/>
<path d="M19.3577 26.3943H16.6789V29.0732H19.3577L19.3577 26.3943Z" fill="#11D9ED"/>
<path d="M16.6789 45.1464H14V47.8253H16.6789V45.1464Z" fill="#11D9ED"/>
<path d="M16.6789 39.7887H14V42.4676H16.6789V39.7887Z" fill="#11D9ED"/>
<path d="M16.6789 37.1098H14V39.7887H16.6789V37.1098Z" fill="#11D9ED"/>
<path d="M16.6789 34.431H14V37.1098H16.6789V34.431Z" fill="#11D9ED"/>
<path d="M16.6789 31.7521H14V34.431H16.6789V31.7521Z" fill="#11D9ED"/>
<path d="M16.6789 29.0732H14V31.7521H16.6789V29.0732Z" fill="#11D9ED"/>
<path d="M16.6789 26.3943H14V29.0732H16.6789V26.3943Z" fill="#11D9ED"/>
<path d="M16.6789 23.7155H14V26.3943H16.6789L16.6789 23.7155Z" fill="#11D9ED"/>
<path d="M16.6789 18.3577H14V21.0366H16.6789V18.3577Z" fill="#11D9ED"/>
</svg>
