<svg width="121" height="120" viewBox="0 0 121 120" fill="none" xmlns="http://www.w3.org/2000/svg">
<path d="M110 75.8934H103.4V82.4934H110V75.8934Z" fill="#28E8A3"/>
<path d="M110 69.2934H103.4V75.8934H110V69.2934Z" fill="#28E8A3"/>
<path d="M110 62.7H103.4V69.2934H110V62.7Z" fill="#28E8A3"/>
<path d="M110 56.1H103.4V62.7H110V56.1Z" fill="#28E8A3"/>
<path d="M110 49.5H103.4V56.1H110V49.5Z" fill="#28E8A3"/>
<path d="M110 42.9H103.4V49.5H110V42.9Z" fill="#28E8A3"/>
<path d="M110 36.3H103.4V42.9066H110V36.3Z" fill="#28E8A3"/>
<path d="M110 29.7H103.4V36.3H110V29.7Z" fill="#28E8A3"/>
<path d="M110 23.1H103.4V29.7H110V23.1Z" fill="#28E8A3"/>
<path d="M103.4 82.4934H96.8V89.0934H103.4L103.4 82.4934Z" fill="#28E8A3"/>
<path d="M103.4 16.5H96.8V23.1L103.4 23.1L103.4 16.5Z" fill="#28E8A3"/>
<path d="M96.8 82.4934H90.2V89.0934H96.8V82.4934Z" fill="#28E8A3"/>
<path d="M96.8 16.5H90.2V23.1H96.8V16.5Z" fill="#28E8A3"/>
<path d="M90.2 82.4934H83.6V89.0934H90.2V82.4934Z" fill="#28E8A3"/>
<path d="M90.2 16.5H83.6V23.1H90.2V16.5Z" fill="#28E8A3"/>
<path d="M83.6 82.4934H77V89.0934H83.6V82.4934Z" fill="#28E8A3"/>
<path d="M83.6 16.5H77V23.1H83.6V16.5Z" fill="#28E8A3"/>
<path d="M77 95.7066H70.4V102.307H77V95.7066Z" fill="#28E8A3"/>
<path d="M77 82.4934H70.4V89.0934H77V82.4934Z" fill="#28E8A3"/>
<path d="M90.2 49.5H83.6V56.1H90.2V49.5Z" fill="#725BFF"/>
<path d="M83.6 56.1H77.0001V62.7H83.6001L83.6 56.1Z" fill="#725BFF"/>
<path d="M83.6001 42.9H77.0001V49.5L83.6 49.5L83.6001 42.9Z" fill="#725BFF"/>
<path d="M77.0001 62.7H70.4V69.2934H77L77.0001 62.7Z" fill="#725BFF"/>
<path d="M77 36.3H70.4V42.9066H77V36.3Z" fill="#725BFF"/>
<path d="M77 16.5H70.4V23.1H77V16.5Z" fill="#28E8A3"/>
<path d="M70.4 95.7066H63.8V102.307H70.4V95.7066Z" fill="#28E8A3"/>
<path d="M70.4 82.4934H63.8V89.0934H70.4V82.4934Z" fill="#28E8A3"/>
<path d="M70.4 16.5H63.8V23.1H70.4V16.5Z" fill="#28E8A3"/>
<path d="M63.8 95.7066H57.2V102.307H63.8V95.7066Z" fill="#28E8A3"/>
<path d="M63.8 89.0934L57.2 89.0934V95.7H63.8L63.8 89.0934Z" fill="#28E8A3"/>
<path d="M63.8 82.4934H57.2V89.0934L63.8 89.0934V82.4934Z" fill="#28E8A3"/>
<path d="M63.8 16.5H57.2V23.1H63.8V16.5Z" fill="#28E8A3"/>
<path d="M57.2 95.7066H50.6V102.307H57.2V95.7066Z" fill="#28E8A3"/>
<path d="M57.2 82.4934H50.6V89.0934L57.2 89.0934V82.4934Z" fill="#28E8A3"/>
<path d="M57.2 16.5H50.6V23.1H57.2V16.5Z" fill="#28E8A3"/>
<path d="M50.6 95.7066H44V102.307H50.6V95.7066Z" fill="#28E8A3"/>
<path d="M50.6 82.4934H44V89.0934H50.6V82.4934Z" fill="#28E8A3"/>
<path d="M50.6 16.5H44V23.1H50.6V16.5Z" fill="#28E8A3"/>
<path d="M44 82.4934H37.4V89.0934H44V82.4934Z" fill="#28E8A3"/>
<path d="M44 16.5H37.4V23.1H44V16.5Z" fill="#28E8A3"/>
<path d="M37.4 82.4934H30.8V89.0934H37.4V82.4934Z" fill="#28E8A3"/>
<path d="M50.6 62.7H44V69.2934H50.6V62.7Z" fill="#FBCE13"/>
<path d="M50.6 36.3H44V42.9066H50.6V36.3Z" fill="#FBCE13"/>
<path d="M44 56.1H37.4V62.7H44L44 56.1Z" fill="#FBCE13"/>
<path d="M44 42.9H37.4V49.5H44V42.9Z" fill="#FBCE13"/>
<path d="M37.4 49.5L30.8 49.5V56.1H37.4V49.5Z" fill="#FBCE13"/>
<path d="M37.4 16.5H30.8V23.1H37.4V16.5Z" fill="#28E8A3"/>
<path d="M30.8 82.4934H24.2V89.0934H30.8V82.4934Z" fill="#28E8A3"/>
<path d="M30.8 16.5H24.2V23.1H30.8V16.5Z" fill="#28E8A3"/>
<path d="M24.2 82.4934H17.6V89.0934H24.2V82.4934Z" fill="#28E8A3"/>
<path d="M24.2 16.5H17.6V23.1H24.2V16.5Z" fill="#28E8A3"/>
<path d="M17.6 75.8934H11V82.4934H17.6L17.6 75.8934Z" fill="#28E8A3"/>
<path d="M17.6 69.2934H11V75.8934H17.6V69.2934Z" fill="#28E8A3"/>
<path d="M17.6 62.7H11V69.2934H17.6V62.7Z" fill="#28E8A3"/>
<path d="M17.6 56.1H11V62.7H17.6V56.1Z" fill="#28E8A3"/>
<path d="M17.6 49.5H11V56.1H17.6V49.5Z" fill="#28E8A3"/>
<path d="M17.6 42.9H11V49.5H17.6V42.9Z" fill="#28E8A3"/>
<path d="M17.6 36.3H11V42.9066H17.6V36.3Z" fill="#28E8A3"/>
<path d="M17.6 29.7H11V36.3H17.6V29.7Z" fill="#28E8A3"/>
<path d="M17.6 23.1L11 23.1V29.7H17.6L17.6 23.1Z" fill="#28E8A3"/>
</svg>
