<svg width="60" height="60" viewBox="0 0 60 60" fill="none" xmlns="http://www.w3.org/2000/svg">
<path d="M51.7124 42.9767H48.8005V45.8885H51.7124V42.9767Z" fill="#11D9ED"/>
<path d="M51.7124 40.0648H48.8005V42.9767H51.7124V40.0648Z" fill="#11D9ED"/>
<path d="M51.7124 37.153H48.8005V40.0648H51.7124V37.153Z" fill="#11D9ED"/>
<path d="M51.7124 34.2412H48.8005V37.153H51.7124V34.2412Z" fill="#11D9ED"/>
<path d="M51.7124 31.3294H48.8005V34.2412H51.7124V31.3294Z" fill="#11D9ED"/>
<path d="M51.7124 28.4176H48.8005V31.3294H51.7124V28.4176Z" fill="#11D9ED"/>
<path d="M51.7124 25.5058H48.8005V28.4176H51.7124V25.5058Z" fill="#11D9ED"/>
<path d="M51.7124 22.594H48.8005V25.5058H51.7124V22.594Z" fill="#11D9ED"/>
<path d="M51.7124 19.6821H48.8005V22.594H51.7124V19.6821Z" fill="#11D9ED"/>
<path d="M51.7124 16.7703H48.8005V19.6821H51.7124V16.7703Z" fill="#11D9ED"/>
<path d="M51.7124 13.8585H48.8005V16.7703H51.7124V13.8585Z" fill="#11D9ED"/>
<path d="M48.8005 42.9767H45.8887V45.8885H48.8005V42.9767Z" fill="#11D9ED"/>
<path d="M48.8005 13.8585H45.8887V16.7703L48.8005 16.7703V13.8585Z" fill="#11D9ED"/>
<path d="M45.8887 42.9767H42.9769V45.8885H45.8887V42.9767Z" fill="#11D9ED"/>
<path d="M45.8887 34.2412H42.9769V37.153H45.8887V34.2412Z" fill="#11D9ED"/>
<path d="M45.8887 31.3294H42.9769V34.2412H45.8887V31.3294Z" fill="#11D9ED"/>
<path d="M45.8887 28.4176H42.9769V31.3294H45.8887V28.4176Z" fill="#11D9ED"/>
<path d="M45.8887 25.5058H42.9769V28.4176H45.8887V25.5058Z" fill="#11D9ED"/>
<path d="M45.8887 22.594H42.9769V25.5058H45.8887V22.594Z" fill="#11D9ED"/>
<path d="M45.8887 13.8585H42.9769V16.7703H45.8887V13.8585Z" fill="#11D9ED"/>
<path d="M42.9769 42.9767H40.0651V45.8885H42.9769V42.9767Z" fill="#11D9ED"/>
<path d="M42.9769 37.153H40.0651V40.0648H42.9769V37.153Z" fill="#11D9ED"/>
<path d="M42.9769 19.6821H40.0651V22.594H42.9769V19.6821Z" fill="#11D9ED"/>
<path d="M42.9769 13.8585H40.0651V16.7703H42.9769V13.8585Z" fill="#11D9ED"/>
<path d="M40.0651 42.9767H37.1533V45.8885H40.0651V42.9767Z" fill="#11D9ED"/>
<path d="M40.0651 40.0648L37.1533 40.0648V42.9767H40.0651V40.0648Z" fill="#11D9ED"/>
<path d="M40.0651 16.7703L37.1533 16.7703V19.6821L40.0651 19.6821V16.7703Z" fill="#11D9ED"/>
<path d="M40.0651 13.8585H37.1533V16.7703L40.0651 16.7703V13.8585Z" fill="#11D9ED"/>
<path d="M37.1533 42.9767H34.2415V45.8885H37.1533V42.9767Z" fill="#11D9ED"/>
<path d="M37.1533 31.3294H34.2415V34.2412H37.1533V31.3294Z" fill="#11D9ED"/>
<path d="M37.1533 22.594H34.2415V25.5058H37.1533V22.594Z" fill="#11D9ED"/>
<path d="M37.1533 13.8585H34.2415V16.7703L37.1533 16.7703V13.8585Z" fill="#11D9ED"/>
<path d="M34.2415 42.9767H31.3297V45.8885H34.2415V42.9767Z" fill="#11D9ED"/>
<path d="M34.2415 34.2412H31.3297V37.153H34.2415V34.2412Z" fill="#11D9ED"/>
<path d="M34.2415 28.4176H31.3297V31.3294H34.2415V28.4176Z" fill="#11D9ED"/>
<path d="M34.2415 22.594H31.3297V25.5058H34.2415V22.594Z" fill="#11D9ED"/>
<path d="M34.2415 13.8585H31.3297V16.7703H34.2415V13.8585Z" fill="#11D9ED"/>
<path d="M31.3297 42.9767H28.4179V45.8885H31.3297V42.9767Z" fill="#11D9ED"/>
<path d="M31.3297 37.153H28.4179V40.0648H31.3297V37.153Z" fill="#11D9ED"/>
<path d="M31.3297 34.2412H28.4179V37.153H31.3297V34.2412Z" fill="#11D9ED"/>
<path d="M31.3297 28.4176H28.4179V31.3294H31.3297V28.4176Z" fill="#11D9ED"/>
<path d="M31.3297 22.594H28.4179V25.5058H31.3297V22.594Z" fill="#11D9ED"/>
<path d="M31.3297 19.6821H28.4179V22.594H31.3297V19.6821Z" fill="#11D9ED"/>
<path d="M31.3297 13.8585H28.4179V16.7703H31.3297V13.8585Z" fill="#11D9ED"/>
<path d="M28.4179 42.9767H25.506V45.8885H28.4179V42.9767Z" fill="#11D9ED"/>
<path d="M28.4179 34.2412H25.506V37.153H28.4179V34.2412Z" fill="#11D9ED"/>
<path d="M28.4179 28.4176H25.506V31.3294H28.4179V28.4176Z" fill="#11D9ED"/>
<path d="M28.4179 22.594H25.506V25.5058H28.4179V22.594Z" fill="#11D9ED"/>
<path d="M28.4179 13.8585H25.506V16.7703H28.4179V13.8585Z" fill="#11D9ED"/>
<path d="M25.506 42.9767H22.5942V45.8885H25.506V42.9767Z" fill="#11D9ED"/>
<path d="M25.506 34.2412H22.5942V37.153H25.506V34.2412Z" fill="#11D9ED"/>
<path d="M25.506 25.5058H22.5942V28.4176L25.506 28.4176V25.5058Z" fill="#11D9ED"/>
<path d="M25.506 13.8585H22.5942V16.7703H25.506V13.8585Z" fill="#11D9ED"/>
<path d="M22.5942 42.9767H19.6824V45.8885H22.5942V42.9767Z" fill="#11D9ED"/>
<path d="M22.5942 40.0648H19.6824V42.9767H22.5942V40.0648Z" fill="#11D9ED"/>
<path d="M22.5942 16.7703L19.6824 16.7703V19.6821H22.5942V16.7703Z" fill="#11D9ED"/>
<path d="M22.5942 13.8585H19.6824V16.7703L22.5942 16.7703V13.8585Z" fill="#11D9ED"/>
<path d="M19.6824 42.9767H16.7706V45.8885H19.6824V42.9767Z" fill="#11D9ED"/>
<path d="M19.6824 37.153H16.7706V40.0648L19.6824 40.0648V37.153Z" fill="#11D9ED"/>
<path d="M19.6824 19.6821L16.7706 19.6821V22.594H19.6824V19.6821Z" fill="#11D9ED"/>
<path d="M19.6824 13.8585H16.7706V16.7703L19.6824 16.7703V13.8585Z" fill="#11D9ED"/>
<path d="M16.7706 42.9767H13.8588V45.8885H16.7706V42.9767Z" fill="#11D9ED"/>
<path d="M16.7706 34.2412H13.8588V37.153H16.7706L16.7706 34.2412Z" fill="#11D9ED"/>
<path d="M16.7706 31.3294H13.8588V34.2412H16.7706V31.3294Z" fill="#11D9ED"/>
<path d="M16.7706 28.4176H13.8588V31.3294H16.7706V28.4176Z" fill="#11D9ED"/>
<path d="M16.7706 25.5058H13.8588V28.4176H16.7706V25.5058Z" fill="#11D9ED"/>
<path d="M16.7706 22.594H13.8588V25.5058H16.7706L16.7706 22.594Z" fill="#11D9ED"/>
<path d="M16.7706 13.8585H13.8588V16.7703H16.7706V13.8585Z" fill="#11D9ED"/>
<path d="M13.8588 42.9767H10.947V45.8885H13.8588V42.9767Z" fill="#11D9ED"/>
<path d="M13.8588 13.8585H10.947V16.7703H13.8588V13.8585Z" fill="#11D9ED"/>
<path d="M10.947 42.9767H8.03516V45.8885H10.947V42.9767Z" fill="#11D9ED"/>
<path d="M10.947 40.0648H8.03516V42.9767H10.947V40.0648Z" fill="#11D9ED"/>
<path d="M10.947 37.153H8.03516V40.0648H10.947V37.153Z" fill="#11D9ED"/>
<path d="M10.947 34.2412H8.03516V37.153H10.947V34.2412Z" fill="#11D9ED"/>
<path d="M10.947 31.3294H8.03516V34.2412H10.947V31.3294Z" fill="#11D9ED"/>
<path d="M10.947 28.4176H8.03516V31.3294H10.947V28.4176Z" fill="#11D9ED"/>
<path d="M10.947 25.5058H8.03516V28.4176H10.947V25.5058Z" fill="#11D9ED"/>
<path d="M10.947 22.594H8.03516V25.5058H10.947V22.594Z" fill="#11D9ED"/>
<path d="M10.947 19.6821H8.03516V22.594H10.947V19.6821Z" fill="#11D9ED"/>
<path d="M10.947 16.7703L8.03516 16.7703V19.6821H10.947V16.7703Z" fill="#11D9ED"/>
<path d="M10.947 13.8585H8.03516V16.7703L10.947 16.7703V13.8585Z" fill="#11D9ED"/>
</svg>
