<svg width="81" height="80" viewBox="0 0 81 80" fill="none" xmlns="http://www.w3.org/2000/svg">
<path d="M63.5941 53.1745H59.9419V56.8267H63.5941V53.1745Z" fill="#28E8A3"/>
<path d="M63.5941 49.5222H59.9419V53.1745H63.5941V49.5222Z" fill="#28E8A3"/>
<path d="M63.5941 45.87H59.9419V49.5222H63.5941V45.87Z" fill="#28E8A3"/>
<path d="M63.5941 42.2178H59.9419V45.87H63.5941V42.2178Z" fill="#28E8A3"/>
<path d="M63.5941 38.5656H59.9419V42.2178H63.5941V38.5656Z" fill="#28E8A3"/>
<path d="M63.5941 34.9133H59.9419V38.5656H63.5941V34.9133Z" fill="#28E8A3"/>
<path d="M63.5941 31.2611H59.9419V34.9133H63.5941V31.2611Z" fill="#28E8A3"/>
<path d="M63.5941 27.6089H59.9419V31.2611H63.5941V27.6089Z" fill="#28E8A3"/>
<path d="M63.5941 23.9567H59.9419V27.6089H63.5941V23.9567Z" fill="#28E8A3"/>
<path d="M59.9419 56.8267L56.2897 56.8267V60.4789H59.9419V56.8267Z" fill="#28E8A3"/>
<path d="M59.9419 27.6089H56.2897V31.2611L59.9419 31.2611V27.6089Z" fill="#28E8A3"/>
<path d="M59.9419 20.3044H56.2897V23.9567H59.9419V20.3044Z" fill="#28E8A3"/>
<path d="M56.2897 56.8267H52.6375V60.4789H56.2897V56.8267Z" fill="#28E8A3"/>
<path d="M56.2897 27.6089H52.6375V31.2611H56.2897V27.6089Z" fill="#28E8A3"/>
<path d="M56.2897 20.3044H52.6375V23.9567H56.2897V20.3044Z" fill="#28E8A3"/>
<path d="M52.6375 60.4789H48.9853V64.1311H52.6375V60.4789Z" fill="#28E8A3"/>
<path d="M52.6375 31.2611L48.9853 31.2611V34.9133H52.6375V31.2611Z" fill="#28E8A3"/>
<path d="M52.6375 16.6522H48.9853V20.3044L52.6375 20.3044V16.6522Z" fill="#28E8A3"/>
<path d="M48.9853 60.4789H45.333V64.1311H48.9853V60.4789Z" fill="#28E8A3"/>
<path d="M48.9853 31.2611H45.333V34.9133H48.9853V31.2611Z" fill="#28E8A3"/>
<path d="M48.9853 16.6522H45.333V20.3044H48.9853V16.6522Z" fill="#28E8A3"/>
<path d="M45.333 64.1311H41.6808V67.7834H45.333V64.1311Z" fill="#28E8A3"/>
<path d="M45.333 34.9133L41.6808 34.9133V38.5656H45.333V34.9133Z" fill="#28E8A3"/>
<path d="M45.333 13H41.6808V16.6522L45.333 16.6522V13Z" fill="#28E8A3"/>
<path d="M41.6808 64.1311H38.0286V67.7834H41.6808V64.1311Z" fill="#28E8A3"/>
<path d="M41.6808 60.4789H38.0286V64.1311H41.6808V60.4789Z" fill="#28E8A3"/>
<path d="M41.6808 56.8267H38.0286V60.4789H41.6808V56.8267Z" fill="#28E8A3"/>
<path d="M41.6808 53.1745H38.0286V56.8267H41.6808V53.1745Z" fill="#28E8A3"/>
<path d="M41.6808 49.5222H38.0286V53.1745H41.6808V49.5222Z" fill="#28E8A3"/>
<path d="M41.6808 45.87H38.0286V49.5222H41.6808V45.87Z" fill="#28E8A3"/>
<path d="M41.6808 42.2178H38.0286V45.87H41.6808V42.2178Z" fill="#28E8A3"/>
<path d="M41.6808 38.5656H38.0286V42.2178H41.6808V38.5656Z" fill="#28E8A3"/>
<path d="M41.6808 34.9133H38.0286V38.5656H41.6808V34.9133Z" fill="#28E8A3"/>
<path d="M41.6808 13L38.0286 13V16.6522H41.6808V13Z" fill="#28E8A3"/>
<path d="M38.0286 64.1311H34.3764V67.7834H38.0286V64.1311Z" fill="#28E8A3"/>
<path d="M38.0286 34.9133H34.3764V38.5656H38.0286V34.9133Z" fill="#28E8A3"/>
<path d="M38.0286 13H34.3764V16.6522H38.0286V13Z" fill="#28E8A3"/>
<path d="M34.3764 60.4789H30.7241L30.7241 64.1311H34.3764V60.4789Z" fill="#28E8A3"/>
<path d="M34.3764 31.2611H30.7241V34.9133L34.3764 34.9133V31.2611Z" fill="#28E8A3"/>
<path d="M34.3764 16.6522L30.7241 16.6522V20.3044H34.3764V16.6522Z" fill="#28E8A3"/>
<path d="M30.7241 60.4789H27.0719L27.0719 64.1311H30.7241L30.7241 60.4789Z" fill="#28E8A3"/>
<path d="M30.7241 31.2611H27.0719V34.9133H30.7241V31.2611Z" fill="#28E8A3"/>
<path d="M30.7241 16.6522H27.0719V20.3044H30.7241V16.6522Z" fill="#28E8A3"/>
<path d="M27.0719 56.8267H23.4197V60.4789H27.0719L27.0719 56.8267Z" fill="#28E8A3"/>
<path d="M56.2897 49.5222H52.6375V53.1745H56.2897V49.5222Z" fill="#725BFF"/>
<path d="M56.2897 38.5656H52.6375V42.2178H56.2897V38.5656Z" fill="#725BFF"/>
<path d="M48.9853 53.1745H45.333V56.8267H48.9853V53.1745Z" fill="#725BFF"/>
<path d="M48.9853 42.2178H45.333V45.87H48.9853V42.2178Z" fill="#725BFF"/>
<path d="M41.6808 23.9567H38.0286V27.6089H41.6808V23.9567Z" fill="#725BFF"/>
<path d="M34.3764 49.5222H30.7241V53.1745H34.3764V49.5222Z" fill="#725BFF"/>
<path d="M27.0719 38.5656H23.4197V42.2178H27.0719V38.5656Z" fill="#725BFF"/>
<path d="M27.0719 27.6089H23.4197V31.2611L27.0719 31.2611L27.0719 27.6089Z" fill="#28E8A3"/>
<path d="M27.0719 20.3044L23.4197 20.3044V23.9567H27.0719L27.0719 20.3044Z" fill="#28E8A3"/>
<path d="M23.4197 56.8267H19.7675V60.4789H23.4197V56.8267Z" fill="#28E8A3"/>
<path d="M23.4197 27.6089H19.7675V31.2611H23.4197V27.6089Z" fill="#28E8A3"/>
<path d="M23.4197 20.3044H19.7675V23.9567H23.4197V20.3044Z" fill="#28E8A3"/>
<path d="M19.7675 53.1745H16.1152V56.8267L19.7675 56.8267V53.1745Z" fill="#28E8A3"/>
<path d="M19.7675 49.5222H16.1152V53.1745H19.7675L19.7675 49.5222Z" fill="#28E8A3"/>
<path d="M19.7675 45.87H16.1152L16.1152 49.5222H19.7675V45.87Z" fill="#28E8A3"/>
<path d="M19.7675 42.2178H16.1152V45.87H19.7675V42.2178Z" fill="#28E8A3"/>
<path d="M19.7675 38.5656H16.1152V42.2178H19.7675V38.5656Z" fill="#28E8A3"/>
<path d="M19.7675 34.9133H16.1152V38.5656H19.7675V34.9133Z" fill="#28E8A3"/>
<path d="M19.7675 31.2611L16.1152 31.2611V34.9133H19.7675V31.2611Z" fill="#28E8A3"/>
<path d="M19.7675 27.6089H16.1152V31.2611L19.7675 31.2611V27.6089Z" fill="#28E8A3"/>
<path d="M19.7675 23.9567H16.1152V27.6089H19.7675V23.9567Z" fill="#28E8A3"/>
</svg>
