<svg width="166" height="166" viewBox="0 0 166 166" fill="none" xmlns="http://www.w3.org/2000/svg">
<path d="M91.067 119.805H80.1196V130.752H91.067V119.805Z" fill="#28E8A3"/>
<path d="M102.014 108.857H91.067L91.067 119.805H102.014V108.857Z" fill="#28E8A3"/>
<path d="M91.067 108.857H80.1196L80.1196 119.805H91.067L91.067 108.857Z" fill="#28E8A3"/>
<path d="M80.1196 108.857H69.1722V119.805H80.1196L80.1196 108.857Z" fill="#28E8A3"/>
<path d="M47.2775 76.0259H36.3301V86.9843H47.2775V76.0259Z" fill="#28E8A3"/>
<path d="M134.857 76.0259H123.909V86.9733H134.857V76.0259Z" fill="#28E8A3"/>
<path d="M112.962 76.0259H102.014V86.9843H112.962V76.0259Z" fill="#28E8A3"/>
<path d="M102.014 76.0259L91.067 76.0259V86.9733H102.014L102.014 76.0259Z" fill="#28E8A3"/>
<path d="M80.1196 76.0259H69.1722V86.9843H80.1196V76.0259Z" fill="#28E8A3"/>
<path d="M91.067 76.0259H80.1196V86.9843H91.067L91.067 76.0259Z" fill="#28E8A3"/>
<path d="M123.909 76.0259L112.962 76.0259V86.9843L123.909 86.9843L123.909 76.0259Z" fill="#28E8A3"/>
<path d="M69.1722 76.0259H58.2249V86.9733H69.1722L69.1722 76.0259Z" fill="#28E8A3"/>
<path d="M123.909 43.1729H112.962V54.1202H123.909V43.1729Z" fill="#28E8A3"/>
<path d="M112.962 43.1729L102.014 43.1729V54.1202L112.962 54.1202V43.1729Z" fill="#28E8A3"/>
<path d="M69.1722 43.1729H58.2249V54.1202H69.1722V43.1729Z" fill="#28E8A3"/>
<path d="M58.2249 43.1729L47.2775 43.1729V54.1202L58.2249 54.1202V43.1729Z" fill="#28E8A3"/>
<path d="M112.962 97.9098H102.014L102.014 108.857H112.962V97.9098Z" fill="#28E8A3"/>
<path d="M102.014 97.9098H91.067L91.067 108.857H102.014L102.014 97.9098Z" fill="#28E8A3"/>
<path d="M91.067 97.9098H80.1196L80.1196 108.857H91.067L91.067 97.9098Z" fill="#28E8A3"/>
<path d="M80.1196 97.9098H69.1722L69.1722 108.857H80.1196L80.1196 97.9098Z" fill="#28E8A3"/>
<path d="M69.1722 97.9098L58.2249 97.9098V108.857H69.1722L69.1722 97.9098Z" fill="#28E8A3"/>
<path d="M134.857 54.1202L123.909 54.1202L123.909 65.0676H134.857V54.1202Z" fill="#28E8A3"/>
<path d="M123.909 54.1202H112.962V65.0676H123.909L123.909 54.1202Z" fill="#28E8A3"/>
<path d="M112.962 54.1202L102.014 54.1202V65.0676L112.962 65.0676V54.1202Z" fill="#28E8A3"/>
<path d="M102.014 54.1202L91.067 54.1202V65.0676H102.014V54.1202Z" fill="#28E8A3"/>
<path d="M80.1196 54.1202L69.1722 54.1202L69.1722 65.0676H80.1196V54.1202Z" fill="#28E8A3"/>
<path d="M69.1722 54.1202H58.2249V65.0676L69.1722 65.0676L69.1722 54.1202Z" fill="#28E8A3"/>
<path d="M58.2249 54.1202L47.2775 54.1202L47.2775 65.0676H58.2249V54.1202Z" fill="#28E8A3"/>
<path d="M47.2775 54.1202L36.3301 54.1202V65.0676H47.2775L47.2775 54.1202Z" fill="#28E8A3"/>
<path d="M134.857 65.0786H123.909L123.909 76.0259H134.857L134.857 65.0786Z" fill="#28E8A3"/>
<path d="M123.909 65.0786H112.962L112.962 76.0259L123.909 76.0259L123.909 65.0786Z" fill="#28E8A3"/>
<path d="M112.962 65.0786L102.014 65.0786L102.014 76.0259H112.962L112.962 65.0786Z" fill="#28E8A3"/>
<path d="M102.014 65.0786H91.067L91.067 76.0259L102.014 76.0259L102.014 65.0786Z" fill="#28E8A3"/>
<path d="M91.067 65.0786H80.1196L80.1196 76.0259H91.067L91.067 65.0786Z" fill="#28E8A3"/>
<path d="M80.1196 65.0786H69.1722L69.1722 76.0259H80.1196L80.1196 65.0786Z" fill="#28E8A3"/>
<path d="M69.1722 65.0786L58.2249 65.0786L58.2249 76.0259H69.1722L69.1722 65.0786Z" fill="#28E8A3"/>
<path d="M58.2249 65.0786H47.2775L47.2775 76.0259H58.2249L58.2249 65.0786Z" fill="#28E8A3"/>
<path d="M58.2249 76.0259H47.2775L47.2775 86.9733L58.2249 86.9733V76.0259Z" fill="#28E8A3"/>
<path d="M47.2775 65.0786H36.3301V76.0259H47.2775L47.2775 65.0786Z" fill="#28E8A3"/>
<path d="M123.909 86.9733L112.962 86.9733V97.9207H123.909L123.909 86.9733Z" fill="#28E8A3"/>
<path d="M112.962 86.9733L102.014 86.9733L102.014 97.9207H112.962V86.9733Z" fill="#28E8A3"/>
<path d="M102.014 86.9733H91.067L91.067 97.9207H102.014L102.014 86.9733Z" fill="#28E8A3"/>
<path d="M91.067 86.9733L80.1196 86.9733V97.9207H91.067L91.067 86.9733Z" fill="#28E8A3"/>
<path d="M80.1196 86.9733L69.1722 86.9733L69.1722 97.9207H80.1196V86.9733Z" fill="#28E8A3"/>
<path d="M69.1722 86.9733H58.2249L58.2249 97.9207H69.1722L69.1722 86.9733Z" fill="#28E8A3"/>
<path d="M58.2249 86.9733L47.2775 86.9733L47.2775 97.9207H58.2249L58.2249 86.9733Z" fill="#28E8A3"/>
</svg>
