<svg width="80" height="80" viewBox="0 0 80 80" fill="none" xmlns="http://www.w3.org/2000/svg">
<path d="M60.76 63.8801H57.0546V67.5855H60.76V63.8801Z" fill="#11D9ED"/>
<path d="M60.76 60.1746H57.0546V63.8801H60.76V60.1746Z" fill="#11D9ED"/>
<path d="M60.76 56.4692H57.0546V60.1746H60.76V56.4692Z" fill="#11D9ED"/>
<path d="M60.76 52.7637H57.0546V56.4692H60.76V52.7637Z" fill="#11D9ED"/>
<path d="M60.76 49.0583H57.0546V52.7637H60.76V49.0583Z" fill="#11D9ED"/>
<path d="M60.76 45.3528H57.0546V49.0583H60.76V45.3528Z" fill="#11D9ED"/>
<path d="M60.76 41.6473H57.0546V45.3528H60.76V41.6473Z" fill="#11D9ED"/>
<path d="M60.76 37.9382H57.0546V41.6436H60.76V37.9382Z" fill="#11D9ED"/>
<path d="M60.76 34.2327H57.0546V37.9382H60.76V34.2327Z" fill="#11D9ED"/>
<path d="M60.76 30.5273H57.0546V34.2327H60.76V30.5273Z" fill="#11D9ED"/>
<path d="M60.76 26.8218H57.0546V30.5273H60.76V26.8218Z" fill="#11D9ED"/>
<path d="M60.76 23.1164H57.0546V26.8218H60.76V23.1164Z" fill="#11D9ED"/>
<path d="M60.76 19.4109H57.0546V23.1164H60.76V19.4109Z" fill="#11D9ED"/>
<path d="M53.3491 19.4109H49.6436V23.1164H53.3491V19.4109Z" fill="#11D9ED"/>
<path d="M60.76 15.7055H57.0546V19.4109H60.76V15.7055Z" fill="#11D9ED"/>
<path d="M60.76 12H57.0546V15.7055H60.76V12Z" fill="#11D9ED"/>
<path d="M57.0546 63.8801H53.3491V67.5855H57.0546V63.8801Z" fill="#11D9ED"/>
<path d="M57.0546 12H53.3491V15.7055L57.0546 15.7055V12Z" fill="#11D9ED"/>
<path d="M53.3491 63.8801H49.6436V67.5855H53.3491V63.8801Z" fill="#11D9ED"/>
<path d="M53.3491 12H49.6436V15.7055H53.3491V12Z" fill="#11D9ED"/>
<path d="M49.6436 63.8801H45.9382V67.5855H49.6436V63.8801Z" fill="#11D9ED"/>
<path d="M49.6436 12H45.9382V15.7055H49.6436V12Z" fill="#11D9ED"/>
<path d="M45.9382 63.8801H42.2327V67.5855H45.9382V63.8801Z" fill="#11D9ED"/>
<path d="M45.9382 12H42.2327V15.7055H45.9382V12Z" fill="#11D9ED"/>
<path d="M42.2327 63.8801H38.5273V67.5855H42.2327V63.8801Z" fill="#11D9ED"/>
<path d="M42.2327 12H38.5273V15.7055H42.2327V12Z" fill="#11D9ED"/>
<path d="M38.5273 63.8801H34.8218V67.5855H38.5273V63.8801Z" fill="#11D9ED"/>
<path d="M38.5273 12H34.8218V15.7055H38.5273V12Z" fill="#11D9ED"/>
<path d="M34.8218 63.8801H31.1164V67.5855H34.8218V63.8801Z" fill="#11D9ED"/>
<path d="M34.8218 12H31.1164V15.7055H34.8218V12Z" fill="#11D9ED"/>
<path d="M31.1164 12L27.4109 12V15.7055L31.1164 15.7055V12Z" fill="#11D9ED"/>
<path d="M27.4109 12H23.7055V15.7055H27.4109V12Z" fill="#11D9ED"/>
<path d="M23.7055 12L20 12V15.7055L23.7055 15.7055V12Z" fill="#11D9ED"/>
<path d="M31.1164 63.8801H27.4109V67.5855H31.1164V63.8801Z" fill="#11D9ED"/>
<path d="M27.4109 63.8801H23.7055V67.5855H27.4109V63.8801Z" fill="#11D9ED"/>
<path d="M23.7055 63.8801H20V67.5855H23.7055V63.8801Z" fill="#11D9ED"/>
<path d="M23.7055 60.1746H20V63.8801H23.7055L23.7055 60.1746Z" fill="#11D9ED"/>
<path d="M23.7055 56.4692H20V60.1746H23.7055V56.4692Z" fill="#11D9ED"/>
<path d="M31.1164 56.4692H27.4109V60.1746H31.1164V56.4692Z" fill="#11D9ED"/>
<path d="M23.7055 52.7637H20V56.4692H23.7055V52.7637Z" fill="#11D9ED"/>
<path d="M23.7055 49.0583H20V52.7637H23.7055V49.0583Z" fill="#11D9ED"/>
<path d="M23.7055 45.3528H20V49.0583H23.7055V45.3528Z" fill="#11D9ED"/>
<path d="M23.7055 41.6473H20V45.3528H23.7055V41.6473Z" fill="#11D9ED"/>
<path d="M23.7055 37.9382H20V41.6436H23.7055V37.9382Z" fill="#11D9ED"/>
<path d="M23.7055 34.2327H20V37.9382H23.7055V34.2327Z" fill="#11D9ED"/>
<path d="M23.7055 30.5273H20V34.2327H23.7055V30.5273Z" fill="#11D9ED"/>
<path d="M23.7055 26.8218H20V30.5273H23.7055V26.8218Z" fill="#11D9ED"/>
<path d="M23.7055 23.1164H20V26.8218H23.7055V23.1164Z" fill="#11D9ED"/>
<path d="M23.7055 19.4109H20L20 23.1164H23.7055L23.7055 19.4109Z" fill="#11D9ED"/>
<path d="M23.7055 15.7055L20 15.7055L20 19.4109H23.7055L23.7055 15.7055Z" fill="#11D9ED"/>
<path d="M42.2327 49.0583H38.5273V52.7637H42.2327V49.0583Z" fill="#11D9ED"/>
<path d="M45.9382 45.3528H42.2327L42.2327 49.0583L45.9382 49.0582V45.3528Z" fill="#11D9ED"/>
<path d="M42.2327 45.3528H38.5273L38.5273 49.0583H42.2327L42.2327 45.3528Z" fill="#11D9ED"/>
<path d="M38.5273 45.3528L34.8218 45.3528V49.0582L38.5273 49.0583L38.5273 45.3528Z" fill="#11D9ED"/>
<path d="M49.6436 34.2364H45.9382V37.9456H49.6436V34.2364Z" fill="#11D9ED"/>
<path d="M45.9382 34.2364L42.2327 34.2364V37.9419H45.9382L45.9382 34.2364Z" fill="#11D9ED"/>
<path d="M38.5273 34.2364H34.8218V37.9456H38.5273V34.2364Z" fill="#11D9ED"/>
<path d="M42.2327 34.2364H38.5273V37.9456H42.2327L42.2327 34.2364Z" fill="#11D9ED"/>
<path d="M53.3491 34.2364L49.6436 34.2364V37.9456L53.3491 37.9456V34.2364Z" fill="#11D9ED"/>
<path d="M34.8218 34.2364H31.1164V37.9419H34.8218L34.8218 34.2364Z" fill="#11D9ED"/>
<path d="M49.6437 41.6473H45.9382L45.9382 45.3528L49.6437 45.3528V41.6473Z" fill="#11D9ED"/>
<path d="M45.9382 41.6473H42.2327V45.3528H45.9382L45.9382 41.6473Z" fill="#11D9ED"/>
<path d="M42.2327 41.6473H38.5273L38.5273 45.3528H42.2327V41.6473Z" fill="#11D9ED"/>
<path d="M38.5273 41.6473H34.8218L34.8218 45.3528L38.5273 45.3528L38.5273 41.6473Z" fill="#11D9ED"/>
<path d="M34.8218 41.6473L31.1164 41.6473V45.3528L34.8218 45.3528L34.8218 41.6473Z" fill="#11D9ED"/>
<path d="M49.6437 26.8218H45.9382V30.5273H49.6437V26.8218Z" fill="#11D9ED"/>
<path d="M45.9382 26.8218H42.2327V30.5273H45.9382V26.8218Z" fill="#11D9ED"/>
<path d="M38.5273 26.8218H34.8218V30.5273H38.5273V26.8218Z" fill="#11D9ED"/>
<path d="M34.8218 26.8218L31.1164 26.8218V30.5273L34.8218 30.5273V26.8218Z" fill="#11D9ED"/>
<path d="M53.3491 30.531H49.6436L49.6436 34.2364L53.3491 34.2364L53.3491 30.531Z" fill="#11D9ED"/>
<path d="M49.6436 30.531L45.9382 30.531L45.9382 34.2364H49.6436L49.6436 30.531Z" fill="#11D9ED"/>
<path d="M45.9382 30.531H42.2327L42.2327 34.2364L45.9382 34.2364L45.9382 30.531Z" fill="#11D9ED"/>
<path d="M42.2327 30.531H38.5273L38.5273 34.2364H42.2327L42.2327 30.531Z" fill="#11D9ED"/>
<path d="M38.5273 30.531H34.8218L34.8218 34.2364H38.5273L38.5273 30.531Z" fill="#11D9ED"/>
<path d="M34.8218 30.531L31.1163 30.531L31.1164 34.2364H34.8218L34.8218 30.531Z" fill="#11D9ED"/>
<path d="M31.1163 30.531L27.4109 30.531V34.2364L31.1164 34.2364L31.1163 30.531Z" fill="#11D9ED"/>
<path d="M31.1164 34.2364L27.4109 34.2364L27.4109 37.9419L31.1164 37.9419V34.2364Z" fill="#11D9ED"/>
<path d="M53.3491 37.9419H49.6436L49.6437 41.6473L53.3491 41.6473V37.9419Z" fill="#11D9ED"/>
<path d="M49.6436 37.9419L45.9382 37.9419L45.9382 41.6473H49.6437L49.6436 37.9419Z" fill="#11D9ED"/>
<path d="M45.9382 37.9419H42.2327L42.2327 41.6473H45.9382L45.9382 37.9419Z" fill="#11D9ED"/>
<path d="M42.2327 37.9419L38.5273 37.9419L38.5273 41.6473H42.2327L42.2327 37.9419Z" fill="#11D9ED"/>
<path d="M38.5273 37.9419L34.8218 37.9419L34.8218 41.6473H38.5273L38.5273 37.9419Z" fill="#11D9ED"/>
<path d="M34.8218 37.9419H31.1164V41.6473L34.8218 41.6473L34.8218 37.9419Z" fill="#11D9ED"/>
<path d="M31.1164 37.9419L27.4109 37.9419L27.4109 41.6473L31.1164 41.6473V37.9419Z" fill="#11D9ED"/>
</svg>
