<svg width="60" height="60" viewBox="0 0 60 60" fill="none" xmlns="http://www.w3.org/2000/svg">
<path d="M44.0001 23.8482H40.8608V26.9874H44.0001V23.8482Z" fill="#11D9ED"/>
<path d="M44.0001 20.7089H40.8608V23.8482H44.0001V20.7089Z" fill="#11D9ED"/>
<path d="M44.0001 17.5666H40.8608V20.7089H44.0001V17.5666Z" fill="#11D9ED"/>
<path d="M44.0001 14.4274H40.8608V17.5666H44.0001V14.4274Z" fill="#11D9ED"/>
<path d="M40.8608 26.9874L37.7216 26.9874V30.1266H40.8608L40.8608 26.9874Z" fill="#11D9ED"/>
<path d="M40.8608 11.2881H37.7216V14.4274L40.8608 14.4274L40.8608 11.2881Z" fill="#11D9ED"/>
<path d="M37.7216 45.8228H34.5824V48.962H37.7216V45.8228Z" fill="#11D9ED"/>
<path d="M37.7216 42.6804H34.5824V45.8228H37.7216V42.6804Z" fill="#11D9ED"/>
<path d="M37.7216 39.5412H34.5824V42.6804H37.7216V39.5412Z" fill="#11D9ED"/>
<path d="M37.7216 36.402H34.5824V39.5412H37.7216V36.402Z" fill="#11D9ED"/>
<path d="M37.7216 33.2627H34.5824V36.402H37.7216V33.2627Z" fill="#11D9ED"/>
<path d="M37.7216 30.1266L34.5824 30.1266V33.2627H37.7216L37.7216 30.1266Z" fill="#11D9ED"/>
<path d="M37.7216 8.14893H34.5824V11.2882L37.7216 11.2881L37.7216 8.14893Z" fill="#11D9ED"/>
<path d="M34.5824 48.962L31.4432 48.962V52.1012H34.5824L34.5824 48.962Z" fill="#11D9ED"/>
<path d="M34.5824 45.8228H31.4432V48.962L34.5824 48.962V45.8228Z" fill="#11D9ED"/>
<path d="M34.5824 42.6804H31.4432V45.8228H34.5824V42.6804Z" fill="#11D9ED"/>
<path d="M34.5824 39.5412H31.4432V42.6804H34.5824V39.5412Z" fill="#11D9ED"/>
<path d="M34.5824 20.7089H31.4432V23.8482H34.5824V20.7089Z" fill="#11D9ED"/>
<path d="M34.5824 8.14893H31.4432V11.2882H34.5824V8.14893Z" fill="#11D9ED"/>
<path d="M31.4432 48.962H28.3039V52.1012H31.4432V48.962Z" fill="#11D9ED"/>
<path d="M31.4432 45.8228H28.3039V48.962H31.4432V45.8228Z" fill="#11D9ED"/>
<path d="M31.4432 42.6804H28.3039V45.8228H31.4432V42.6804Z" fill="#11D9ED"/>
<path d="M31.4432 39.5412H28.3039V42.6804H31.4432V39.5412Z" fill="#11D9ED"/>
<path d="M31.4432 36.402H28.3039V39.5412H31.4432L31.4432 36.402Z" fill="#11D9ED"/>
<path d="M31.4432 33.2627H28.3039V36.402H31.4432V33.2627Z" fill="#11D9ED"/>
<path d="M31.4432 30.1266H28.3039V33.2627H31.4432V30.1266Z" fill="#11D9ED"/>
<path d="M31.4432 26.9874H28.3039V30.1266H31.4432V26.9874Z" fill="#11D9ED"/>
<path d="M31.4432 23.8482L28.3039 23.8482V26.9874H31.4432L31.4432 23.8482Z" fill="#11D9ED"/>
<path d="M31.4432 8.14893H28.3039V11.2882H31.4432V8.14893Z" fill="#11D9ED"/>
<path d="M28.3039 48.962H25.1647V52.1012H28.3039V48.962Z" fill="#11D9ED"/>
<path d="M28.3039 45.8228H25.1647V48.962H28.3039V45.8228Z" fill="#11D9ED"/>
<path d="M28.3039 42.6804H25.1647V45.8228H28.3039V42.6804Z" fill="#11D9ED"/>
<path d="M28.3039 39.5412H25.1647V42.6804H28.3039V39.5412Z" fill="#11D9ED"/>
<path d="M28.3039 20.7089H25.1647V23.8482L28.3039 23.8482L28.3039 20.7089Z" fill="#11D9ED"/>
<path d="M28.3039 8.14893H25.1647V11.2882H28.3039V8.14893Z" fill="#11D9ED"/>
<path d="M25.1647 45.8228H22.0255V48.962L25.1647 48.962V45.8228Z" fill="#11D9ED"/>
<path d="M25.1647 42.6804H22.0255V45.8228H25.1647V42.6804Z" fill="#11D9ED"/>
<path d="M25.1647 39.5412H22.0255V42.6804H25.1647V39.5412Z" fill="#11D9ED"/>
<path d="M25.1648 36.402H22.0255V39.5412H25.1647L25.1648 36.402Z" fill="#11D9ED"/>
<path d="M25.1648 33.2627H22.0255V36.402H25.1648V33.2627Z" fill="#11D9ED"/>
<path d="M25.1648 30.1266H22.0255V33.2627H25.1648V30.1266Z" fill="#11D9ED"/>
<path d="M25.1647 8.14893H22.0255V11.2882H25.1647V8.14893Z" fill="#11D9ED"/>
<path d="M22.0255 26.9874H18.8863V30.1266L22.0255 30.1266L22.0255 26.9874Z" fill="#11D9ED"/>
<path d="M22.0255 11.2882L18.8863 11.2881V14.4274H22.0255L22.0255 11.2882Z" fill="#11D9ED"/>
<path d="M18.8863 23.8482H15.7471V26.9874L18.8863 26.9874L18.8863 23.8482Z" fill="#11D9ED"/>
<path d="M18.8863 20.7089H15.7471V23.8482H18.8863V20.7089Z" fill="#11D9ED"/>
<path d="M18.8863 17.5666H15.7471V20.7089H18.8863V17.5666Z" fill="#11D9ED"/>
<path d="M18.8863 14.4274L15.7471 14.4274V17.5666H18.8863L18.8863 14.4274Z" fill="#11D9ED"/>
</svg>
