<svg width="378" height="189" viewBox="0 0 378 189" fill="none" xmlns="http://www.w3.org/2000/svg">
<path d="M33.5046 154.199V128.417H38.6247L46.7264 144.919L54.7909 128.417H59.9855V154.199H56.2631V133.132L46.6845 152.359L37.0733 133.132V154.199H33.5H33.5046Z" fill="#DCE4EF"/>
<path d="M86.6946 146.647L89.6763 154.199H93.8786L83.3077 128.413H78.7746L68.1292 154.199H72.1451L75.1267 146.647L76.4172 143.442L80.9503 132.098L85.4414 143.442L86.6946 146.647Z" fill="#DCE4EF"/>
<path d="M171.229 146.647L174.211 154.199H178.413L167.838 128.413H163.309L152.664 154.199H156.68L159.661 146.647L160.952 143.442L165.48 132.098L169.976 143.442L171.229 146.647Z" fill="#DCE4EF"/>
<path d="M102.092 154.199V128.417H113.73C115.449 128.417 116.954 128.739 118.24 129.377C119.53 130.015 120.536 130.905 121.259 132.047C121.981 133.188 122.344 134.534 122.344 136.081C122.344 137.749 121.86 139.207 120.891 140.446C119.921 141.686 118.65 142.566 117.08 143.079L122.787 154.204H118.477L113.175 143.633H105.954V154.204H102.087L102.092 154.199ZM105.959 140.386H113.436C114.96 140.386 116.176 139.999 117.084 139.226C117.993 138.452 118.445 137.404 118.445 136.076C118.445 134.749 117.988 133.738 117.084 132.964C116.176 132.191 114.96 131.804 113.436 131.804H105.959V140.386Z" fill="#DCE4EF"/>
<path d="M138.263 154.199V131.842H129.202V128.417H151.192V131.842H142.13V154.199H138.263Z" fill="#DCE4EF"/>
<path d="M208.546 153.957L208.546 131.599L199.485 131.599V128.175L221.475 128.175V131.599H212.413L212.413 153.957H208.546Z" fill="#DCE4EF"/>
<path d="M240.776 154.362C238.936 154.362 237.198 154.022 235.563 153.351C233.928 152.676 232.498 151.73 231.272 150.514C230.042 149.298 229.092 147.887 228.417 146.279C227.741 144.672 227.406 142.934 227.406 141.066C227.406 139.198 227.741 137.465 228.417 135.853C229.092 134.245 230.042 132.834 231.272 131.618C232.502 130.402 233.933 129.456 235.563 128.781C237.194 128.105 238.932 127.77 240.776 127.77C242.621 127.77 244.429 128.11 246.064 128.781C247.695 129.456 249.125 130.402 250.355 131.618C251.585 132.834 252.54 134.245 253.229 135.853C253.919 137.46 254.259 139.198 254.259 141.066C254.259 142.934 253.914 144.672 253.229 146.279C252.54 147.887 251.585 149.298 250.355 150.514C249.125 151.73 247.695 152.676 246.064 153.351C244.429 154.027 242.668 154.362 240.776 154.362ZM240.851 150.789C242.179 150.789 243.413 150.542 244.555 150.053C245.696 149.564 246.702 148.879 247.574 148.008C248.445 147.137 249.12 146.107 249.6 144.914C250.08 143.722 250.318 142.44 250.318 141.066C250.318 139.692 250.071 138.41 249.582 137.218C249.092 136.025 248.417 134.996 247.555 134.124C246.693 133.253 245.696 132.573 244.555 132.079C243.413 131.59 242.165 131.343 240.818 131.343C239.472 131.343 238.251 131.59 237.096 132.079C235.941 132.573 234.934 133.253 234.077 134.124C233.215 134.996 232.549 136.03 232.069 137.218C231.589 138.41 231.352 139.692 231.352 141.066C231.352 142.44 231.589 143.726 232.069 144.914C232.549 146.107 233.215 147.137 234.077 148.008C234.934 148.879 235.95 149.559 237.115 150.053C238.279 150.542 239.528 150.789 240.851 150.789Z" fill="#DCE4EF"/>
<path d="M325.283 153.957V128.175H344.291V131.562H329.154V139.296H339.027V142.576H329.154V150.57H344.44V153.957H325.283Z" fill="#DCE4EF"/>
<path d="M262.952 153.957V128.175H274.59C276.309 128.175 277.814 128.497 279.1 129.135C280.39 129.773 281.397 130.663 282.119 131.804C282.841 132.946 283.204 134.292 283.204 135.839C283.204 137.507 282.72 138.965 281.751 140.204C280.782 141.443 279.51 142.324 277.94 142.836L283.647 153.962H279.337L274.036 143.391H266.814V153.962H262.948L262.952 153.957ZM266.819 140.144H274.297C275.82 140.144 277.036 139.757 277.944 138.984C278.853 138.21 279.305 137.162 279.305 135.834C279.305 134.506 278.848 133.495 277.944 132.722C277.036 131.949 275.82 131.562 274.297 131.562H266.819V140.144Z" fill="#DCE4EF"/>
<path d="M294.339 153.957V128.175H305.977C307.696 128.175 309.201 128.497 310.487 129.135C311.777 129.773 312.783 130.663 313.505 131.804C314.228 132.946 314.591 134.292 314.591 135.839C314.591 137.507 314.106 138.965 313.137 140.204C312.168 141.443 310.897 142.324 309.326 142.836L315.034 153.962H310.724L305.422 143.391H298.201V153.962H294.334L294.339 153.957ZM298.206 140.144H305.683C307.207 140.144 308.423 139.757 309.331 138.984C310.24 138.21 310.692 137.162 310.692 135.834C310.692 134.506 310.235 133.495 309.331 132.722C308.423 131.949 307.207 131.562 305.683 131.562H298.206V140.144Z" fill="#DCE4EF"/>
<path d="M160.7 50.5216C165.098 50.5216 168.662 46.9569 168.662 42.5596C168.662 38.1623 165.098 34.5977 160.7 34.5977C156.303 34.5977 152.738 38.1623 152.738 42.5596C152.738 46.9569 156.303 50.5216 160.7 50.5216Z" fill="#DCE4EF"/>
<path d="M217.245 50.5216C221.642 50.5216 225.206 46.9569 225.206 42.5596C225.206 38.1623 221.642 34.5977 217.245 34.5977C212.847 34.5977 209.283 38.1623 209.283 42.5596C209.283 46.9569 212.847 50.5216 217.245 50.5216Z" fill="#DCE4EF"/>
<path d="M170.847 79.0103L167.805 75.9681L167.838 57.7567L179.965 69.8883L170.847 79.0103Z" fill="#725BFF"/>
<path d="M207.331 79.0103L210.312 76.0287L210.336 57.7567L198.209 69.8883L207.331 79.0103Z" fill="#FF7480"/>
<path d="M198.21 88.1307L189.088 79.0088L179.966 88.1307L189.088 97.2526L198.21 88.1307Z" fill="#28E8A3"/>
<path d="M207.329 79.012L198.207 69.8901L189.085 79.012L198.207 88.1339L207.329 79.012Z" fill="#FBCE13"/>
<path d="M189.085 79.012L179.963 69.89L170.841 79.0119L179.963 88.1338L189.085 79.012Z" fill="#11D9ED"/>
<path d="M224.182 57.7567L210.312 57.7567V103.814H224.182V57.7567Z" fill="#DCE4EF"/>
<path d="M167.805 57.7567H153.936V103.814H167.805V57.7567Z" fill="#DCE4EF"/>
</svg>
