<svg width="318" height="58" viewBox="0 0 318 58" fill="none" xmlns="http://www.w3.org/2000/svg">
<path d="M0.539551 47.5225V26.9996H4.61598L11.0657 40.136L17.4858 26.9996H21.6215V47.5225H18.6595V30.7539L11.0361 46.0563L3.38306 30.7539V47.5225H0.539551Z" fill="#DCE4EF"/>
<path d="M42.8737 41.5134L45.2507 47.5225H48.5903L40.1783 26.9996H36.572L28.0971 47.5225H31.2923L33.6693 41.5134L34.6949 38.9623L38.3011 29.932L41.8777 38.9623L42.8737 41.5134Z" fill="#DCE4EF"/>
<path d="M110.159 41.5134L112.532 47.5225H115.875L107.463 26.9996H103.857L95.3822 47.5225H98.5774L100.954 41.5134L101.98 38.9623L105.586 29.932L109.163 38.9623L110.159 41.5134Z" fill="#DCE4EF"/>
<path d="M55.1289 47.5225V26.9996H64.3925C65.7587 26.9996 66.9583 27.2551 67.9839 27.7623C69.0094 28.2696 69.8129 28.9805 70.3868 29.8876C70.9644 30.7947 71.2532 31.8647 71.2532 33.0976C71.2532 34.4268 70.8681 35.5857 70.0943 36.5705C69.3205 37.5591 68.3097 38.2552 67.0582 38.6661L71.6012 47.5188H68.1727L63.9519 39.103H58.2056V47.5188H55.1289V47.5225ZM58.2056 36.5298H64.1555C65.3662 36.5298 66.3363 36.2225 67.0582 35.6079C67.7802 34.9933 68.1431 34.1565 68.1431 33.1013C68.1431 32.0461 67.7802 31.239 67.0582 30.6244C66.3363 30.0097 65.3662 29.7024 64.1555 29.7024H58.2056V36.5335V36.5298Z" fill="#DCE4EF"/>
<path d="M83.9193 47.5225V29.7284H76.7069V27.0033H94.2085V29.7284H86.9961V47.5225H83.9193Z" fill="#DCE4EF"/>
<path d="M208.645 48.9405V31.1464H201.432V28.4214H218.934V31.1464H211.721V48.9405H208.645Z" fill="#DCE4EF"/>
<path d="M234.299 49.2626C232.833 49.2626 231.452 48.9924 230.152 48.4555C228.853 47.9186 227.712 47.167 226.735 46.197C225.757 45.2306 224.998 44.1051 224.462 42.824C223.925 41.543 223.654 40.1619 223.654 38.6735C223.654 37.1852 223.921 35.8041 224.462 34.5268C224.998 33.2457 225.757 32.1239 226.735 31.1538C227.712 30.1875 228.849 29.4359 230.152 28.8953C231.452 28.3584 232.837 28.0882 234.299 28.0882C235.762 28.0882 237.206 28.3584 238.505 28.8953C239.805 29.4322 240.941 30.1838 241.919 31.1538C242.896 32.1202 243.659 33.2457 244.207 34.5268C244.755 35.8078 245.029 37.1889 245.029 38.6735C245.029 40.1582 244.755 41.543 244.207 42.824C243.659 44.1051 242.896 45.2269 241.919 46.197C240.941 47.1633 239.805 47.9186 238.505 48.4555C237.206 48.9924 235.802 49.2626 234.299 49.2626ZM234.358 46.4191C235.414 46.4191 236.395 46.2229 237.305 45.8341C238.216 45.4417 239.016 44.9011 239.708 44.205C240.401 43.5127 240.941 42.6907 241.323 41.7429C241.704 40.7951 241.893 39.7732 241.893 38.6809C241.893 37.5887 241.697 36.5668 241.308 35.619C240.915 34.6712 240.379 33.8492 239.694 33.1568C239.009 32.4645 238.213 31.9202 237.305 31.5278C236.398 31.139 235.406 30.9428 234.329 30.9428C233.251 30.9428 232.285 31.139 231.367 31.5278C230.449 31.9202 229.645 32.4608 228.964 33.1568C228.279 33.8492 227.746 34.6712 227.364 35.619C226.983 36.5668 226.794 37.5887 226.794 38.6809C226.794 39.7732 226.983 40.7951 227.364 41.7429C227.746 42.6907 228.279 43.5127 228.964 44.205C229.649 44.8974 230.456 45.4417 231.382 45.8341C232.311 46.2266 233.303 46.4191 234.358 46.4191Z" fill="#DCE4EF"/>
<path d="M301.562 48.9405V28.4177H316.69V31.1168H304.642V37.274H312.499V39.8843H304.642V46.2451H316.809V48.9405H301.562Z" fill="#DCE4EF"/>
<path d="M251.949 48.9405V28.4177H261.212C262.579 28.4177 263.778 28.6732 264.804 29.1804C265.829 29.6876 266.633 30.3985 267.207 31.3056C267.784 32.2127 268.073 33.2827 268.073 34.5157C268.073 35.8448 267.688 37.0037 266.914 37.9886C266.14 38.9771 265.13 39.6732 263.878 40.0842L268.421 48.9368H264.993L260.772 40.5211H255.026V48.9368H251.949V48.9405ZM255.026 37.9479H260.975C262.186 37.9479 263.156 37.6405 263.878 37.0259C264.6 36.4113 264.963 35.5746 264.963 34.5194C264.963 33.4642 264.6 32.657 263.878 32.0424C263.156 31.4278 262.186 31.1205 260.975 31.1205H255.026V37.9516V37.9479Z" fill="#DCE4EF"/>
<path d="M276.929 48.9405V28.4177H286.193C287.559 28.4177 288.759 28.6732 289.784 29.1804C290.81 29.6876 291.613 30.3985 292.187 31.3056C292.765 32.2127 293.054 33.2827 293.054 34.5157C293.054 35.8448 292.669 37.0037 291.895 37.9886C291.121 38.9771 290.11 39.6732 288.859 40.0842L293.402 48.9368H289.973L285.752 40.5211H280.006V48.9368H276.929V48.9405ZM280.006 37.9479H285.956C287.167 37.9479 288.137 37.6405 288.859 37.0259C289.581 36.4113 289.944 35.5746 289.944 34.5194C289.944 33.4642 289.581 32.657 288.859 32.0424C288.137 31.4278 287.167 31.1205 285.956 31.1205H280.006V37.9516V37.9479Z" fill="#DCE4EF"/>
<path d="M135.362 13.9373C138.856 13.9373 141.689 11.1044 141.689 7.60976C141.689 4.11516 138.856 1.28223 135.362 1.28223C131.867 1.28223 129.034 4.11516 129.034 7.60976C129.034 11.1044 131.867 13.9373 135.362 13.9373Z" fill="#DCE4EF"/>
<path d="M180.298 13.9373C183.793 13.9373 186.626 11.1044 186.626 7.60976C186.626 4.11516 183.793 1.28223 180.298 1.28223C176.804 1.28223 173.971 4.11516 173.971 7.60976C173.971 11.1044 176.804 13.9373 180.298 13.9373Z" fill="#DCE4EF"/>
<path d="M143.426 36.5779L141.008 34.1639L141.034 19.6909L150.675 29.3322L143.426 36.5779Z" fill="#725BFF"/>
<path d="M172.42 36.5779L174.789 34.2083L174.808 19.6909L165.17 29.3285L172.42 36.5779Z" fill="#FF7480"/>
<path d="M165.169 43.8282L157.92 36.5788L150.67 43.8282L157.92 51.0776L165.169 43.8282Z" fill="#28E8A3"/>
<path d="M172.419 36.5788L165.169 29.3294L157.92 36.5788L165.169 43.8282L172.419 36.5788Z" fill="#FBCE13"/>
<path d="M157.923 36.5786L150.674 29.3293L143.425 36.5786L150.674 43.828L157.923 36.5786Z" fill="#11D9ED"/>
<path d="M185.811 19.6909H174.789V56.2936H185.811V19.6909Z" fill="#DCE4EF"/>
<path d="M141.008 19.6909H129.986V56.2936H141.008V19.6909Z" fill="#DCE4EF"/>
</svg>
