<svg width="121" height="120" viewBox="0 0 121 120" fill="none" xmlns="http://www.w3.org/2000/svg">
<path d="M84.7998 57.3H79.3998V62.6946H84.7998V57.3Z" fill="#FBCE13"/>
<path d="M84.7998 51.9H79.3998V57.3H84.7998V51.9Z" fill="#FBCE13"/>
<path d="M84.7998 46.5H79.3998V51.9H84.7998V46.5Z" fill="#FBCE13"/>
<path d="M84.7998 41.1H79.3998V46.5H84.7998V41.1Z" fill="#FBCE13"/>
<path d="M84.7998 35.7H79.3998V41.1054H84.7998V35.7Z" fill="#FBCE13"/>
<path d="M84.7998 30.3H79.3998V35.7H84.7998V30.3Z" fill="#FBCE13"/>
<path d="M84.7998 24.9H79.3998V30.3H84.7998V24.9Z" fill="#FBCE13"/>
<path d="M84.7998 19.5H79.3998L79.3998 24.9H84.7998L84.7998 19.5Z" fill="#FBCE13"/>
<path d="M90.1998 95.1054H84.7998V100.5H90.1998V95.1054Z" fill="#725BFF"/>
<path d="M90.1998 89.7054H84.7998V95.1054H90.1998V89.7054Z" fill="#725BFF"/>
<path d="M90.1998 84.3054H84.7998V89.7054H90.1998V84.3054Z" fill="#725BFF"/>
<path d="M90.1998 78.9H84.7998V84.3054H90.1998V78.9Z" fill="#725BFF"/>
<path d="M90.1998 73.5H84.7998V78.9H90.1998V73.5Z" fill="#725BFF"/>
<path d="M90.1998 68.1H84.7998V73.5H90.1998V68.1Z" fill="#725BFF"/>
<path d="M90.1998 62.7H84.7998V68.1H90.1998V62.7Z" fill="#725BFF"/>
<path d="M84.7998 95.1054H79.3998V100.5H84.7998V95.1054Z" fill="#725BFF"/>
<path d="M84.7998 89.7054H79.3998V95.1054H84.7998V89.7054Z" fill="#725BFF"/>
<path d="M84.7998 84.3054H79.3998V89.7054H84.7998V84.3054Z" fill="#725BFF"/>
<path d="M84.7998 78.9H79.3998V84.3054H84.7998V78.9Z" fill="#725BFF"/>
<path d="M84.7998 73.5H79.3998V78.9H84.7998V73.5Z" fill="#725BFF"/>
<path d="M84.7998 68.1H79.3998V73.5H84.7998V68.1Z" fill="#725BFF"/>
<path d="M84.7998 62.7H79.3998V68.1H84.7998V62.7Z" fill="#725BFF"/>
<path d="M79.3998 95.1054H73.9998V100.5H79.3998V95.1054Z" fill="#725BFF"/>
<path d="M79.3998 89.7054H73.9998V95.1054H79.3998V89.7054Z" fill="#725BFF"/>
<path d="M79.3998 84.3054H73.9998V89.7054H79.3998V84.3054Z" fill="#725BFF"/>
<path d="M79.3998 78.9H73.9998V84.3054H79.3998V78.9Z" fill="#725BFF"/>
<path d="M79.3998 73.5H73.9998V78.9H79.3998V73.5Z" fill="#725BFF"/>
<path d="M79.3998 68.1H73.9998V73.5H79.3998V68.1Z" fill="#725BFF"/>
<path d="M79.3998 62.7L73.9998 62.7V68.1H79.3998V62.7Z" fill="#725BFF"/>
<path d="M63.1998 89.7054H57.7998V95.1054H63.1998V89.7054Z" fill="#28E8A3"/>
<path d="M63.1998 84.3054H57.7998V89.7054H63.1998V84.3054Z" fill="#28E8A3"/>
<path d="M63.1998 30.3H57.7998V35.7H63.1998V30.3Z" fill="#28E8A3"/>
<path d="M63.1998 24.9H57.7998V30.3H63.1998V24.9Z" fill="#28E8A3"/>
<path d="M57.7998 95.1054L52.3998 95.1054V100.5H57.7998V95.1054Z" fill="#28E8A3"/>
<path d="M57.7998 89.7054H52.3998V95.1054L57.7998 95.1054V89.7054Z" fill="#28E8A3"/>
<path d="M57.7998 84.3054H52.3998V89.7054H57.7998V84.3054Z" fill="#28E8A3"/>
<path d="M57.7998 78.9H52.3998V84.3054H57.7998V78.9Z" fill="#28E8A3"/>
<path d="M57.7998 35.7L52.3998 35.7V41.1054H57.7998V35.7Z" fill="#28E8A3"/>
<path d="M57.7998 30.3H52.3998V35.7L57.7998 35.7V30.3Z" fill="#28E8A3"/>
<path d="M57.7998 24.9H52.3998V30.3H57.7998V24.9Z" fill="#28E8A3"/>
<path d="M57.7998 19.5H52.3998V24.9H57.7998V19.5Z" fill="#28E8A3"/>
<path d="M52.3998 84.3054H46.9998V89.7054H52.3998V84.3054Z" fill="#28E8A3"/>
<path d="M52.3998 78.9H46.9998V84.3054H52.3998V78.9Z" fill="#28E8A3"/>
<path d="M52.3998 73.5H46.9998V78.9H52.3998L52.3998 73.5Z" fill="#28E8A3"/>
<path d="M52.3998 68.1H46.9998V73.5H52.3998V68.1Z" fill="#28E8A3"/>
<path d="M52.3998 62.7H46.9998V68.1H52.3998V62.7Z" fill="#28E8A3"/>
<path d="M52.3998 57.3H46.9998V62.6946H52.3998V57.3Z" fill="#28E8A3"/>
<path d="M52.3998 51.9H46.9998V57.3H52.3998V51.9Z" fill="#28E8A3"/>
<path d="M52.3998 46.5H46.9998V51.9H52.3998V46.5Z" fill="#28E8A3"/>
<path d="M52.3998 41.1H46.9998V46.5H52.3998V41.1Z" fill="#28E8A3"/>
<path d="M52.3998 35.7H46.9998V41.1054H52.3998V35.7Z" fill="#28E8A3"/>
<path d="M52.3998 30.3H46.9998V35.7H52.3998V30.3Z" fill="#28E8A3"/>
<path d="M46.9998 84.3054H41.5998V89.7054H46.9998V84.3054Z" fill="#28E8A3"/>
<path d="M46.9998 78.9H41.5998V84.3054H46.9998V78.9Z" fill="#28E8A3"/>
<path d="M46.9998 73.5H41.5998V78.9H46.9998V73.5Z" fill="#28E8A3"/>
<path d="M46.9998 68.1H41.5998V73.5H46.9998V68.1Z" fill="#28E8A3"/>
<path d="M46.9998 62.7H41.5998V68.1H46.9998V62.7Z" fill="#28E8A3"/>
<path d="M46.9998 57.3H41.5998V62.6946H46.9998V57.3Z" fill="#28E8A3"/>
<path d="M46.9998 51.9H41.5998V57.3H46.9998V51.9Z" fill="#28E8A3"/>
<path d="M46.9998 46.5H41.5998V51.9H46.9998V46.5Z" fill="#28E8A3"/>
<path d="M46.9998 41.1H41.5998V46.5H46.9998V41.1Z" fill="#28E8A3"/>
<path d="M46.9998 35.7H41.5998V41.1054H46.9998V35.7Z" fill="#28E8A3"/>
<path d="M46.9998 30.3H41.5998V35.7H46.9998V30.3Z" fill="#28E8A3"/>
<path d="M41.5998 95.1054H36.1998V100.5H41.5998V95.1054Z" fill="#28E8A3"/>
<path d="M41.5998 89.7054H36.1998V95.1054H41.5998L41.5998 89.7054Z" fill="#28E8A3"/>
<path d="M41.5998 84.3054H36.1998V89.7054H41.5998V84.3054Z" fill="#28E8A3"/>
<path d="M41.5998 78.9H36.1998V84.3054H41.5998V78.9Z" fill="#28E8A3"/>
<path d="M41.5998 35.7H36.1998V41.1054H41.5998V35.7Z" fill="#28E8A3"/>
<path d="M41.5998 30.3H36.1998V35.7H41.5998V30.3Z" fill="#28E8A3"/>
<path d="M41.5998 24.9H36.1998V30.3H41.5998L41.5998 24.9Z" fill="#28E8A3"/>
<path d="M41.5998 19.5H36.1998V24.9H41.5998V19.5Z" fill="#28E8A3"/>
<path d="M36.1998 89.7054H30.7998V95.1054L36.1998 95.1054V89.7054Z" fill="#28E8A3"/>
<path d="M36.1998 84.3054H30.7998V89.7054H36.1998V84.3054Z" fill="#28E8A3"/>
<path d="M36.1998 30.3H30.7998V35.7L36.1998 35.7V30.3Z" fill="#28E8A3"/>
<path d="M36.1998 24.9H30.7998V30.3H36.1998V24.9Z" fill="#28E8A3"/>
</svg>
