<svg width="53" height="50" viewBox="0 0 53 50" fill="none" xmlns="http://www.w3.org/2000/svg">
<path d="M5.91012 11.6065C9.06444 11.6065 11.6215 9.04939 11.6215 5.89507C11.6215 2.74075 9.06444 0.183675 5.91012 0.183675C2.7558 0.183675 0.19873 2.74075 0.19873 5.89507C0.19873 9.04939 2.7558 11.6065 5.91012 11.6065Z" fill="white"/>
<path d="M46.4579 11.6064C49.6122 11.6064 52.1693 9.0493 52.1693 5.89499C52.1693 2.74067 49.6122 0.183594 46.4579 0.183594C43.3036 0.183594 40.7465 2.74067 40.7465 5.89499C40.7465 9.0493 43.3036 11.6064 46.4579 11.6064Z" fill="white"/>
<path d="M13.5589 30.5108L11.5883 28.5402L11.6217 16.7834L19.4373 24.6324L13.5589 30.5108Z" fill="white"/>
<path d="M39.0095 30.5109L40.9133 28.5737L40.9467 16.7835L33.0977 24.6325L39.0095 30.5109Z" fill="white"/>
<path d="M26.2312 31.4313L20.3505 37.312L26.2312 43.1927L32.1119 37.312L26.2312 31.4313Z" fill="white"/>
<path d="M32.6513 25.1563L26.7706 31.0369L32.6513 36.9176L38.5319 31.0369L32.6513 25.1563Z" fill="white"/>
<path d="M19.8227 25.1402L13.942 31.0209L19.8227 36.9016L25.7033 31.0209L19.8227 25.1402Z" fill="white"/>
<path d="M51.4344 16.7834H41.4812V49.816H51.4344V16.7834Z" fill="white"/>
<path d="M11.0204 16.7834H1.06725V49.816H11.0204V16.7834Z" fill="white"/>
</svg>
