<svg width="60" height="60" viewBox="0 0 60 60" fill="none" xmlns="http://www.w3.org/2000/svg">
<path d="M49.0362 31.5373H46.1077V34.4657H49.0362V31.5373Z" fill="#11D9ED"/>
<path d="M49.0362 28.6088H46.1077V31.5373H49.0362V28.6088Z" fill="#11D9ED"/>
<path d="M49.0362 25.6804H46.1077V28.6088H49.0362V25.6804Z" fill="#11D9ED"/>
<path d="M49.0362 22.749H46.1077V25.6804H49.0362V22.749Z" fill="#11D9ED"/>
<path d="M46.1077 34.4657L43.1793 34.4657V37.3913H46.1077V34.4657Z" fill="#11D9ED"/>
<path d="M46.1077 19.8205H43.1793V22.749L46.1077 22.749V19.8205Z" fill="#11D9ED"/>
<path d="M43.1764 37.3912H40.2479V40.3197H43.1764V37.3912Z" fill="#11D9ED"/>
<path d="M43.1764 16.8921H40.2479V19.8205H43.1764V16.8921Z" fill="#11D9ED"/>
<path d="M40.2479 37.3912H37.3194V40.3197H40.2479V37.3912Z" fill="#11D9ED"/>
<path d="M40.2479 16.8921H37.3194V19.8205H40.2479V16.8921Z" fill="#11D9ED"/>
<path d="M37.3194 40.3197L34.391 40.3197V43.2481H37.3194L37.3194 40.3197Z" fill="#11D9ED"/>
<path d="M37.3194 13.9636H34.391V16.8921L37.3194 16.8921L37.3194 13.9636Z" fill="#11D9ED"/>
<path d="M34.391 13.9636H31.4625V16.8921H34.391V13.9636Z" fill="#11D9ED"/>
<path d="M34.391 40.3197L31.4625 40.3197V43.2481L34.391 43.2481V40.3197Z" fill="#11D9ED"/>
<path d="M31.4625 40.3197L28.5341 40.3197V43.2481L31.4625 43.2481V40.3197Z" fill="#11D9ED"/>
<path d="M28.5341 40.3197L25.6056 40.3197V43.2481L28.5341 43.2481V40.3197Z" fill="#11D9ED"/>
<path d="M25.6056 40.3197L22.6772 40.3197V43.2481L25.6056 43.2481V40.3197Z" fill="#11D9ED"/>
<path d="M31.4625 13.9636H28.5341V16.8921H31.4625V13.9636Z" fill="#11D9ED"/>
<path d="M28.5341 43.2481L25.6056 43.2481L25.6056 46.1766H28.5341L28.5341 43.2481Z" fill="#11D9ED"/>
<path d="M28.5341 13.9636H25.6056V16.8921H28.5341V13.9636Z" fill="#11D9ED"/>
<path d="M25.6056 46.1766H22.6772V49.108H25.6056L25.6056 46.1766Z" fill="#11D9ED"/>
<path d="M25.6056 13.9636H22.6772V16.8921H25.6056V13.9636Z" fill="#11D9ED"/>
<path d="M37.3194 16.8921L34.391 16.8921L34.391 19.8205L37.3194 19.8205V16.8921Z" fill="#11D9ED"/>
<path d="M34.391 16.8921H31.4625L31.4625 19.8205H34.391L34.391 16.8921Z" fill="#11D9ED"/>
<path d="M31.4625 16.8921H28.5341L28.5341 19.8205H31.4625L31.4625 16.8921Z" fill="#11D9ED"/>
<path d="M28.5341 16.8921H25.6056L25.6056 19.8205H28.5341L28.5341 16.8921Z" fill="#11D9ED"/>
<path d="M25.6056 16.8921H22.6772V19.8205L25.6056 19.8205L25.6056 16.8921Z" fill="#11D9ED"/>
<path d="M37.3194 37.3912L34.391 37.3912L34.391 40.3197L37.3194 40.3197V37.3912Z" fill="#11D9ED"/>
<path d="M34.391 37.3912H31.4625L31.4625 40.3197L34.391 40.3197L34.391 37.3912Z" fill="#11D9ED"/>
<path d="M31.4625 37.3912H28.5341L28.5341 40.3197L31.4625 40.3197L31.4625 37.3912Z" fill="#11D9ED"/>
<path d="M28.5341 37.3912H25.6056V40.3197L28.5341 40.3197L28.5341 37.3912Z" fill="#11D9ED"/>
<path d="M25.6056 37.3912L22.6772 37.3912V40.3197L25.6056 40.3197V37.3912Z" fill="#11D9ED"/>
<path d="M22.6772 49.108L19.7487 49.108V52.0364H22.6772L22.6772 49.108Z" fill="#11D9ED"/>
<path d="M22.6772 46.1766H19.7487V49.108L22.6772 49.108V46.1766Z" fill="#11D9ED"/>
<path d="M25.6056 43.2481L22.6772 43.2481L22.6772 46.1795H25.6056L25.6056 43.2481Z" fill="#11D9ED"/>
<path d="M22.6772 43.2481L19.7487 43.2481V46.1766H22.6772V43.2481Z" fill="#11D9ED"/>
<path d="M19.7487 28.6088H16.8203V31.5402H19.7487V28.6088Z" fill="#11D9ED"/>
<path d="M16.8203 28.6088L13.8918 28.6088V31.5373H16.8203L16.8203 28.6088Z" fill="#11D9ED"/>
<path d="M46.1077 28.6088L43.1793 28.6088V31.5402H46.1077V28.6088Z" fill="#11D9ED"/>
<path d="M43.1793 28.6088L40.2508 28.6088V31.5373H43.1793V28.6088Z" fill="#11D9ED"/>
<path d="M37.3195 28.6088H34.391V31.5402H37.3195V28.6088Z" fill="#11D9ED"/>
<path d="M34.391 28.6088L31.4625 28.6088V31.5373H34.391L34.391 28.6088Z" fill="#11D9ED"/>
<path d="M28.5341 28.6088H25.6056V31.5402H28.5341V28.6088Z" fill="#11D9ED"/>
<path d="M25.6056 28.6088L22.6772 28.6088V31.5373H25.6056L25.6056 28.6088Z" fill="#11D9ED"/>
<path d="M22.6772 40.3197H19.7487V43.2481L22.6772 43.2481V40.3197Z" fill="#11D9ED"/>
<path d="M22.6772 37.3912H19.7487V40.3197H22.6772V37.3912Z" fill="#11D9ED"/>
<path d="M22.6772 16.8921L19.7487 16.8921V19.8205H22.6772V16.8921Z" fill="#11D9ED"/>
<path d="M19.7487 37.3912H16.8203V40.3197L19.7487 40.3197V37.3912Z" fill="#11D9ED"/>
<path d="M19.7487 16.8921H16.8203V19.8205H19.7487V16.8921Z" fill="#11D9ED"/>
<path d="M43.1764 19.8205H40.2479L40.2479 22.749H43.1764L43.1764 19.8205Z" fill="#11D9ED"/>
<path d="M40.2479 19.8205H37.3194L37.3195 22.749H40.2479L40.2479 19.8205Z" fill="#11D9ED"/>
<path d="M37.3194 19.8205L34.391 19.8205L34.391 22.749L37.3195 22.749L37.3194 19.8205Z" fill="#11D9ED"/>
<path d="M34.391 19.8205H31.4625L31.4625 22.749H34.391L34.391 19.8205Z" fill="#11D9ED"/>
<path d="M31.4625 19.8205H28.5341L28.5341 22.749H31.4625L31.4625 19.8205Z" fill="#11D9ED"/>
<path d="M28.5341 19.8205H25.6056L25.6056 22.749H28.5341L28.5341 19.8205Z" fill="#11D9ED"/>
<path d="M25.6056 19.8205L22.6772 19.8205L22.6772 22.749L25.6056 22.749L25.6056 19.8205Z" fill="#11D9ED"/>
<path d="M22.6772 19.8205H19.7487L19.7488 22.749H22.6772L22.6772 19.8205Z" fill="#11D9ED"/>
<path d="M19.7487 19.8205H16.8203V22.749L19.7488 22.749L19.7487 19.8205Z" fill="#11D9ED"/>
<path d="M43.1764 34.4628H40.2479L40.2479 37.3912H43.1764L43.1764 34.4628Z" fill="#11D9ED"/>
<path d="M40.2479 34.4628H37.3195L37.3194 37.3912H40.2479L40.2479 34.4628Z" fill="#11D9ED"/>
<path d="M37.3195 34.4628L34.391 34.4628L34.391 37.3912L37.3194 37.3912L37.3195 34.4628Z" fill="#11D9ED"/>
<path d="M34.391 34.4628H31.4625L31.4625 37.3912H34.391L34.391 34.4628Z" fill="#11D9ED"/>
<path d="M31.4625 34.4628H28.5341L28.5341 37.3912H31.4625L31.4625 34.4628Z" fill="#11D9ED"/>
<path d="M28.5341 34.4628H25.6056L25.6056 37.3912H28.5341L28.5341 34.4628Z" fill="#11D9ED"/>
<path d="M25.6056 34.4628L22.6772 34.4628L22.6772 37.3912L25.6056 37.3912L25.6056 34.4628Z" fill="#11D9ED"/>
<path d="M22.6772 34.4628H19.7488L19.7487 37.3912H22.6772L22.6772 34.4628Z" fill="#11D9ED"/>
<path d="M19.7488 34.4628L16.8203 34.4628V37.3912H19.7487L19.7488 34.4628Z" fill="#11D9ED"/>
<path d="M16.8203 34.4657H13.8918V37.3913L16.8203 37.3912L16.8203 34.4657Z" fill="#11D9ED"/>
<path d="M16.8203 19.8205L13.8918 19.8205V22.749H16.8203V19.8205Z" fill="#11D9ED"/>
<path d="M46.1077 22.749L43.1793 22.749V25.6774H46.1077L46.1077 22.749Z" fill="#11D9ED"/>
<path d="M43.1764 22.749H40.2479L40.2479 25.6774H43.1764L43.1764 22.749Z" fill="#11D9ED"/>
<path d="M40.2479 22.749H37.3195L37.3195 25.6774H40.2479L40.2479 22.749Z" fill="#11D9ED"/>
<path d="M37.3195 22.749L34.391 22.749L34.391 25.6775L37.3195 25.6774L37.3195 22.749Z" fill="#11D9ED"/>
<path d="M34.391 22.749H31.4625L31.4625 25.6775H34.391L34.391 22.749Z" fill="#11D9ED"/>
<path d="M31.4625 22.749H28.5341L28.5341 25.6775H31.4625L31.4625 22.749Z" fill="#11D9ED"/>
<path d="M28.5341 22.749H25.6056L25.6056 25.6775H28.5341L28.5341 22.749Z" fill="#11D9ED"/>
<path d="M25.6056 22.749L22.6772 22.749L22.6772 25.6774L25.6056 25.6775L25.6056 22.749Z" fill="#11D9ED"/>
<path d="M22.6772 22.749H19.7488L19.7488 25.6774H22.6772L22.6772 22.749Z" fill="#11D9ED"/>
<path d="M19.7488 22.749L16.8203 22.749L16.8203 25.6774L19.7488 25.6774L19.7488 22.749Z" fill="#11D9ED"/>
<path d="M16.8203 22.749H13.8918V25.6774L16.8203 25.6774L16.8203 22.749Z" fill="#11D9ED"/>
<path d="M46.1077 25.6804L43.1793 25.6804V28.6088L46.1077 28.6088V25.6804Z" fill="#11D9ED"/>
<path d="M43.1764 25.6804H40.2479V28.6088H43.1764V25.6804Z" fill="#11D9ED"/>
<path d="M40.2479 25.6804H37.3195L37.3195 28.6088L40.2479 28.6088V25.6804Z" fill="#11D9ED"/>
<path d="M37.3195 25.6804L34.391 25.6804L34.391 28.6088H37.3195L37.3195 25.6804Z" fill="#11D9ED"/>
<path d="M34.391 25.6804H31.4625L31.4625 28.6088L34.391 28.6088L34.391 25.6804Z" fill="#11D9ED"/>
<path d="M31.4625 25.6804H28.5341L28.5341 28.6088L31.4625 28.6088L31.4625 25.6804Z" fill="#11D9ED"/>
<path d="M28.5341 25.6804H25.6056L25.6056 28.6088H28.5341L28.5341 25.6804Z" fill="#11D9ED"/>
<path d="M25.6056 25.6804L22.6772 25.6804L22.6772 28.6088L25.6056 28.6088L25.6056 25.6804Z" fill="#11D9ED"/>
<path d="M22.6772 25.6804H19.7488L19.7487 28.6088L22.6772 28.6088L22.6772 25.6804Z" fill="#11D9ED"/>
<path d="M19.7488 25.6804L16.8203 25.6804V28.6088H19.7487L19.7488 25.6804Z" fill="#11D9ED"/>
<path d="M16.8203 25.6804L13.8918 25.6804V28.6088L16.8203 28.6088V25.6804Z" fill="#11D9ED"/>
<path d="M46.1077 31.5373L43.1793 31.5373V34.4657L46.1077 34.4657V31.5373Z" fill="#11D9ED"/>
<path d="M43.1764 31.5372H40.2479V34.4657H43.1764V31.5372Z" fill="#11D9ED"/>
<path d="M40.2479 31.5372H37.3195V34.4657H40.2479V31.5372Z" fill="#11D9ED"/>
<path d="M37.3195 31.5372L34.391 31.5373L34.391 34.4657L37.3195 34.4657V31.5372Z" fill="#11D9ED"/>
<path d="M34.391 31.5373H31.4625L31.4625 34.4657H34.391L34.391 31.5373Z" fill="#11D9ED"/>
<path d="M31.4625 31.5373L28.5341 31.5372V34.4657H31.4625L31.4625 31.5373Z" fill="#11D9ED"/>
<path d="M28.5341 31.5372L25.6056 31.5373L25.6056 34.4657H28.5341V31.5372Z" fill="#11D9ED"/>
<path d="M25.6056 31.5373H22.6772L22.6772 34.4657L25.6056 34.4657L25.6056 31.5373Z" fill="#11D9ED"/>
<path d="M22.6772 31.5373L19.7488 31.5372V34.4657H22.6772L22.6772 31.5373Z" fill="#11D9ED"/>
<path d="M19.7488 31.5372L16.8203 31.5373V34.4657L19.7488 34.4657V31.5372Z" fill="#11D9ED"/>
<path d="M16.8203 31.5373H13.8918V34.4657H16.8203V31.5373Z" fill="#11D9ED"/>
<path d="M13.8918 31.5373L10.9634 31.5373V34.4657L13.8918 34.4657V31.5373Z" fill="#11D9ED"/>
<path d="M13.8918 28.6088H10.9634V31.5373L13.8918 31.5373V28.6088Z" fill="#11D9ED"/>
<path d="M13.8918 25.6804H10.9634V28.6088H13.8918V25.6804Z" fill="#11D9ED"/>
<path d="M13.8918 22.749L10.9634 22.749V25.6804H13.8918V22.749Z" fill="#11D9ED"/>
</svg>
