<svg width="121" height="120" viewBox="0 0 121 120" fill="none" xmlns="http://www.w3.org/2000/svg">
<path d="M91.8647 61.5895H85.65V67.7979H91.8647V61.5895Z" fill="#28E8A3"/>
<path d="M91.8647 55.3749H85.65V61.5895H91.8647V55.3749Z" fill="#28E8A3"/>
<path d="M91.8647 24.2892H85.65V30.5039H91.8647V24.2892Z" fill="#28E8A3"/>
<path d="M91.8647 18.0746H85.65V24.2892H91.8647V18.0746Z" fill="#28E8A3"/>
<path d="M85.65 67.7917H79.4354V74.0064H85.65V67.7917Z" fill="#28E8A3"/>
<path d="M85.65 55.3749H79.4354V61.5895H85.65V55.3749Z" fill="#28E8A3"/>
<path d="M85.65 30.5039L79.4354 30.5039V36.7185H85.65L85.65 30.5039Z" fill="#28E8A3"/>
<path d="M85.65 18.0746H79.4354V24.2892L85.65 24.2892V18.0746Z" fill="#28E8A3"/>
<path d="M79.4354 74.0064L73.2208 74.0064V80.221H79.4354V74.0064Z" fill="#28E8A3"/>
<path d="M79.4354 55.3749H73.2208V61.5895H79.4354V55.3749Z" fill="#28E8A3"/>
<path d="M79.4354 36.7185L73.2208 36.7185V42.9394H79.4354V36.7185Z" fill="#28E8A3"/>
<path d="M79.4354 18.0746H73.2208V24.2892H79.4354V18.0746Z" fill="#28E8A3"/>
<path d="M73.2208 80.221L67.0061 80.221V86.4356H73.2208L73.2208 80.221Z" fill="#28E8A3"/>
<path d="M73.2208 55.3749H67.0061V61.5895H73.2208V55.3749Z" fill="#28E8A3"/>
<path d="M73.2208 42.9456H67.0061V49.1602H73.2208V42.9456Z" fill="#28E8A3"/>
<path d="M73.2208 18.0746H67.0061V24.2892H73.2208V18.0746Z" fill="#28E8A3"/>
<path d="M67.0061 86.4356H60.7915V92.6565H67.0061L67.0061 86.4356Z" fill="#28E8A3"/>
<path d="M67.0061 55.3749H60.7915V61.5895H67.0061V55.3749Z" fill="#28E8A3"/>
<path d="M67.0061 49.1602H60.7915V55.3749H67.0061V49.1602Z" fill="#28E8A3"/>
<path d="M67.0061 18.0746H60.7915V24.2892H67.0061V18.0746Z" fill="#28E8A3"/>
<path d="M60.7915 92.6627H54.5768V98.8774H60.7915V92.6627Z" fill="#28E8A3"/>
<path d="M60.7915 74.0064H54.5768V80.221H60.7915V74.0064Z" fill="#28E8A3"/>
<path d="M60.7915 55.3749H54.5768V61.5895H60.7915V55.3749Z" fill="#28E8A3"/>
<path d="M60.7915 18.0746H54.5768V24.2892H60.7915V18.0746Z" fill="#28E8A3"/>
<path d="M54.5768 98.8774L48.3622 98.8774V105.092H54.5768V98.8774Z" fill="#28E8A3"/>
<path d="M54.5768 80.221L48.3622 80.221V86.4356H54.5768V80.221Z" fill="#28E8A3"/>
<path d="M54.5768 74.0064H48.3622V80.221L54.5768 80.221V74.0064Z" fill="#28E8A3"/>
<path d="M54.5768 18.0746H48.3622V24.2892H54.5768V18.0746Z" fill="#28E8A3"/>
<path d="M48.3622 105.092L42.1475 105.092V111.3H48.3622L48.3622 105.092Z" fill="#28E8A3"/>
<path d="M48.3622 92.6627H42.1475V98.8774L48.3622 98.8774L48.3622 92.6627Z" fill="#28E8A3"/>
<path d="M48.3622 86.4356H42.1475V92.6565H48.3622L48.3622 86.4356Z" fill="#28E8A3"/>
<path d="M48.3622 74.0064H42.1475V80.221L48.3622 80.221V74.0064Z" fill="#28E8A3"/>
<path d="M48.3622 36.7185H42.1475V42.9394H48.3622V36.7185Z" fill="#28E8A3"/>
<path d="M48.3622 30.5039H42.1475V36.7185H48.3622V30.5039Z" fill="#28E8A3"/>
<path d="M48.3622 24.2892L42.1475 24.2892V30.5039H48.3622L48.3622 24.2892Z" fill="#28E8A3"/>
<path d="M42.1475 105.092H35.9329V111.3H42.1475V105.092Z" fill="#28E8A3"/>
<path d="M42.1475 98.8774L35.9329 98.8774V105.092H42.1475V98.8774Z" fill="#28E8A3"/>
<path d="M42.1475 74.0064H35.9329V80.221H42.1475V74.0064Z" fill="#28E8A3"/>
<path d="M42.1475 55.3749H35.9329V61.5895H42.1475V55.3749Z" fill="#28E8A3"/>
<path d="M42.1475 49.1602H35.9329V55.3749H42.1475V49.1602Z" fill="#28E8A3"/>
<path d="M42.1475 42.9456H35.9329V49.1602H42.1475V42.9456Z" fill="#28E8A3"/>
<path d="M35.9329 74.0064H29.7183V80.221H35.9329V74.0064Z" fill="#28E8A3"/>
<path d="M35.9329 67.7917H29.7183V74.0064H35.9329L35.9329 67.7917Z" fill="#28E8A3"/>
<path d="M35.9329 61.5895H29.7183V67.7979H35.9329L35.9329 61.5895Z" fill="#28E8A3"/>
</svg>
