<svg width="166" height="165" viewBox="0 0 166 165" fill="none" xmlns="http://www.w3.org/2000/svg">
<path d="M91.539 126.246H82.7373V135.048H91.539V126.246Z" fill="#725BFF"/>
<path d="M82.7373 126.246L73.9355 126.246V135.048H82.7373V126.246Z" fill="#725BFF"/>
<path d="M82.7373 117.444L73.9355 117.444V126.246L82.7373 126.246V117.444Z" fill="#725BFF"/>
<path d="M73.9355 117.444H65.1338V126.246H73.9355V117.444Z" fill="#725BFF"/>
<path d="M73.9355 108.643H65.1338V117.444H73.9355L73.9355 108.643Z" fill="#725BFF"/>
<path d="M65.1338 108.643H56.332V117.444L65.1338 117.444V108.643Z" fill="#725BFF"/>
<path d="M65.1338 99.8408H56.332L56.332 108.643H65.1338L65.1338 99.8408Z" fill="#725BFF"/>
<path d="M144.349 38.2285H135.548V47.0303H144.349V38.2285Z" fill="#28E8A3"/>
<path d="M144.349 29.4268H135.548V38.2285H144.349V29.4268Z" fill="#28E8A3"/>
<path d="M144.349 20.625H135.548V29.4268H144.349V20.625Z" fill="#28E8A3"/>
<path d="M135.548 47.0303L126.746 47.0303V55.832H135.548L135.548 47.0303Z" fill="#28E8A3"/>
<path d="M135.548 38.2285H126.746V47.0303L135.548 47.0303V38.2285Z" fill="#28E8A3"/>
<path d="M135.548 20.625H126.746V29.4268H135.548V20.625Z" fill="#28E8A3"/>
<path d="M126.746 55.832L117.944 55.832V64.6338H126.746L126.746 55.832Z" fill="#28E8A3"/>
<path d="M126.746 47.0303H117.944V55.832L126.746 55.832V47.0303Z" fill="#28E8A3"/>
<path d="M126.746 29.4268H117.944V38.2285H126.746V29.4268Z" fill="#28E8A3"/>
<path d="M126.746 20.625L117.944 20.625V29.4268H126.746V20.625Z" fill="#28E8A3"/>
<path d="M117.944 64.6338H109.142V73.4355H117.944V64.6338Z" fill="#28E8A3"/>
<path d="M117.944 55.832H109.142V64.6338H117.944V55.832Z" fill="#28E8A3"/>
<path d="M117.944 38.2285H109.142V47.0303L117.944 47.0303V38.2285Z" fill="#28E8A3"/>
<path d="M117.944 29.4268L109.142 29.4268V38.2285H117.944V29.4268Z" fill="#28E8A3"/>
<path d="M109.142 73.4355L100.341 73.4355L100.341 82.2373L109.142 82.2373L109.142 73.4355Z" fill="#28E8A3"/>
<path d="M109.142 64.6338L100.341 64.6338V73.4355L109.142 73.4355V64.6338Z" fill="#28E8A3"/>
<path d="M109.142 47.0303L100.341 47.0303V55.832L109.142 55.832V47.0303Z" fill="#28E8A3"/>
<path d="M109.142 38.2285H100.341V47.0303L109.142 47.0303V38.2285Z" fill="#28E8A3"/>
<path d="M100.341 82.2373H91.539V91.039H100.341L100.341 82.2373Z" fill="#28E8A3"/>
<path d="M100.341 73.4355H91.539L91.539 82.2373H100.341L100.341 73.4355Z" fill="#28E8A3"/>
<path d="M100.341 55.832L91.539 55.832V64.6338H100.341V55.832Z" fill="#28E8A3"/>
<path d="M100.341 47.0303L91.539 47.0303V55.832L100.341 55.832V47.0303Z" fill="#28E8A3"/>
<path d="M91.539 91.039L82.7372 91.039V99.8408H91.539V91.039Z" fill="#28E8A3"/>
<path d="M91.539 82.2373H82.7372V91.039L91.539 91.039V82.2373Z" fill="#28E8A3"/>
<path d="M91.539 64.6338H82.7372V73.4355L91.539 73.4355V64.6338Z" fill="#28E8A3"/>
<path d="M91.539 55.832H82.7372V64.6338H91.539V55.832Z" fill="#28E8A3"/>
<path d="M82.7372 99.8408L73.9355 99.8408L73.9355 108.643L82.7372 108.643L82.7372 99.8408Z" fill="#28E8A3"/>
<path d="M82.7372 91.039L73.9355 91.039V99.8408L82.7372 99.8408V91.039Z" fill="#28E8A3"/>
<path d="M82.7372 73.4355L73.9355 73.4355V82.2373H82.7372V73.4355Z" fill="#28E8A3"/>
<path d="M82.7372 64.6338H73.9355V73.4355L82.7372 73.4355V64.6338Z" fill="#28E8A3"/>
<path d="M73.9355 91.039H65.1337L65.1338 99.8408L73.9355 99.8408V91.039Z" fill="#28E8A3"/>
<path d="M73.9355 82.2373H65.1337V91.039H73.9355V82.2373Z" fill="#28E8A3"/>
<path d="M73.9355 73.4355H65.1337V82.2373H73.9355V73.4355Z" fill="#28E8A3"/>
<path d="M65.1337 82.2373H56.332V91.039L65.1337 91.039V82.2373Z" fill="#28E8A3"/>
<path d="M56.332 108.643H47.5303V117.444H56.332V108.643Z" fill="#725BFF"/>
<path d="M56.332 99.8408H47.5303V108.643H56.332L56.332 99.8408Z" fill="#725BFF"/>
<path d="M56.332 91.039L47.5303 91.039L47.5303 99.8408H56.332L56.332 91.039Z" fill="#725BFF"/>
<path d="M47.5303 117.444L38.7285 117.444V126.246H47.5303L47.5303 117.444Z" fill="#FBCE13"/>
<path d="M47.5303 91.039H38.7285L38.7285 99.8408H47.5303L47.5303 91.039Z" fill="#725BFF"/>
<path d="M47.5303 82.2373H38.7285V91.039H47.5303L47.5303 82.2373Z" fill="#725BFF"/>
<path d="M38.7285 135.048H29.9268V143.85H38.7285V135.048Z" fill="#28E8A3"/>
<path d="M38.7285 126.246H29.9268V135.048H38.7285V126.246Z" fill="#28E8A3"/>
<path d="M38.7285 82.2373H29.9268V91.039H38.7285V82.2373Z" fill="#725BFF"/>
<path d="M38.7285 73.4355H29.9268V82.2373H38.7285V73.4355Z" fill="#725BFF"/>
<path d="M29.9268 135.048H21.125V143.85H29.9268V135.048Z" fill="#28E8A3"/>
<path d="M29.9268 126.246H21.125V135.048H29.9268V126.246Z" fill="#28E8A3"/>
</svg>
