<svg width="166" height="165" viewBox="0 0 166 165" fill="none" xmlns="http://www.w3.org/2000/svg">
<path d="M134.734 127.973H124.594V138.074H134.734V127.973Z" fill="#28E8A3"/>
<path d="M134.734 117.851H124.594V127.963H134.734V117.851Z" fill="#28E8A3"/>
<path d="M134.734 107.749H124.594V117.851H134.734V107.749Z" fill="#28E8A3"/>
<path d="M124.594 138.074L114.453 138.074V148.176H124.594V138.074Z" fill="#28E8A3"/>
<path d="M124.594 97.6474H114.453V107.749L124.594 107.749V97.6474Z" fill="#28E8A3"/>
<path d="M144.875 57.2508H134.734V67.3525H144.875V57.2508Z" fill="#FBCE13"/>
<path d="M134.734 67.3525L124.594 67.3525V77.4542H134.734V67.3525Z" fill="#FBCE13"/>
<path d="M134.734 47.1491H124.594V57.2508L134.734 57.2508V47.1491Z" fill="#FBCE13"/>
<path d="M124.594 57.2508L114.453 57.2508V67.3525L124.594 67.3525V57.2508Z" fill="#FBCE13"/>
<path d="M114.453 148.176L104.313 148.176V158.268H114.453V148.176Z" fill="#28E8A3"/>
<path d="M114.453 87.5458H104.313V97.6474L114.453 97.6474V87.5458Z" fill="#28E8A3"/>
<path d="M104.313 148.176H94.1719V158.268H104.313V148.176Z" fill="#28E8A3"/>
<path d="M104.313 77.4542H94.1719V87.5458L104.313 87.5458L104.313 77.4542Z" fill="#28E8A3"/>
<path d="M104.313 67.3525H94.1719V77.4542H104.313V67.3525Z" fill="#28E8A3"/>
<path d="M104.313 57.2508H94.1719V67.3525H104.313V57.2508Z" fill="#28E8A3"/>
<path d="M104.313 47.1491H94.1719V57.2508H104.313V47.1491Z" fill="#28E8A3"/>
<path d="M94.1719 148.176H84.0312V158.268H94.1719V148.176Z" fill="#28E8A3"/>
<path d="M94.1719 47.1491H84.0312V57.2508L94.1719 57.2508V47.1491Z" fill="#28E8A3"/>
<path d="M114.453 16.834H104.313V26.9356H114.453V16.834Z" fill="#FBCE13"/>
<path d="M104.313 26.9356L94.1719 26.9356V37.0373H104.313V26.9356Z" fill="#FBCE13"/>
<path d="M104.313 6.7323H94.1719V16.834L104.313 16.834V6.7323Z" fill="#FBCE13"/>
<path d="M94.1719 16.834L84.0313 16.834V26.9356L94.1719 26.9356V16.834Z" fill="#FBCE13"/>
<path d="M84.0312 148.176H73.8906V158.268H84.0312V148.176Z" fill="#28E8A3"/>
<path d="M84.0312 47.1491H73.8906V57.2508H84.0312V47.1491Z" fill="#28E8A3"/>
<path d="M73.8906 148.176H63.75V158.268H73.8906V148.176Z" fill="#28E8A3"/>
<path d="M73.8906 77.4542H63.75V87.5458H73.8906V77.4542Z" fill="#28E8A3"/>
<path d="M73.8906 67.3525H63.75V77.4542H73.8906V67.3525Z" fill="#28E8A3"/>
<path d="M73.8906 57.2508L63.75 57.2508V67.3525H73.8906L73.8906 57.2508Z" fill="#28E8A3"/>
<path d="M73.8906 47.1491H63.75V57.2508L73.8906 57.2508V47.1491Z" fill="#28E8A3"/>
<path d="M63.75 148.176H53.6094V158.268H63.75V148.176Z" fill="#28E8A3"/>
<path d="M63.75 87.5458L53.6094 87.5458V97.6474H63.75L63.75 87.5458Z" fill="#28E8A3"/>
<path d="M114.453 117.851H104.313V127.963H114.453V117.851Z" fill="#725BFF"/>
<path d="M104.313 127.973H94.1719V138.074H104.313V127.973Z" fill="#725BFF"/>
<path d="M104.313 117.851H94.1719V127.963H104.313V117.851Z" fill="#725BFF"/>
<path d="M94.1719 127.973H84.0313V138.074H94.1719V127.973Z" fill="#725BFF"/>
<path d="M94.1719 117.851H84.0313V127.963H94.1719V117.851Z" fill="#725BFF"/>
<path d="M84.0313 127.973H73.8906V138.074H84.0313V127.973Z" fill="#725BFF"/>
<path d="M84.0313 117.851H73.8906V127.963H84.0313V117.851Z" fill="#725BFF"/>
<path d="M73.8906 127.973H63.75V138.074H73.8906V127.973Z" fill="#725BFF"/>
<path d="M73.8906 117.851H63.75V127.963H73.8906V117.851Z" fill="#725BFF"/>
<path d="M63.75 117.851L53.6094 117.851V127.963L63.75 127.963V117.851Z" fill="#725BFF"/>
<path d="M53.6094 138.074H43.4687V148.176L53.6094 148.176L53.6094 138.074Z" fill="#28E8A3"/>
<path d="M53.6094 97.6474L43.4687 97.6474V107.749H53.6094L53.6094 97.6474Z" fill="#28E8A3"/>
<path d="M43.4688 127.973H33.3281V138.074L43.4687 138.074L43.4688 127.973Z" fill="#28E8A3"/>
<path d="M43.4688 117.851H33.3281V127.963H43.4688V117.851Z" fill="#28E8A3"/>
<path d="M43.4687 107.749L33.3281 107.749V117.851H43.4688L43.4687 107.749Z" fill="#28E8A3"/>
<path d="M73.8906 26.9356H63.75V37.0373H73.8906V26.9356Z" fill="#FBCE13"/>
<path d="M63.75 26.9356H53.6094V37.0373H63.75V26.9356Z" fill="#FBCE13"/>
<path d="M53.6094 47.1491H43.4687V57.2508H53.6094V47.1491Z" fill="#FBCE13"/>
<path d="M53.6094 37.0373L43.4687 37.0373V47.1491H53.6094L53.6094 37.0373Z" fill="#FBCE13"/>
<path d="M53.6094 16.834H43.4687V26.9356L53.6094 26.9356L53.6094 16.834Z" fill="#FBCE13"/>
<path d="M53.6094 6.7323H43.4687V16.834H53.6094V6.7323Z" fill="#FBCE13"/>
<path d="M43.4687 26.9356L33.3281 26.9356V37.0373L43.4687 37.0373V26.9356Z" fill="#FBCE13"/>
<path d="M33.3281 26.9356H23.1875V37.0373H33.3281V26.9356Z" fill="#FBCE13"/>
</svg>
