<svg width="60" height="60" viewBox="0 0 60 60" fill="none" xmlns="http://www.w3.org/2000/svg">
<path d="M49.0006 21.7829C48.6079 21.4551 48.1309 21.2442 47.6241 21.1744C47.1173 21.1046 46.6011 21.1787 46.1343 21.3882L37.4497 25.2499L32.4037 16.1534C32.1625 15.7287 31.8131 15.3755 31.391 15.1298C30.9689 14.8841 30.4892 14.7546 30.0008 14.7546C29.5124 14.7546 29.0327 14.8841 28.6107 15.1298C28.1886 15.3755 27.8391 15.7287 27.5979 16.1534L22.5519 25.2499L13.8673 21.3882C13.3996 21.179 12.8827 21.1048 12.3751 21.1741C11.8675 21.2433 11.3893 21.4531 10.9947 21.7799C10.6001 22.1067 10.3048 22.5373 10.1421 23.0231C9.97943 23.5089 9.95591 24.0306 10.0742 24.5291L14.4337 43.1169C14.517 43.4768 14.6726 43.816 14.8909 44.114C15.1092 44.4119 15.3858 44.6625 15.7038 44.8504C16.1343 45.1082 16.6266 45.2446 17.1283 45.2452C17.3722 45.2447 17.6149 45.2101 17.8492 45.1422C25.7955 42.9453 34.189 42.9453 42.1353 45.1422C42.8608 45.333 43.6324 45.228 44.2807 44.8504C44.6007 44.6649 44.8787 44.4151 45.0973 44.1167C45.3159 43.8183 45.4703 43.4779 45.5508 43.1169L49.9274 24.5291C50.0444 24.0304 50.0196 23.509 49.8558 23.0238C49.692 22.5385 49.3958 22.1087 49.0006 21.7829Z" fill="url(#paint0_linear_1342_1143)"/>
<defs>
<linearGradient id="paint0_linear_1342_1143" x1="10" y1="14.7546" x2="39.4006" y2="53.3247" gradientUnits="userSpaceOnUse">
<stop offset="0.291667" stop-color="#11EEA9"/>
<stop offset="0.703125" stop-color="#0395FC"/>
<stop offset="1" stop-color="#0054FF"/>
</linearGradient>
</defs>
</svg>
