<svg width="121" height="120" viewBox="0 0 121 120" fill="none" xmlns="http://www.w3.org/2000/svg">
<path fill-rule="evenodd" clip-rule="evenodd" d="M17.7357 25.625C17.7357 24.3698 18.7537 23.3333 19.9864 23.3333H101.013C102.246 23.3333 103.264 24.3698 103.264 25.625V82.9167H107.765V25.625C107.765 21.8385 104.732 18.75 101.013 18.75H19.9864C16.2676 18.75 13.2342 21.8385 13.2342 25.625V82.9167H17.7357V25.625ZM52.4291 85.2083H6.48193V89.7917C6.48193 96.099 11.541 101.25 17.7357 101.25H103.264C109.459 101.25 114.518 96.099 114.518 89.7917V85.2083H70.8212L68.5705 87.5H54.6799L52.4291 85.2083ZM17.7357 96.6667C14.0271 96.6667 10.9834 93.5677 10.9834 89.7917H50.5645L52.8153 92.0833H70.4351L72.6858 89.7917H110.016C110.016 93.5677 106.973 96.6667 103.264 96.6667H17.7357Z" fill="url(#paint0_linear_1330_958)"/>
<path fill-rule="evenodd" clip-rule="evenodd" d="M51.497 34.7917C46.4277 34.7917 42.494 30.7865 42.494 25.625H46.9955C46.9955 28.2552 48.9138 30.2083 51.497 30.2083C54.0802 30.2083 55.9985 28.2552 55.9985 25.625H60.5C60.5 30.7865 56.5663 34.7917 51.497 34.7917ZM81.8507 55.4167H70.6595L69.6973 63.4993C69.4919 63.5779 69.2948 63.66 69.1059 63.7433L62.7816 58.7901L54.8101 66.9065L59.6936 73.3705C59.6235 73.5441 59.5553 73.72 59.4898 73.8965L51.4969 74.6364V82.9167H55.9984V78.8219L62.971 78.1766L63.3587 76.5975C63.5327 75.8887 63.9129 74.9035 64.3136 74.0874L64.9442 72.8032L60.7879 67.3018L63.1698 64.8766L68.573 69.1085L69.8342 68.4664C70.7547 67.9978 71.4041 67.679 72.195 67.518L73.792 67.1928L74.6483 60H77.8619L78.7085 67.1117L80.2107 67.4941C80.9068 67.6712 81.8745 68.0583 82.676 68.4664L83.9372 69.1085L89.3404 64.8766L91.7223 67.3018L87.566 72.8032L88.1966 74.0874C88.6568 75.0246 88.9699 75.6858 89.1281 76.4911L89.4577 78.169L96.5118 78.8219V82.9167H101.013V74.6364L93.0572 73.8999C92.9854 73.708 92.9109 73.5234 92.8353 73.3458L97.7001 66.9065L89.7286 58.7901L83.3801 63.7623C83.1945 63.6847 83.0063 63.6093 82.8175 63.5373L81.8507 55.4167ZM76.2553 71.4583C71.186 71.4583 67.2523 75.4635 67.2523 80.625V82.9167H71.7538V80.625C71.7538 77.9948 73.6721 76.0417 76.2553 76.0417C78.8385 76.0417 80.7568 77.9948 80.7568 80.625V82.9167H85.2583V80.625C85.2583 75.4635 81.3246 71.4583 76.2553 71.4583ZM26.7388 25.625H22.2373V34.7917H32.5405C32.7987 35.4943 33.0943 36.193 33.4262 36.8876L26.2567 44.1875L35.7418 53.8451L42.8635 46.5939C43.5339 46.9382 44.2366 47.2393 44.9698 47.499V57.7083H58.4743V47.2178C59.1644 46.9549 59.8506 46.654 60.5327 46.316L67.7023 53.6159L77.1875 43.9583L70.0658 36.7072C70.4039 36.0245 70.6997 35.309 70.9547 34.5625H80.7567V25.625H76.2552V29.9792H67.5205L67.0943 31.715C66.6979 33.3296 66.1177 34.6846 65.3795 35.8122L64.3559 37.3753L70.8214 43.9583L67.7023 47.1341L61.326 40.6419L59.8334 41.5103C58.3984 42.3452 56.9893 42.9564 55.6052 43.359L53.9728 43.8339V53.125H49.4713V44.0024L47.7665 43.5684C46.1807 43.1648 44.8499 42.5741 43.7425 41.8224L42.2072 40.7803L35.7418 47.3633L32.6227 44.1875L38.999 37.6953L38.1461 36.1755C37.3261 34.7144 36.7258 33.2797 36.3304 31.8704L35.864 30.2083H26.7388V25.625Z" fill="#FBFBFC"/>
<defs>
<linearGradient id="paint0_linear_1330_958" x1="6.48193" y1="18.75" x2="86.0706" y2="122.973" gradientUnits="userSpaceOnUse">
<stop offset="0.291667" stop-color="#11EEA9"/>
<stop offset="0.703125" stop-color="#0395FC"/>
<stop offset="1" stop-color="#0054FF"/>
</linearGradient>
</defs>
</svg>
