<svg id="Capa_1" data-name="Capa 1" xmlns="http://www.w3.org/2000/svg" width="1046.98" height="1000" viewBox="0 0 1046.98 1000"><defs><style>.cls-1{fill:#dce4ef;}.cls-2{fill:#725bff;}.cls-3{fill:#ff7480;}.cls-4{fill:#28e8a3;}.cls-5{fill:#fbce13;}.cls-6{fill:#11d9ed;}</style></defs><circle class="cls-1" cx="115.02" cy="115.02" r="115.02"/><circle class="cls-1" cx="931.96" cy="115.02" r="115.02" transform="translate(191.63 692.68) rotate(-45)"/><polygon class="cls-2" points="261.61 641.61 217.66 597.66 218.13 334.63 393.39 509.83 261.61 641.61"/><polygon class="cls-3" points="788.67 641.61 831.74 598.53 832.14 334.63 656.88 509.83 788.67 641.61"/><rect class="cls-4" x="431.97" y="680.25" width="186.36" height="186.36" transform="translate(-393.09 597.87) rotate(-45)"/><rect class="cls-5" x="563.72" y="548.42" width="186.36" height="186.36" transform="translate(-261.28 652.42) rotate(-45)"/><rect class="cls-6" x="300.2" y="548.47" width="186.36" height="186.36" transform="translate(-338.5 466.1) rotate(-45)"/><rect class="cls-1" x="831.74" y="334.63" width="200.36" height="665.37"/><rect class="cls-1" x="17.3" y="334.63" width="200.36" height="665.37"/></svg>