<svg width="121" height="120" viewBox="0 0 121 120" fill="none" xmlns="http://www.w3.org/2000/svg">
<path fill-rule="evenodd" clip-rule="evenodd" d="M62.1615 23.8435C63.2998 22.5191 64.6069 21.3017 66.0783 20.2554L69.1208 24.5339C67.6051 25.6118 66.2898 26.9559 65.2024 28.4576C64.5294 29.3868 63.3309 29.7714 62.2429 29.4072L59.9834 28.6508L58.7446 31.6458L60.8718 32.7142C61.9027 33.232 62.4747 34.3621 62.2815 35.4994C61.9751 37.3039 61.9595 39.1672 62.2803 41.0245C62.4771 42.164 61.9051 43.298 60.8718 43.817L58.7446 44.8855L59.987 47.8892L62.2526 47.1405C63.3463 46.7791 64.5479 47.1729 65.2155 48.1117C66.2934 49.6275 67.6375 50.9428 69.1392 52.0302C70.0685 52.7031 70.453 53.9016 70.0888 54.9896L69.3324 57.2491L72.3274 58.4879L73.3959 56.3607C73.9136 55.3299 75.0438 54.7579 76.1811 54.951C77.9855 55.2574 79.8488 55.2731 81.7061 54.9523C82.8456 54.7555 83.9796 55.3274 84.4986 56.3607L86.662 60.6677L81.9705 63.0242L80.6381 60.3714C79.5016 60.4605 78.3716 60.4575 77.2573 60.3697L75.924 63.0242C75.3067 64.2531 73.8457 64.7973 72.575 64.2717L65.0623 61.1643C63.7877 60.6371 63.1385 59.2133 63.5764 57.9053L64.5252 55.0711C63.6854 54.3493 62.8886 53.5596 62.1512 52.7033L59.3176 53.6397C58.0116 54.0713 56.5939 53.4216 56.0682 52.1506L52.9609 44.6379C52.4353 43.3672 52.9795 41.9061 54.2084 41.2889L56.8612 39.9564C56.7721 38.82 56.775 37.69 56.8628 36.5757L54.2084 35.2424C52.9795 34.6251 52.4353 33.1641 52.9609 31.8933L56.0682 24.3807C56.5954 23.106 58.0192 22.4569 59.3272 22.8947L62.1615 23.8435ZM77.3495 34.8907C75.3859 35.3878 73.9416 37.1683 73.9416 39.2883C73.9416 41.8065 75.987 43.8416 78.4949 43.8416C80.181 43.8416 81.651 42.9335 82.4369 41.5737L86.9823 44.2009C85.2902 47.1284 82.1188 49.0916 78.4949 49.0916C73.0969 49.0916 68.6916 44.7154 68.6916 39.2883C68.6916 34.7217 71.81 30.8775 76.061 29.8012L77.3495 34.8907ZM31.2946 43.7459C32.5654 43.2203 34.0264 43.7645 34.6436 44.9934L35.9761 47.6462C37.1126 47.5571 38.2426 47.5601 39.3569 47.6479L40.6902 44.9934C41.3074 43.7645 42.7684 43.2203 44.0392 43.7459L51.5519 46.8533C52.8265 47.3805 53.4757 48.8043 53.0378 50.1123L52.089 52.9465C52.9288 53.6683 53.7255 54.4579 54.4629 55.3143L57.2966 54.3779C58.6026 53.9463 60.0202 54.596 60.5459 55.867L63.6533 63.3797C64.1789 64.6504 63.6347 66.1114 62.4058 66.7287L59.753 68.0611C59.8421 69.1976 59.8391 70.3276 59.7513 71.4419L62.4058 72.7752C63.6347 73.3925 64.1789 74.8535 63.6533 76.1243L60.5459 83.6369C60.0187 84.9116 58.595 85.5607 57.2869 85.1228L54.4506 84.1733C53.3106 85.4947 52.0081 86.699 50.5515 87.751L47.4777 83.4949C49.0148 82.3848 50.3319 81.0513 51.4118 79.56C52.0847 78.6308 53.2832 78.2462 54.3712 78.6104L56.6308 79.3668L57.8695 76.3718L55.7424 75.3034C54.7115 74.7856 54.1395 73.6555 54.3326 72.5182C54.639 70.7137 54.6547 68.8504 54.3339 66.9931C54.1371 65.8536 54.7091 64.7196 55.7424 64.2006L57.8695 63.1321L56.6271 60.1284L54.3616 60.8771C53.2678 61.2385 52.0662 60.8446 51.3987 59.9059C50.3208 58.3901 48.9767 57.0748 47.475 55.9874C46.5457 55.3145 46.1611 54.116 46.5254 53.028L47.2818 50.7684L44.2868 49.5297L43.2183 51.6568C42.7005 52.6877 41.5704 53.2597 40.4331 53.0666C38.6287 52.7602 36.7653 52.7445 34.908 53.0653C33.7686 53.2621 32.6345 52.6902 32.1155 51.6568L31.0471 49.5297L28.0433 50.7721L28.792 53.0376C29.1535 54.1314 28.7596 55.333 27.8208 56.0005C26.3051 57.0784 24.9898 58.4225 23.9023 59.9242L19.6501 56.845C20.6708 55.4355 21.8655 54.1106 23.2293 52.9363L22.2928 50.1026C21.8612 48.7967 22.5109 47.379 23.7819 46.8533L31.2946 43.7459ZM37.8832 64.825C34.9867 64.825 32.6416 67.17 32.6416 70.0666H27.3916C27.3916 64.2705 32.0872 59.575 37.8832 59.575C43.6793 59.575 48.3749 64.2705 48.3749 70.0666C48.3749 75.8627 43.6793 80.5583 37.8832 80.5583V75.3083C40.7798 75.3083 43.1249 72.9632 43.1249 70.0666C43.1249 67.17 40.7798 64.825 37.8832 64.825Z" fill="#FBFBFC"/>
<path fill-rule="evenodd" clip-rule="evenodd" d="M53.6167 17.625C34.4294 17.625 18.875 33.1794 18.875 52.3667C18.875 71.554 34.4294 87.1083 53.6167 87.1083C72.804 87.1083 88.3583 71.554 88.3583 52.3667C88.3583 33.1794 72.804 17.625 53.6167 17.625ZM13.625 52.3667C13.625 30.2799 31.5299 12.375 53.6167 12.375C75.7035 12.375 93.6083 30.2799 93.6083 52.3667C93.6083 74.4535 75.7035 92.3583 53.6167 92.3583C31.5299 92.3583 13.625 74.4535 13.625 52.3667ZM101.038 97.6L85.1938 81.7562L88.9062 78.0438L106.606 95.7438C107.631 96.769 107.631 98.431 106.606 99.4562L100.706 105.356C99.681 106.381 98.019 106.381 96.9938 105.356L79.2938 87.6562L83.0062 83.9438L98.85 99.7877L101.038 97.6Z" fill="url(#paint0_linear_1330_986)"/>
<defs>
<linearGradient id="paint0_linear_1330_986" x1="13.625" y1="12.375" x2="107.375" y2="106.125" gradientUnits="userSpaceOnUse">
<stop offset="0.291667" stop-color="#11EEA9"/>
<stop offset="0.703125" stop-color="#0395FC"/>
<stop offset="1" stop-color="#0054FF"/>
</linearGradient>
</defs>
</svg>
