<svg width="121" height="120" viewBox="0 0 121 120" fill="none" xmlns="http://www.w3.org/2000/svg">
<path fill-rule="evenodd" clip-rule="evenodd" d="M22.2941 15.5576L22.2924 15.5577C20.6411 15.5607 19.0582 16.218 17.8905 17.3857C16.7228 18.5534 16.0655 20.1362 16.0625 21.7876L16.0625 85.3383C16.0625 85.9202 16.2925 86.4787 16.7025 86.8918C17.1124 87.3049 17.6691 87.5392 18.251 87.5437L18.2582 87.5437H26.1749C28.1368 93.8503 31.7896 99.5042 36.7422 103.887L36.7434 103.889C37.1424 104.24 37.6546 104.437 38.1865 104.442H82.8041L82.8134 104.442C83.3454 104.437 83.8584 104.24 84.2574 103.888C89.213 99.5068 92.8666 93.852 94.8255 87.5437H102.742L102.749 87.5437C103.331 87.5392 103.888 87.3049 104.298 86.8918C104.708 86.4787 104.938 85.9202 104.937 85.3383L104.938 21.7699L104.937 21.7649C104.929 20.1272 104.276 18.5587 103.122 17.3976C101.967 16.2364 100.402 15.5756 98.7645 15.5576L22.2941 15.5576ZM21.0435 20.4955C21.3885 20.1517 21.8556 19.9587 22.3425 19.9587H98.8026C99.2896 19.9587 99.7567 20.1517 100.102 20.4955C100.446 20.8382 100.64 21.303 100.643 21.7885L100.643 21.7926L100.601 28.2268H20.5023V21.7912C20.5044 21.3047 20.6989 20.8388 21.0435 20.4955ZM20.5023 83.1426V32.6085H100.594V83.1426H95.982C96.8542 78.2536 96.7059 73.2325 95.5415 68.3962C94.287 63.1859 91.8849 58.3215 88.5104 54.1581C85.136 49.9946 80.8744 46.6373 76.0368 44.3312C71.1992 42.025 65.9076 40.8283 60.5484 40.8283C55.1892 40.8283 49.8976 42.025 45.06 44.3312C40.2224 46.6373 35.9608 49.9946 32.5864 54.1581C29.2119 58.3215 26.8098 63.1859 25.5553 68.3962C24.3909 73.2325 24.2426 78.2536 25.1148 83.1426H20.5023ZM42.6618 50.7877C47.9264 47.1732 54.1625 45.2385 60.5484 45.2385C66.9343 45.2385 73.1704 47.1732 78.435 50.7877C83.6996 54.4021 87.7456 59.5267 90.0399 65.4863C92.3343 71.4458 92.7693 77.9606 91.2876 84.1723C89.8337 90.2676 86.6012 95.7903 82.0046 100.041H39.0922C34.4955 95.7903 31.263 90.2676 29.8091 84.1723C28.3275 77.9606 28.7625 71.4458 31.0568 65.4863C33.3512 59.5267 37.3972 54.4021 42.6618 50.7877Z" fill="url(#paint0_linear_1330_993)"/>
<path fill-rule="evenodd" clip-rule="evenodd" d="M66.9477 50.4461C61.5968 49.1441 55.9765 49.4989 50.8318 51.4635C45.6871 53.4282 41.2609 56.9099 38.1398 61.4472C35.0189 65.9844 33.3503 71.3629 33.3555 76.8699C33.3556 77.3527 33.5474 77.8157 33.8888 78.1571C34.2302 78.4985 34.6933 78.6903 35.1762 78.6903H39.3737C39.6177 78.7081 39.8629 78.6768 40.0949 78.5981C40.3352 78.5165 40.556 78.3858 40.7432 78.2144C40.9303 78.0429 41.0798 77.8343 41.182 77.602C41.2843 77.3697 41.3371 77.1186 41.3371 76.8648C41.3371 76.6109 41.2843 76.3599 41.182 76.1275C41.0798 75.8952 40.9303 75.6867 40.7432 75.5152C40.556 75.3437 40.3352 75.213 40.0949 75.1315C39.8629 75.0528 39.6177 75.0215 39.3737 75.0392H37.094C37.5394 69.4621 39.9585 64.2182 43.9272 60.2562C47.8962 56.294 53.1445 53.8838 58.7228 53.4481V55.7288C58.7051 55.9728 58.7363 56.218 58.8151 56.45C58.8966 56.6904 59.0274 56.9112 59.1988 57.0983C59.3703 57.2855 59.5788 57.4349 59.8111 57.5372C60.0435 57.6394 60.2945 57.6922 60.5484 57.6922C60.8022 57.6922 61.0533 57.6394 61.2856 57.5372C61.5179 57.4349 61.7265 57.2855 61.8979 57.0983C62.0694 56.9111 62.2001 56.6904 62.2817 56.45C62.3604 56.2181 62.3917 55.9729 62.3739 55.7288V53.4473C65.2632 53.6694 68.0884 54.4235 70.7066 55.6734C73.5032 57.0084 76.0084 58.8827 78.0785 61.1888L78.0832 61.1939C78.4082 61.547 78.8582 61.7592 79.3374 61.7852C79.8165 61.8113 80.2869 61.6491 80.6482 61.3333L80.6526 61.3294C80.8315 61.1697 80.9771 60.9762 81.081 60.7601C81.1849 60.544 81.2451 60.3095 81.2581 60.07C81.2711 59.8305 81.2367 59.5909 81.1568 59.3648C81.0772 59.1395 80.9541 58.9321 80.7944 58.7544C77.1276 54.6456 72.2987 51.7482 66.9477 50.4461ZM86.5448 59.9507C86.4776 59.4986 86.2437 59.088 85.8891 58.7996C85.5424 58.5157 85.1036 58.3689 84.6559 58.3869C84.2077 58.4049 83.7818 58.5869 83.4589 58.8982L56.6012 85.0207C56.3892 85.205 56.1873 85.4004 55.9961 85.6061C55.8891 85.7136 55.7961 85.8341 55.7191 85.9647C54.9299 87.0027 54.5025 88.2712 54.503 89.5758C54.4954 90.7988 54.8604 91.9951 55.5494 93.0055C56.2387 94.0165 57.2198 94.7935 58.3619 95.2329C59.5039 95.6723 60.7527 95.7534 61.942 95.4652C63.1177 95.1803 64.18 94.548 64.9908 93.6511C65.1249 93.536 65.2423 93.4028 65.3396 93.2552L65.3977 93.1639C65.5273 92.9964 65.6426 92.8182 65.7422 92.6314L86.2538 61.2401C86.508 60.8616 86.6118 60.4018 86.5448 59.9507ZM59.0717 87.6922L74.238 72.9636L62.6375 90.7118L62.4637 90.9849L62.4173 91.0313L62.3975 91.0561C62.1779 91.3316 61.8989 91.554 61.5814 91.7067C61.264 91.8593 60.9162 91.9383 60.564 91.9379C59.9282 91.9356 59.319 91.682 58.8693 91.2324C58.4201 90.7832 58.1666 90.1749 58.1638 89.5397C58.1681 88.9881 58.3671 88.4557 58.7256 88.0364L58.7373 88.0227L58.7867 87.9569C58.8716 87.8683 58.9613 87.7844 59.0555 87.7057L59.0717 87.6922ZM85.2354 66.778C84.7986 66.5695 84.2969 66.543 83.8405 66.7044C83.3842 66.8657 83.0106 67.2018 82.8021 67.6386C82.5935 68.0754 82.5672 68.5777 82.7286 69.034C83.4197 70.9825 83.8489 73.0133 84.0055 75.073L81.601 75.1357L81.5838 75.1372C81.1278 75.1772 80.7033 75.3865 80.3941 75.7241C80.0848 76.0616 79.9133 76.5027 79.9133 76.9605C79.9133 77.4182 80.0848 77.8593 80.3941 78.1969C80.7033 78.5344 81.1278 78.7438 81.5838 78.7837L81.616 78.7865L85.8774 78.6695L85.8792 78.6695C86.3523 78.6549 86.8011 78.4567 87.1305 78.1168C87.4593 77.7776 87.6433 77.324 87.6438 76.8517C87.669 73.7797 87.171 70.7258 86.1712 67.821L86.1697 67.8165C86.0083 67.3601 85.6722 66.9866 85.2354 66.778Z" fill="#FBFBFC"/>
<path d="M25.0536 25.2763C25.7539 25.1626 26.2296 24.5027 26.1159 23.8023C26.0022 23.1019 25.3422 22.6263 24.6418 22.74C23.9415 22.8537 23.4658 23.5136 23.5795 24.214C23.6932 24.9144 24.3532 25.39 25.0536 25.2763Z" fill="#FBFBFC"/>
<path d="M28.7014 25.2944C29.411 25.2944 29.9862 24.7192 29.9862 24.0096C29.9862 23.3001 29.411 22.7248 28.7014 22.7248C27.9919 22.7248 27.4167 23.3001 27.4167 24.0096C27.4167 24.7192 27.9919 25.2944 28.7014 25.2944Z" fill="#FBFBFC"/>
<path d="M32.7627 25.276C33.4631 25.1623 33.9387 24.5024 33.825 23.802C33.7113 23.1016 33.0514 22.626 32.351 22.7397C31.6506 22.8534 31.175 23.5133 31.2887 24.2137C31.4024 24.9141 32.0623 25.3897 32.7627 25.276Z" fill="#FBFBFC"/>
<defs>
<linearGradient id="paint0_linear_1330_993" x1="16.0625" y1="15.5576" x2="104.947" y2="104.433" gradientUnits="userSpaceOnUse">
<stop offset="0.291667" stop-color="#11EEA9"/>
<stop offset="0.703125" stop-color="#0395FC"/>
<stop offset="1" stop-color="#0054FF"/>
</linearGradient>
</defs>
</svg>
