<svg width="80" height="80" viewBox="0 0 80 80" fill="none" xmlns="http://www.w3.org/2000/svg">
<path fill-rule="evenodd" clip-rule="evenodd" d="M64.2683 22.2591H66.4064V25.2591H64.2683V27.3454H61.2683V25.2591H59.1302V22.2591H61.2683V20.1727H64.2683V22.2591ZM61.5556 24.9545H63.981V22.5636H61.5556V24.9545ZM61.0038 33.6914C60.6406 33.3334 60.043 33.3334 59.6798 33.6914L50.3524 42.886L53.066 45.561L62.424 36.3362C62.7752 35.99 62.7752 35.4376 62.424 35.0914L61.0038 33.6914ZM50.9293 47.6673L48.2157 44.9923L30.3669 62.5871C30.0157 62.9334 30.0157 63.4857 30.3669 63.8319L29.3139 64.9001L30.3669 63.8319L31.7872 65.2319C32.1504 65.5899 32.748 65.5899 33.1112 65.2319L50.9293 47.6673ZM57.5737 31.5549C59.1049 30.0455 61.5787 30.0455 63.1098 31.5549L64.5301 32.955C66.0732 34.4761 66.0732 36.9515 64.5301 38.4726L35.2172 67.3684C33.686 68.8778 31.2123 68.8778 29.6811 67.3684L30.7094 66.3253L29.6811 67.3684L28.2609 65.9684C26.7177 64.4472 26.7177 61.9718 28.2609 60.4507L57.5737 31.5549ZM66.6937 46.1679H68.8318V49.1679H66.6937V51.2543H63.6937V49.1679H61.5556V46.1679H63.6937V44.0816H66.6937V46.1679ZM63.981 48.8634H66.4064V46.4725H63.981V48.8634ZM56.9921 52.4497V57.2315H53.9921V52.4497H56.9921ZM53.0667 61.1224H48.2159V58.1224H53.0667V61.1224ZM62.7683 61.1224H57.9175V58.1224H62.7683V61.1224ZM53.9921 62.0133H56.9921V66.795H53.9921V62.0133Z" fill="url(#paint0_linear_1073_11246)"/>
<path fill-rule="evenodd" clip-rule="evenodd" d="M30.3953 12.7821C30.5034 12.0457 31.1351 11.5 31.8794 11.5H39.0859C39.8301 11.5 40.4618 12.0457 40.5699 12.7821L41.3291 17.9526C42.432 18.2935 43.492 18.7279 44.5013 19.2479L48.7668 16.1076C49.3605 15.6705 50.184 15.7297 50.7091 16.2473L55.8055 21.2712C56.342 21.8 56.403 22.6448 55.948 23.2452L52.7808 27.4257C53.4556 28.704 53.9878 30.065 54.3605 31.4927C54.5697 32.2942 54.0896 33.1137 53.288 33.3229C52.4865 33.5322 51.667 33.052 51.4578 32.2505C51.0697 30.764 50.4767 29.364 49.7045 28.0739C49.3902 27.5488 49.4264 26.8854 49.7959 26.3977L52.7616 22.4832L49.5146 19.2824L45.5096 22.2309C45.0284 22.5852 44.3827 22.62 43.8661 22.3195C42.5548 21.5568 41.1307 20.9705 39.6174 20.5866C39.0302 20.4376 38.5902 19.95 38.5022 19.3505L37.79 14.5H33.1752L32.463 19.3505C32.375 19.95 31.9351 20.4376 31.3478 20.5866C29.8346 20.9705 28.4104 21.5568 27.0991 22.3195C26.5825 22.62 25.9369 22.5852 25.4556 22.2309L21.4507 19.2824L18.2036 22.4832L21.1693 26.3977C21.5389 26.8854 21.575 27.5488 21.2608 28.0739C20.4885 29.364 19.8955 30.764 19.5075 32.2505C19.3548 32.8352 18.8662 33.2712 18.268 33.3565L13.335 34.0604V38.5619L18.268 39.2658C18.8662 39.3511 19.3548 39.7871 19.5075 40.3718C19.8955 41.8583 20.4885 43.2583 21.2608 44.5484C21.575 45.0735 21.5389 45.7369 21.1693 46.2246L18.2036 50.1391L21.4507 53.3399L25.4556 50.3914C25.9369 50.0371 26.5825 50.0023 27.0991 50.3028C28.4104 51.0655 29.8346 51.6519 31.3478 52.0357C32.1508 52.2395 32.6366 53.0555 32.4329 53.8585C32.2292 54.6615 31.4131 55.1473 30.6101 54.9436C29.1547 54.5744 27.7671 54.0458 26.4639 53.3745L22.1985 56.5147C21.6047 56.9519 20.7813 56.8926 20.2562 56.375L15.1598 51.3511C14.6233 50.8223 14.5623 49.9776 15.0172 49.3771L18.1844 45.1966C17.664 44.2108 17.2284 43.1757 16.8854 42.0989L11.6231 41.3481C10.884 41.2426 10.335 40.6097 10.335 39.8631V32.7592C10.335 32.0126 10.884 31.3797 11.6231 31.2742L16.8854 30.5234C17.2285 29.4466 17.664 28.4115 18.1844 27.4257L15.0172 23.2452C14.5623 22.6448 14.6233 21.8 15.1598 21.2712L20.2562 16.2473C20.7813 15.7297 21.6047 15.6705 22.1985 16.1076L26.4639 19.2479C27.4733 18.7279 28.5332 18.2935 29.6361 17.9526L30.3953 12.7821ZM35.4826 31.151C32.5593 31.151 30.2264 33.4815 30.2264 36.3112C30.2264 39.1408 32.5593 41.4713 35.4826 41.4713C38.4059 41.4713 40.7389 39.1408 40.7389 36.3112C40.7389 33.4815 38.4059 31.151 35.4826 31.151ZM27.2264 36.3112C27.2264 31.7843 30.9432 28.151 35.4826 28.151C40.0221 28.151 43.7389 31.7843 43.7389 36.3112C43.7389 40.8381 40.0221 44.4713 35.4826 44.4713C30.9432 44.4713 27.2264 40.8381 27.2264 36.3112Z" fill="#FBFBFC"/>
<defs>
<linearGradient id="paint0_linear_1073_11246" x1="27.1035" y1="20.1727" x2="74.9149" y2="61.4552" gradientUnits="userSpaceOnUse">
<stop offset="0.291667" stop-color="#11EEA9"/>
<stop offset="0.703125" stop-color="#0395FC"/>
<stop offset="1" stop-color="#0054FF"/>
</linearGradient>
</defs>
</svg>
