<svg width="121" height="120" viewBox="0 0 121 120" fill="none" xmlns="http://www.w3.org/2000/svg">
<path d="M60.8201 14.25C35.4054 14.25 14.8027 34.8526 14.8027 60.2674C14.8027 85.6821 35.4054 106.285 60.8201 106.285C86.2348 106.285 106.837 85.6821 106.837 60.2674C106.837 34.8526 86.2348 14.25 60.8201 14.25ZM60.8201 17.011C66.661 17.011 72.3255 18.1544 77.6566 20.4092C80.2191 21.493 82.6909 22.8348 85.0033 24.3968C87.2944 25.9447 89.4488 27.7224 91.407 29.6805C93.3651 31.6387 95.1428 33.7932 96.6907 36.0842C98.2528 38.3966 99.5944 40.8684 100.678 43.4309C102.933 48.762 104.076 54.4267 104.076 60.2674C104.076 66.1082 102.933 71.7728 100.678 77.1038C99.5944 79.6663 98.2528 82.1382 96.6907 84.4505C95.1428 86.7417 93.3651 88.8961 91.407 90.8542C89.4488 92.8124 87.2944 94.5901 85.0033 96.1379C82.6909 97.7001 80.2191 99.0417 77.6566 100.126C72.3255 102.38 66.661 103.524 60.8201 103.524C54.9794 103.524 49.3147 102.38 43.9837 100.126C41.4211 99.0417 38.9493 97.7001 36.6369 96.1379C34.346 94.5901 32.1914 92.8124 30.2333 90.8542C28.2751 88.8961 26.4974 86.7417 24.9496 84.4505C23.3875 82.1382 22.0458 79.6663 20.9619 77.1038C18.7071 71.7728 17.5638 66.1082 17.5638 60.2674C17.5638 54.4267 18.7071 48.762 20.9619 43.4309C22.0458 40.8684 23.3875 38.3966 24.9496 36.0842C26.4974 33.7932 28.2751 31.6387 30.2333 29.6805C32.1914 27.7224 34.346 25.9447 36.6369 24.3968C38.9493 22.8348 41.4211 21.493 43.9837 20.4092C49.3147 18.1544 54.9794 17.011 60.8201 17.011Z" fill="url(#paint0_linear_1330_1016)" stroke="url(#paint1_linear_1330_1016)"/>
<path d="M94.0989 42.0733C94.2618 43.281 94.3538 44.5768 94.3538 45.9726C94.3538 49.8194 93.6331 54.1454 91.4692 59.5553L79.8867 93.044C91.1612 86.4709 98.7433 74.2564 98.7433 60.266C98.7433 53.6727 97.0583 47.4743 94.0989 42.0733ZM61.4864 63.5831L50.1063 96.6453C53.5049 97.6452 57.0979 98.1905 60.8201 98.1905C65.2362 98.1905 69.4728 97.4283 73.4142 96.0404C73.3128 95.8782 73.2193 95.7059 73.1422 95.5178L61.4864 63.5831ZM86.4214 58.3534C86.4214 53.6652 84.7373 50.4204 83.2951 47.8951C81.3726 44.7698 79.5698 42.1258 79.5698 39.0006C79.5698 35.5152 82.213 32.2703 85.9382 32.2703C86.1065 32.2703 86.2659 32.2905 86.4293 32.3009C79.6822 26.1188 70.6929 22.3444 60.8201 22.3444C47.5707 22.3444 35.9154 29.1425 29.1343 39.4367C30.0247 39.4649 30.8636 39.4827 31.5749 39.4827C35.5407 39.4827 41.6824 39.0006 41.6824 39.0006C43.7256 38.8809 43.9671 41.8842 41.9249 42.1257C41.9249 42.1257 39.8698 42.3664 37.585 42.486L51.3943 83.5637L59.6945 58.6741L53.7864 42.486C51.7432 42.3664 49.809 42.1257 49.809 42.1257C47.7647 42.0051 48.0041 38.8809 50.0495 39.0006C50.0495 39.0006 56.3109 39.4827 60.037 39.4827C64.0027 39.4827 70.1455 39.0006 70.1455 39.0006C72.1898 38.8809 72.4303 41.8842 70.3871 42.1257C70.3871 42.1257 68.33 42.3664 66.047 42.486L79.7521 83.2508L83.6643 70.8543C85.4024 65.4367 86.4214 61.5983 86.4214 58.3534ZM22.897 60.266C22.897 75.276 31.6194 88.2489 44.271 94.3953L26.1808 44.8327C24.0765 49.5487 22.897 54.7679 22.897 60.266Z" fill="#FBFBFC"/>
<defs>
<linearGradient id="paint0_linear_1330_1016" x1="14.8027" y1="14.25" x2="106.838" y2="106.285" gradientUnits="userSpaceOnUse">
<stop offset="0.291667" stop-color="#11EEA9"/>
<stop offset="0.703125" stop-color="#0395FC"/>
<stop offset="1" stop-color="#0054FF"/>
</linearGradient>
<linearGradient id="paint1_linear_1330_1016" x1="14.8027" y1="14.25" x2="106.838" y2="106.285" gradientUnits="userSpaceOnUse">
<stop offset="0.291667" stop-color="#11EEA9"/>
<stop offset="0.703125" stop-color="#0395FC"/>
<stop offset="1" stop-color="#0054FF"/>
</linearGradient>
</defs>
</svg>
